<mxfile host="app.diagrams.net" modified="2024-03-13T10:05:56.308Z" agent="Mozilla/5.0 (Windows NT 10.0; Win64; x64) AppleWebKit/537.36 (KHTML, like Gecko) Chrome/122.0.0.0 Safari/537.36" etag="4qXM3H6dBPpPXcOPXpCX" version="24.0.5" type="github">
  <diagram name="Page-1" id="xhfCqlKCQGqO1BsVD5er">
    <mxGraphModel dx="2049" dy="1120" grid="1" gridSize="10" guides="1" tooltips="1" connect="1" arrows="1" fold="1" page="1" pageScale="1" pageWidth="827" pageHeight="1169" math="0" shadow="0">
      <root>
        <mxCell id="0" />
        <mxCell id="1" parent="0" />
        <mxCell id="gjBThCwCcwyk3Tr7rWLN-1" value="" style="shape=image;verticalLabelPosition=bottom;labelBackgroundColor=default;verticalAlign=top;aspect=fixed;imageAspect=0;image=data:image/png,iVBORw0KGgoAAAANSUhEUgAABAQAAAO5CAYAAACOlPfKAAAgAElEQVR4nOy96ZMkx5Xg9+LIu+7q+8bRFy4CIACC4DXgzVnOzK5p9GHMpC9aszHTV0n/h2RrJpNkks2HnTF90BhnltJyuUtyCILDAUDcR6Mbfd9V1V1XZlaecbjLXrR7w9vb48irKqvr/czSKisjwsPDI8Ld3/N3AEEQBEEQBEEQBEEQBEEQBEEQBEEQBEEQBEEQBEEQBEEQBEEQBEEQBEEQBEEQBEEQBEEQBEEQBEEQBEEQBEEQBEEQBEEQBEEQBEEQBEEQBEEQBEEQBEEQBEEQBEEQBEEQBEEQBEEQBEEQBEEQBEEQBEEQBEEQBEEQBEEQBEEQBEEQBEEQBEEQBEEQBEEQBEEQBEEQBEEQBEEQBEEQg2H1cfS8+JQBwAYARvfgkUXeW6vPZ4UgCIIgCIIghkEoPih/uNSixA7FEjKaBwA+AATivWgCwDoA8F6bpRchD1++3QDwCgA8DQCzAJATFej5xMTYw8XDhn8dUggQBEEQBEEQW4Ccg3rig8qAvJBNSAYhdhq2UAKgAqClvBdLAPAZAFxXZLhMZNWu4Ys47zjOq7Zt/1eO4zxr23bFtm3Htu3ohIw9aChg23b0V/89C/LYfo9X62A63nEc4JyDZVkQhmHsfr2Uqe8jMe3by/niylXpt6ykeyY+CLiua9m2baUdPwh6eYM8A8Ou2yjKjmv/uLLT9pffTe04zGewF+LqMsxzx/Uzvbavab9e70fWY9PqnraP6Rxx37PUOWtd0q6ll+seRb8+rPP0cg16u6Ud289zOeh7M8j4tpl9aa9tl/X97PUasrw/af2Oafzqpz/pp/6DMuz5UL/XMYzxop/3sZ9tWftfSJkTjvJasxzb7ziQ1K+lzTV7uIZoDup5XsAYC1zXtV3XzYnfeVK5w2AYY3raczKK8aOXsrLuO8gY3OuznqXNwDBHMv02jPnoqNotrT4ot6K8Kq8LZTIho3UZY57ruqgcCIIgWGaM/TYIgt8CwFWhLMhELwqBOc75V3K53Df37t372IEDB1BQhE6nc7+yEHNTlAt4YJ+kGy0F9riGUsvqZxKqlh+3b5YHKG4CgB8sH9tFPUYX6k3HpnWWWPfopij1N7VHXN1MnT9+x4cNy87n89Fvt27dgo2NDZibm4Ndu3ZBLpeLtsuHMm3SY7pfeh3i7lEvQpl+HXp9THWMa/u0+xzX3qb7pe9nKifpepLKjHsuk67VVK9e2irpf+jhXYxrh147/qRnLem9TZrYJ02M4t6xLPuZrt+EfozsR/CTZdKZpY0ladecdG/T+sKke5f03urE9WdJ15V2P0znSGuvpH6mlzaNq2taveLOG/eb6XqS2jgLafet3/cvy3XGtVfcfTbdgyztamrbtP467TpxzMQP/h93TJbrz9Lnp41FvfbNWe5dUl+e1OfGtbf+W1xbx5F1nE4a0/VrMbWx6f+4c5nKT3sP0upiIunZTeuTsva1Wdu2H5LeV5Q3cBy8e/cuLC4uRvNRlEOmpqai3/W5aZZxBWKev7j7FHf9WX7TzxvXXlnaM6n+aded5f5kfY7Syss6BqZtN/WRKlnvUZb73Ms4mfa8JI0rcdeV5b2Ssl+9Xoc7d+5AoVCAffv2QbfbxXejWa1W8UW4BQCLo1IIOIyxAmOs9MQTT8B3vvOdqHILCwvRDsViMaokExNYEEJ3bIHiBZZ/1YbElzoIgkiYxpdeJ65cU5nqNlknLN/3/eh82JBqvbOWre6r/oYfz/Oi8rH+KFzL61LrEHe8qf7q77JtQHSQqrUDxCg69POApkyQYJ2xfBT+8fubb74J165dg8cffxy+8pWvQKVSibajEiipveLqn/R/lnqm3Zs01HbUz5f0v34PTPcw6Tr1a0iqR1K7JJWrt1GWNkk7X9rzairPVN9etmd5TkzX2+85smw3tUPcPU2re1zZcdclBwKpcE16FkzPVNK1ZTkma7vE7RNXz7TzZ3nekq5LJa4vSeqDk8pJq19SWb32g/r5s/TtpvKSxsZe6tNLvxf3f1LZ+nn06zSVmWVsTqpLL9cP2n1Iepbldxwz8T3Gd1iO13Hl6ufWy8py/qzjSVpbqKQ9O0ntmLRP0tiY9qz1+rymvY9x9Uu7L1n60F766bg2SnvX456/tL5x0HckqV/Sj4mrZ9r5cQ49MTEBpVIJPv74Y3jjjTeiufXp06ej+Sl+R2EI58a9XhNkfNdN1xbXBlnGo7i2SWqzpGcorU8y1SFu/pF0DXFzCzDcz17eX9M1mM6TZSxIqnNSe/Y6NpiuWd8OMe3d6xgpQbkPn3f8i/LZu+++GynFvvGNb0QKgjfeeKNSrVYrKJbDPbeCzPQSkANnpl3btttYEfz4vs/b7bZlqrQUXPGjCsNyXzwehX25gm6JFTDcJl9s3IYCu/xdbSQUWGXZ6rnldywbG01tVFusgstjsQ74V70ZUnhX6266kbJ8FS5WAvA4PA+Wj39NN1teo+klxo9sH/VYWRdZJpaB+8lt8ljcH5USaueoPmTYrnicumKBf/EYKfBzoThBRQ9qnmZnZ6HZbEKj0Yj2U8vT2yBtm+mliBvI0iYMEPMyQcyLrxPXwWaZsMSR9vKb6hxXXpbJoOm6TWWkdYp6mVmvNalDTap70kAad5y+X9q+cc9X1oEyqf2TrstUnum5NZ1f7oeTn3K5HL1v+O6ZtNdZ6mfaP+uznPW69WvNWscsz3dSmyXVP+48Wd67uLKS6pRWbpa6pk38sr4XcZPFLNcYV06W5yzr89/Pc6O3U9brSrvWXrdnvXYcP3GsnZ6ejuYKOFnDj5zr6MfGXU+Wd0//PWu/k/U+Z+lHs4xNcefXt/cy1sfVXb++rPctrm5p76epDbLOgeL6vKSykq4jre9Mm49AQr+WpY79jkNxbYYfHA/RWhU/+F7h3HRmZib63mq1onmrXOiLa+u49oqrc5b+eBjjnn6cqX1N15T1GdO3SdLql3S+LGNTljbI0rZ6e2R5Z01lJl2LqU36Ie16+n1O1Prj4ixax+zfvz96L5B8Ps/L5bJVKBSauVyu4/t+z/H9eorQKQXI27dvw+9+9zsUDq2lpSUc+LgUjq173N9fCq+mC8ftUnjGzXKbEEzRbz26SLUhHcexVPeEpMaUQi4o/kV4DArSjDFLrOA/0GBq+aAI36DdEKnpx+14/XI71lvsw2U5ugmJ6o+f9FLJ9pPlw4MmI5b6u0o+n7fAYOIiy1fNUMSHy2vFuqG2yXVdvrCwYOGDh/tfv34dPvroI47mKboiZBDSXvBRM8jEMMv+vQ7qw2rPzaSfc/Zbz1Fd31Y9f6Zzi37Gws7+8OHDsLa2FmmCPc/jat806Hk2i1Gedyvvm4leBv5xJku/vJ2upx8G6dfwLwonExMTFq5i4ph68eJFuHHjBir6uancfsaiUdyD7Xpf0wRA0/6DXOegY9g4jTlbRVZFB87jjxw5Ai+//LK1vr4ezVtxUQsVbDg24vw0CALjezWO7TaMch71/lcyTtc5DnXBd2F6etp6+eWX7ysDUA7/8MMPLbFQH40xvSoDoB+FAFKtVqHdbkcv4+rq6moYhm+I4AXIkWKx+Oy+ffuOHjhwoILm51hp6Z8u/YBWVlbg8uXL4a1bt276vn8OAK4IXweUNl8VmQzQH+FdALgDX6bAOzU1NfXVQ4cO7T906JCFZkQooGLZspPAeqKP0WeffcZWV1c/B4APAGAZRHBEkSnhGABcAIB3AKChXObLU1NTX3/iiScKhw4diiwUQAwy0uwPQf/6zz//HGq12nsA8C8i7QOaaTwJAM86jlPgnH/EGPtQKbskyn/5qaeeso8dOxbVW7oAqAoLVLpcu3atub6+juW/J47HwI7P5HI5PEfb87wPGWNfyNsDAAfw3PPz8yefeeaZHAoUsnypzEEtKt6/W7du+YuLi7dardYnAHBRlHHYcZxvVSqVg2idgBYgOKHBOq2ursKFCxdatVoN78eHQOkmCWJUzGA/AQCnJyYmCsvLy/zq1avXPM/Dd+8GtTpB3Ef6FOK78rVvfetbM7t370bldeuzzz47CwAfK+O7v8nN9nSxWHxt3759MzhvuHv3bvPGjRtyPtLIcDxBEPeyXB1njD1z+PDhg81mMy9jBaDFKirZzp8/fxkA/gAAd6m9iEecx4rF4sv79+8/tH//fgfltI2NDba4uOig1YyUg/uhr6PkCjkKy7lcbjkMw/8bAH4lNr9QKpX+6927d//kpZdeOo5+DSiYSksA6bP//vvvw89+9rNgeXn5U9/3/04I1TUAmAKA/wkVCwCAA/r/JQb1QJT/w3K5zA8fPvzN1157bfa5556z0IRImvdLAR59jBYWFjqrq6tY7v8GAJeF0Hxa+FbMC2XD/ywUD5L/rlKpHHrmmWce++53v+ugWYYMpicVGhho74033mDXr1+v12q1/wwA/wt6AQDAXgD4SS6Xm83lcjOMsV92Op3/XSkbr+2/r1QqJ1577bWZH/7whxYqS1CjA8JPGAV27ODefPPNYGVl5cr6+vr/AwD/Hu65QZwsFAr/rW3bs5ZlLefz+X+o1+t/L8p2xbX92/n5+ce+//3v57797W9HbY0KBlQG4HWgIgbb/q233lqt1+tvtVotvHdvijK+6TjOsVwudxCtDHzfZ+K6LfxbKBRQYfNrAPhfRbrJB+CcN6knIojNxbKsCjU5scP5c8dxHrdte0a4xNXFnATH9/ZmNk0v4yC9uwSRCi4S/lmlUim7rrsL/1cDdoqFyvMA8H8AwKfUnMQjzg9KpRIuDu9njDmcc2bbdmhZlqMFIRythQCIVWzVbMJ1XV9o5eQg+GG32z20srLylO/7T5w8edI+derUffN0qblYXl6OTHyCIEDLgrcVoRzLqQuBsy2sA2pKFT70ff9Us9nE1ezpp59+2kGzWtk5YPm1Wi1avS8WixvCcuGMsqK9JM6B5eP221oUxjO2bX9WLBZxpWHX888/D5OTk/fN0VB4v3TpElo9dEql0iUAQOuGNXEslrVmWZZn27bvuu56p9NRJwf4/WKlUrk1MTFROXjwYP7o0aOguhbgSjyaCIdhuBQEAVoGfCTbdmZmZtHzvDqWLeI5rCjtDmLl/vt4Tw4ePAgvvvjiA3EMpOn/Bx98wOr1+o1ut/tHsVohy7jjuq6H9cF9VdMYcTy22bq4PwRBjAekiCN2Oi66uymm2IjNOXc3+/0w+aXG7UPvLkGkgu/ICvpFW5YVzeN1d2HLstqc80V6n4gdwF3XdTv3hpj7Y8xA7qSSvi0EFIHRcRxnUprwoKDaarUWrl+/vrayssJyuZwtV+1VsPL1et3qdDoNRaBG5pToiDmxqu4oK9Lt1dXVG4uLi8vr6+usUChEZhJ62WLVvSs+96suzHHzovyC+F9VCDTCMLzRaDQ22u32LlQGSD8NEB0R+nC0Wi3ftm09pcOscBvAdnUsyyobmq/juu5ap9MJsY5Yvgq6QKArxvr6+vrGxsZVTfieFm2DmiBsmwmtbLzojud5UaeJAcn04EV4Levr6/zWrVtoIXBLXT1xXRfb2o2byOAEC4sVbUcuAwRBEMQ4YKkp/gRWr1GWCYIYO6K5bhiGOUvRpKlxGCzLynHOp+nWETsAFBpzUgEurAEsxVomU3pZEz0PlvJE6gnRpFzZxRUCKwYFjFWRi+wClhi0VdTfLMOgjsoBx3VdK85PQknH54j9ZXl2TPk69zUviqLjPsIfH3FF+WAqT2sXuR1XMlzXxT/m5seYCI6DTWg7avl6e6nBCQ0XEPu76FNluzrKNkvf937Fv4z4SZMsgiAIYizZ6oBtBEEMFTlvf2BOqs1x4+byBPGo8UBQelWO7FcRIOkv8oASYNAArmBPzc7OFjAlCFYYo+u+9957kSn8k08+CS+99FIk9JZKJS60f2VtpT2JYrFYnJqfny9XKhUHI45iAD50EcBzPfvss1FeUowrYNt2UbEGeFiyN1MqFouTMzMzeVQqXL16NfLpv3nzZpR678SJE9FEY3p6Op/P56dEoEAjhgkJ/lDK5XKV2dlZF7djDsmzZ89GaVOwbAxkiCv7u3btKpXL5Zl6vX7fykBVxsS0vyU0R3mMaowBVz777LPog1Yazz33XPS3Uqlg3IXC+vr6lO/7JeEG8FB95f+mbA4EQRAEMU6oqaqSTPYJgthe6HNeYRlAd5HYcZjS4YPyjiTI54n0pBAwDbAy/71CMZfLTaLAiUHs0GcdI/7/7Gc/iyLzf/3rX49W8NFXPp/PByi8MsZQsF6Rp0mpRrFUKk1NT0+XGGP2mTNnIoH697//feQm8Kd/+qfw05/+VNZNKgR66TUmCoXCbLlcLmGAv3feeQf+8Ic/RAqHPXv2wA9+8AN46qmnUCuRcxxnSigzLFHv++kN49oL3RQ45xO5XM7BNnj77bfhl7/8ZZS14dVXX4VvfvObkUvCxMREqVKpzAgXBAAlC4H6VwNX+3NoWoVtgcoMLBs/6JqAdUelA1pXoMJhcXFxqlarFU2VlFCHSxAEQYw7Mr4RQRCPHqbVT3rfiZ2IGlRTZVMtBFThMOHEKLBP7N69u3T37l3n5z//Oa5IR0L08ePHI2XAW2+9BZjPnjEW7tmzp7i6ujrj+74rMgmkKgQKhcJULpcro2UAfnAlH60OUKjGDAAffPBBJAxXq9WcsEDoRV2CfvnzzWazjJYNqMTAxkdFBpZ9/vz56P+1tTW73W5PC4Hd0uutpihUmxAVAs1ms4JWB9ieWH+0aEBrClQEvPnmm4BpkzzPK7qu+4BCQG9zwz2YsCyrgNkBMJMAWmQ0m0346le/Glkd4LlQQYOuBvPz85OlUmmmVqs9FOeAlAAEQRDEdkOuGtIYRhCPFvoCGFmtEjuZfq0AkugrywAo2niDVr7gOA4Kpiiw27iy/vrrr8Nf//VfRyvsuCKO1gIffvhhFAl4ZmamXK1WUSGQy6gQQBP3qfX19TKu4GO6wR/96Efwl3/5l1F6PbQUQIXARx99FGUbcBzHDcMQgwd2Ml5ipd1uz966dSuPZvy40v7DH/4Qvve97wFaI/zmN7+JlAJo9VCtVieEi4SxnQzaS/whv7a2VsI6okn/vn374K/+6q/g2LFj0Ur+L37xiygDQ7PZLHqeN23bdrkHrc9MpVLJe57n/+Y3vymhi8C3vvUtwPSDWJ+/+7u/g1//+teRwsGyLLxHc6rCwYS8x6opJkEQBEGME4OujhAEMb7o7zcpA4idjCme36BKgr6DCoLyQmovJq5QT1ar1RIKvBgrAIXexx57DPbu3QtPPPFEtBKO+fB938cl9ApjbEKY9kOaQiCfz5d935+5e/dusVqtAvrKHzlyJBKoMb0hlr+0tBS5EQRBEJRKpVy5XK4oZSeW77pusdPpVG7dumVjtH9M34dm9ngOjE+A14HXdeXKFfxbUur9UDsZOiw8t7uxsVHElXpUWGC9sVyMHYCWAqg0wd8XFhby7XZ7Mp/PG2MUiMCG6k8OumpMTEwUGWPs2rVrURtjzAbZLvv3748sBfC6sP3CMJwxZCowmqGQNpYgCIIYZ0hpTRA7B3rfiZ2Kujg/LNmsL3UCvoQm7QTcE6grQRDMraysoKAPmGcfP6gYQDAwHwqm6EbQbDZz1WoV95/MqhBAdwTf9+eWlpZKuHqPQjQK09JMEJUPeC5UOgg/e1QgqOlIEsvHmAYYyG9hYQHQAuHkyZNR/fGacWUd/8eyMchgu912hEvCA5YW0r/f0FmhcF8IgsC+e/duZH2ACgZUauAxqHQ4ffp0lNlgcXHRabVa03EKAcNqCKZdmWSMlYX7RRQ3ANsDRFYHVD6gggBdK27evImKm5lisZhoIUAQBEEQ444au4cEBYJ4tBim4EMQjwIy7aBcsB3USq4vhYD6UuomChh533XdPZ7noUk6RsuXEf+j7Rjl/vDhw5FSwPM8d3V1tdyLhYDruhOocGi325GgjCvq+JF1QkUDnk/k9891Op1J3/dnRcC9NAuBKEq/53klDPiHAjsK1GjZgOUXi8XoetA1AVfxUXDH/Kea20BUfsyNmcnlciXLskIUyrF8jB2AZWP74HVgu+DNResHrDsK+Ka2lkElFHJBEExUq9XJMAzz09PTUb1LpS/1CQcOHIiuB90s1tfXC2EYTpfUHUwNYrYCIQiCIIixQbfKozGLIB4tEtIOEsSOQcp+ce9Dv4qBvtMOqidWK2Lb9mQul5vHoH8oa05MTESCtNwHBVkUVnFVHKPdh2FYEn7sRtN7nSAIUECexkT+qFyQ5UtwJRyVAvjBlXjf9yc8z0PT+IJIbZjYizDGcowx3DcqC8vHbAkSPCdes5h8sFwuhwoErH9dLduUASCXy81OTEyUu90uw/gEKJhLywkEzfmxXWR7hWE4wTl/SNkg2x0DNCrkhPsFKhwcVIhgWWpgQ7wf+DtOlIIgyNu2jdkO7isEeEIPS50vQRAEMc48qgIDjb/Eo0gvSjuTr7R6POf8Y3pIiB3Af96zZ8//aHJLHzTt4MBhCg1mPDnXdUvT09MuCqQo9KLpvRzQcFUdo/Xj7yi0z87OOr1kAkBzePTzR0EdhVtsFCxfguXi6jueb2JiIpyenrYdxykqyo/EkRWVCJZl2Sic4wfdA/Ajwe+oIMDrdl2Xu65r64oVw+o9yAwDxWLRKZVKDBUBKKyjlYAEMwLg/3hdqDRB6wMRZ+GhsmNSDrrT09MWXje2A5aHfyWohEDrBmy7mZkZ27ZttCq4X75uDUCTEIIgCGI7IOcilGWAIB491DkvBRAldjom4X9LXAZUdAsBXP12XZfNzs5yXJFG4R/T38l9UHjHVH7429zcHN+3b1+Qz+dRas10JUEQ8Fwuh+VHK95ouq+Wj8oANPfH81QqFX92dtbP5XKZy0c5OJfLcTTfR8Ecy8LgfKjIwDLxXHhe3O44juX7foh6AnFs0iyE+b4fcM4Dx3FCLBtX+LH+0uIAswvg+VBgR3P/QqGgpzKMypcPgHbzmeM4/q5du7zJyckA2x2DK2J7yH3xfywfFR179+7l5XI5xBSFShlR+bItZWYB8t0iCIIgxh0ZP4CU2QTxaGFyCaL3nNipjCLrxtAtBHzfrwLA0uTk5AZWGPPtY4o+KcTiCjsG1EPBOgxDVi6Xa67rLgNAQxSReFVBEGw4jrMyPT2NwjVcvXo1Kl/WAQVePC+uwDPGnDAMsdxlRWhPu2avUqm00d8eLQEwmwAGGMTVfMwugNeDZaOvf6FQQIUAlttUC4hZwce7t95qtdCcIYcCP1pQyOCFuD9+v3DhQvQdzz8xMVEXbg4PlK22vULHcZz1fD6P18ulhQBmFJD73r59Gy5evBj9Pz8/38zn83e73W4triGosyUIgiC2A5SWjCAeXUaRd50gtitq4Hp18XYQRvGG3QnD8AvO+R0UoHF1HT+oAAAhsONqO5rG12o1v16vL2GWPACQgmlinRhjdxzHuZTL5dZQ4MVo/yjoYhA+XGFH6wM0t8fgeXj+xcXFdQC4jboKoWxImiVw27bXy+XyIq7SYx1RAYDlo7k9/sXzYf1xe6FQqNu2jfXuKGVYEG+6sdpsNnF/hhYGaGmA5aFSA68F644KCFzVR+uGcrl8XSgz9Da4/1HAOiwtLy9ju6CrROSSgVYB6CaAFgN4H+7cuRN9x3LDMLwQhuGiXr7uOiCtQEhBQBAEQRAEQWw2NAcliAcZpvtM30EFY8zWkdvdbvf9xcXFr8/MzDyNKfvQKuDv//7vIyEaBVQUhPH3hYWFxurq6o1Op3OlhxX8y2EYvrW+vn5qbm5uDwrWKFT/7d/+7X3rAwz8t3v3bn9hYeFGvV6/IoRqLvzsE8u3bfucbdu/bzQas+VyeT+a9b///vuRMgCFdlRsoKKAMVazbfuPlmWdQ8MFU9sYaIVheIVzfi6Xyz2LAQBRCfDzn//8vrUAng8F+LW1tWXG2FsAcE4tN8b6AAk9z7uzsrJyde/evYsHDx6sTE5OOrLueAy6J2BqQ7wHS0tLdzqdzh8B4LpekNrpUpYBgiAIYjtA4xRBEATxKKPL3bqibNOzDMgTCuFUHYXXarXap91u97Nnn332xaNHj87iivTf/M3fYKo7OHjwIDz++ONw6NCherVa/ez27dtntVVwk7Srln9jfX39X1qt1ldKpdKT09PTE9euXYNf/OIX0co9pjScm5vDoH1Xpqamfru4uPgphhYwlGMkCILParXaf8TUibZt/6RYLJbeeeedSOmAygesf7VaDRuNxkdhGP48DMOPYuoZxxkA+MXGxoa9tLT0vG3b7ttvvx0J68ePH4/Osbi42L1y5cr76+vr/wQAX/RwW2pBEJwpFot/mJ2dLbZaraNvvfUWYPtg5oJvfOMbkSJmcXGxceXKlU855++jRcdDjf1g5Nb7pik02SIIgiDGFd2EkiCIR4M0IYggdhq6TKbJ5T0zFAsB7cXEGt3udDr/WK/XK9euXftXjUbjAK6Eo1k/rq5zzruTk5PvO47z977vv4uxCHs4deD7/gXf9/+hWq1Wrly58uNWqzWDlgFoIYCr67t27VqoVCq/L5fL/wgAZ3u8tI16vf6eZVm7HMeZbTab39zY2MihqwO6IKDgjmV2Op1fdbvdNwFgQS/AkBJQ5arrur+oVqtOs9nM+77/HLYL1htjFqyurnorKyv/fPfu3X/wff89kc5Qlnv/7sfccGz7M7lc7j80Go2pxcXFuTt37kyi5QFaZXzxxReYXaBWq9V+6XnePwrrgDCpMchCgCAIgtgOqBlySClAEI8O+pyX5qTETkdVgMMQ4mwMy0JAB83/f3/58uVgaWkpnJiY+MbExES+VCrZnue1r1y5chMA/pPv+z8HgId82DOAgfN+e+3aNb68vMymp6dfmp+fRwHbqtfrq/V6/aNyufyLqampt5Vghb2wbNv27xYWFjBdYXd2dvbknj17WKPRcC5duv9AnqMAACAASURBVIR1/+3U1NSvDx06dP3s2bMPCdQppv0bs7Ozn62trdmNRoMzxqqzs7OHsfxqtWpfvnwZlQ0/A4BfYUwAU7my7Jjy73S73X8+d+7cnO/7mFrwiX379lVw38uXL6NS44Nut/vv8RpEXIWHkA+ZjBtgUPoQBEEQxFihT5AIgng0oTkpsVORsh+Oc6oF96DxBPpWCGQhCIIPa7VaE1fSZ2Zm9jiO47Tb7bVGo3ELA9r1qQyQdDCWQL1eXwGA05Zl7cEUes1mE60Trqyurl7pUxmA8PX1dRT8fwEAV1zXfdJxnEqj0Wi1Wi1cVb/YarVuLS0teaaDE5QBEWfPnvWE6wBG9/uwVCodcxwn32g06p1OB9vlfFzbZNEAXb16Fc0YfuO67rVisXh0YmJi3rIsvrq6uub7/nlRvlEZoKKneCEIgiCIcYeC4BLEo8Uwg6cRxKOEaiEwyLg3sMsAJAuLGPn+k06nc2ZpaWm3COpXG0BQ18Gy3qvX65/U6/W9wvx9tUcXhDiw97mFn3q9/m69Xp8S9V5POzBh9V6lLeIDnF9dXd21urpaFGXHtk2PHeJCEAQLjUYDFRnTIqjish4AMQk1bgBNrgiCIIhxJW7MPXnyZPQXxzBM8YtuixhvCOc/uVxuPpfLTVuWVTDEQ3rAEjJJ0a9uk9+ffPLJ6F/LskLOecvzvMVWq+UHQcAxCxAGP8bYPvgxjbPS5QH/ymvQt5n21a0kTP+b9o87Jm6/pOP0YyVxrhz4G7o0EkQW9HTnBLGTMfXF/TCwy0BGQt38fch4QngfldRaE778mcrvsW2koG6llY+dYBAED/yfgab4ZEYfwIGCNBEEQRBjjDrumqzbZLrjMAytXC43W6lUnpuYmPhxuVw+7rruhGVZLuc8Sk1sEliT3BHihHGRytgPw3C93W7/rlarvVWr1b5otVoexg3CMRxjB8mYQ3rZSYI+xAj5OvL3uGtKEuZV90H9euPaxlSXuKDEJNQRvaCmwgZ6fogdjHTlVse9sXYZ2GRGLa1uefnqasWgwSMSK6IN/pRlgCAIgtguqEKpHDcx6DB+GGPTuVzuxWKx+OO5ubnvzszMPJXP59FCgKPCQMBNgq4kSYiGL7db+NdxHB4EgddoNJ61LOtEt9v9m1ardQYVFMJS4T5ZVvOThPMsv6cRZ2GgYlr1j2sHk1Ih7neC6OdZJYidjswINwhDyTJAPExaHIF+21y292a1OykBCIIgiHFHNyOWwgKOlagI6HQ6lu/7s0EQvGjb9p91Op0/CcPwdC6Xy5XLZdzVchxHHisl+odW0ZNM4fV9hPIeyy36vr8rl8vtRvcELBpdB9SVTn1F/cKFC1hgYXp6urh3796q3BZncp+23WQNYDpOVTzg9zjFgF5fE3EKlSSrB4IwMcpFMILYTkj5ctj9Zk8KAbVDV1erSUv3MKPovORDINMajuIcGWNDEARBEMRYYZqLdLtdVAQUwzA8yhj7NgB8r9vtvr6xsTFTrVbdSqWCq/jRR1e0m9wQ4la2cV91H3U1X1gDFDnnFc553qTQN4y3hWKx+BXO+dcsy/p3SSvqccK+ybIvTpA3Cf5Z4geYriPJykC9DnJFJLIiTaRlZHWC2KmM6vnvSSFgEhDVQZC4x6hulh7YaBRWAmqZunkiDdwEQRDEOCLnIvp8pNPp5CzLOpnP53+Qy+X+B9/354IgyHmeZ62vr0fjKboKzMzMRAH+QBn7dAE/ba5jMp+Xf23bzuGcy7KsYlrzibF2MgiClwHg33LO/526PUvwQK2sh/bRv6fFC4pTOMSRtJ0UAUSvyBVR1Q2IniNip6PKmxRDYIwZtqIEb7ZuJbCZkOKHIAiCGFdMgm23252Ynp5+rlKpfNtxnHnf93Ptdht/h42NjUgZgMF65cojBvnD/7MExTOhnh/HabQ8wPKCIHDCMEQLAcxYhLO4UJ3MqXUX7gIlxti853kH1dOkZQiAGOVAUqBEUxmm49IWCLLGBtD3IaGOSENaCKjQc0PsVNT3QfbbWx5DgEx3zIwihgBscnurEV1JGUAQBEGMMyafd1yRL5VKT+3evftkoVBwMPUgKgLq9TpUq1Wo1WrRflLBjukAIUHYMMULiNsuggqiMoC3223L87w9vu+j68KcyC6UNLa2GWMXAOCfkoT/uACHpt9MAniS4kNXPmTJKKCfy/Q/QQwDk0UQQewUksahfhhK2kHq6B9kVKv3alBB2ITAgvK+UpwIgiAIYpyJU5a7rpubnJw8Nj8/v7dUKtmtVisan3HVvtls3rcUwOMx+GCpVIq2D0OIVSZsVqfTcev1+uFOp3OcMbYXANYBIJDBB9UVnxMnTvALFy6sAcA/Y8rmLH7/SZYDuvtfUl1N/8cpEpICA6bVh5QERL/Id52eH2InI91ndFeafhnYQgDIlPwhdF//7YppFYIgCIIgxg0pUOtCgm3bbrFYnC6XyxMYQBDHMhT8MV4AWgOgxQAqB9BSAN0H8vl85DYgXQjUAMrqhCsppo8+PxJBBa12u132ff80Y+yAbdvXAaCB8zrd/BO/nzx5EnMS3jp//vyyWpZJKNcDCOpK/F7H717G/iRFgmopYdonLoMBQSRB2c2InYyaZUDt67fMZWCz099tJ0aVEkJv681QONCATRAEQWwHTGOuZVk2ug24rmvjmIkm/CId4P3sAqgQkIoBVAZIC79hj7FBELhBEDzPOd8FABMA0MJYApCQxeDEiRPdJFP9tEwCWdmqFXuaWxBZ0a1WaKGK2KnoMTU23WVAmraBFkOAOvSHGVW7bIblAXWyBEEQxHaDa7nz4ctgfQzHTrFSf/+D+6Hwj5YBCP7Fj1x5iRtrdWuBLL/Dl4GBcWIQ2LYdWJbF0wL/gcE8X93OtfSGWRkHgYpiUBFZGdTqhSAeReR4Mwx5s+e0g7plAAWcMzMKwX2zYgjoJol0jwmCIIhxx+QvL8YuJldU9PhH6oRKH+vQYgA09wDdTSDOlUD9H8sRv6Pm4V8cx7ntum7LcRyu+0Pr5v+QsHovf1OvbdQLNMO0JJCKF7TSIIheocVIYicixwzZf4Imn/cLpR3cRsT5KI4C/VzU8RIEQRDjTILQ/NBMSc2iI9MDYkwBmXowbYzNqvSXAjRmGuh2u3UA+Mi27du5XK7jui437RunFABtZV+JTyBTGz50/jhrBhNxMRNMcRKynifud7wObHNsa4IgCCIbptg1m24hoEJpBzcf08rDqBim1okgCIIgRk1cEDsuZkt6WkIUpOXkCgXTiYkJwMCDGHBQxhGQZvgmYVkfg3WLARlLKAxD3ul0mo1G491Op3MxCIJ127ZD0KwsddeAOBcCiVQEYKYEDJQI2mQxS1DEpGvrRcDPso/mOhH9j9eAgRwJIgnT3JcsV4mdSlL/2i8DBRXcLBO17cgoggrCJitgpOmlvBa6zwRBEMS4o7sMxAQbjP7KMQ7TDc7NzcH8/HykGECFgBwD43Lqm4L5qdvl2InzpI2NjaBardZXV1dXO51Ow9SEWcZZNcWUtA5ARHYECz9SmTFuY7ZWd45WE/I6CKJXaE5K7ERkfBtVPpMM8k70HFRQhbRz8YwihsBmr9THTaQIgiAIYhwxjVtxrgTqSjVaCKBSAJUBU1NTkYCtxxzQMwGYsvDoq/1iFdzC791u1yoWi23P85jJ1DMpqCBo7gIoREurgOnpaWdubm7//Pz8Y9PT03nMqICHc86jv+Kz5WAQRRHPIWi1Wp1arXb77t27t9fX1316mYgkRrXIRhDbDTluSWWzGktmkHek56CCEj3PLjF6tOBEm2ItYJqIEARBEMQ4IVdM9OB86thlMsXX5zJqoCbQ/PrV39RxMU5w1z6SB4TfuHHVlGpQBecCmBGhXC47u3fvfvqpp576q+PHj39v//79k8VisQAAhSAIypje0LIsN6tVQ9Zxvsf9UfvRtm27g7qMIAjCer3euX79+j9/8skn/2ej0Xhbpl8kiNSHidxYCeI+sg/eUpcBYnNJimQ8CnStE5lnEQRBEOOKKpibhOmkcUyuuqCgjSvvMmBf3KpLkpJcdRmQinw0j8e/mAIxrfn04IKm7UodpmZnZ185cuTIj06fPv3C0aNH28ViMUTrgDAMUTHgZHVFAE3QNykLkn4zHS++o7VCybZtrA+6CVjr6+uu67qFW7duXXNd91MAqKe1C7GzoTkoQXwp+EuXgWEt2PasEKAggukk5S/eDsQFZiILAYIgCGIckaaT6vil+/+DYXzTFesmKwJT5P+4lfa48+AuMv2hiTh3BP03aSaquDvkbdsu5/P5KcySkMvlivl8Pko3ILIOhL3EJsiq/O+lTPndtu3oH3ShQPeMfD5fdhwHLRgo1QCRCKW/JoiHGWYq+p4VAnoaGlIQmJFpjEZZvgwcNGz0QZ7uMUEQBDHOqKsmScpsVeDXXe/k/EZ1HVADC5rcB9RzxAnzqlLAdD7QrBrizqEJ17LuFgrYnue5mG2g0+lYtm1HArYarC8uzkFcfU2BFJNiKKRtE6tZjrzuZrMZxVQQVhM0ySBSUS1vCGKnIsctfYzYMpcBIp1hmzdtVSdImSQIgiCIcSZOuE6KwJwUj0fNopTmY59kOaAL13JlPwnd0kCvt+rOJ3+SkfvRHF/+Pm7R+9WAiNIdQ27aynoR40+cIo0gdhpy3JIuA8Oi75LkC0kv5sPEaW9GcZ5RkJSiiSAIgiC2E0kK7ThrR7kKn5SxIEvmJdPKfJKFZVIAxLTzbKXivs9z00oDkQndZYACXRM7GTl2qNlqBpUJe1YIkKlONkYhrOtBBYd9L5IG9K2ebBAEQRBEEmpUfxNJ21R3AUgYD+OC7IEmxMdZFCStdOpxD0zKBP1Y3c1hq8hybppHEIOgugyQMoDYqahpB4f5LvQdQ0CFOviHkb6Hw0ZXCgwT6mAJgiCI7YiedlBiEth1VLcB3bw/ySfedA6IMfMHwyqOPoanKeVN3+Oue1yheQZBEET/6AvCw4qtMbBESRYDZkbpSqGbimwWNJATBEEQ40ha9P6k70mm+3Hf47ZDSsaBrL7QaVl+5KRQtRAYtVJg0PLTYjEQRNrzA5qZNEHsREyx3TY9y4Bkq4RS4uF7MGyokyUIYivptQ8aVLjYzPP1079up+vbivOp5SQF4TPlyJfWAUkKhaSo+ibLAFM2Avlbr3OmpLYxuRyMkmGUT4oAoh9GZXVLENsVmYJ2WAwlywB18JtD0qRlVAzbR4UgCCKOfid8/QaYGuR8sIlj33a5vq1sTz3toEmQ13309ePVsS7Jfz8p04DJncBUzzjSjpfo2RG2g7BEAh0xDMgymdjpmALTksvAmDKKdtnszA6G1EYEQRAEMXbopvNxPvygCfSqtaMpZgDECLJpGQZ0C4JexlNdKaCXpboekMKe2KnQc0/sVFR5UA0oO4jSdaC0g6TtTWbYnZU6AdgMRYyclJCpFkEQBLFdiEsVGOdSADFK/KQV+LhzmIIOxh1jOmecVYNeh+0a4JmEOKJf1BgCNCcldjKqPKgqmwdxIxhIqqSO3YwpWvGwyx7lqj3dV4IgCGI7YvL31zGNcaYxVQoeSS4Ccb8lxTKIO6cpz3qaxYKeLjFOUTEOxCk3CCINUgIQxMOYAmz2u2A88DIzvaTxDFuwliaNm+U6ICck5DJAEARBpLGVymS5UhJnbg9KHvy4lfa4GAJ6OWBQOJisD/Sggmnto1sZmLaB5jKgXpdJCTFuCv5xVlgQ2wt6doidSJxMNhYxBGhF+UFGlRJFdxnYjCwD0mWAIAhi1Gz2WDLI+bbDuLedrm/Q8+njbpoPviQuWG9cfUwB/5LG+l6DCoKykp6k2FDL285zMJo/EgRB9EfWNLZZ6FvS227RbTebUa+qb8aqveqvtRk5jgmCIPphuwmvj/L5tlLASzObj0sXqLrimYTttIwDWQI6SQFft0iI21eWa2pP1XJPdWsYtzHa5DIRU0eaXBCpkPKIIL4kaVzqh4GCCoIiLBJfMqoVdbXNN3vVvt+0VwRBEFn7mEHS1vVzLJ1v+OcbNPVgvyQFvzUpCLKs3Ov++bpFgMknPk2BYCrfVF/dvSHOcm+UMYsGJUl5Ii8Fm4EUAkSvZHHBIYhHEdnnxynA+2UoLgO0cvwgoxLY1QnAZvn1D/uBIwiCGAce9XFrO17fIHVWx8S0YH5ZxrM41wNTWeqKvql8U2BAMCghVMWDLvDox6rxhFRrgm02VgcAsA4AnTGoCzHGkKxBEPfQ5b9hvRfuIAfr5m/E5rFZFgLUARMEMSqG3b9sdn9F5xs+ccJzGibhOqks1SXORFwGAd2/XxfCTVkOerkW3eogLp6AKY7QIBYaW4QPAEukECDS2K5pNgliFIwiuPzAaQcp4JyZUShKNiu7gIq8x9TxEgQxTKhPIZLoVbjV3RdNwf/iSJrHqBYASa4AcdkG4uoEMSs9+rniytEtIraDW5/hPnQB4CYAhFtTI2I7optME8ROpJcxLgs9SfMmvzXCzKPQPqYgSARBEMPoWwhi2M+KadU+LuCe/F93wUsKSKjvo67em1bydbIIMKoCQq+Hel1qvZPcFfS6j4Ks5SfdB4LoBXpuiJ2KtA5Lc0HrlZ5cBiwtJ32/pn1E/2yGokGfWJDyhyCIYUCTOKIfssw1THn51f8hxoxfxvxJ8stME9JV9H17WcWJsyYw/Z6l3qbjR0GvLhGbWTfi0SHNzYcgdgoyu8xYpB2U5nn0YsYzioFObe9Rtb2+IkL3mCAIghhndJcBVbGt+/6rK9WmaP26oK8L+KZyVJKyEqhlmmIA6HU2uQ+Y6q1vH1dIKUj0i/7O0rNE7ESkMnjYFgI9uwzoJ6bV43iG3VlJMxEpoI+q7U2mh6TFJwiCIMYZPfAfZMjVrCu8dbN803FJ5zDtpxxvqdviAqXpH31MVusjV4pMmQkI4lGFnnNip2KyDNPHhH7o2WXAdELS0j3MKFIPyjRD8mEYlUJAn+TIoIJ0nx9mFIOS4zgwMTFhNZvNim3bz9m2/QxjbI5zHuJHmYjalmU5lmV5AHDX87wrAHAVAJaHFaTJcZxioVB4kjGGddgDADn48v3noi6Wbdv4wR/vlEqlz+bm5s5dv37dD4JgGNXARi7atn3Ydd2nXNc9GgRBUbQHUybCUXvYtt0Mw/BiGIafMsYWh1EBfAfy+Tx+LeE9AYBn8Z6EYYjnx3bg4p5YAob1sG17wXXdc61W60YQBN4w6pLL5fKFQuEQY+wEY+xwPp+f5Jw72BbKPcE6O3gLXdddCYLgE8/zzuRyuTbeE3qXiUcVffXeZG5vWtyIIykVoIm4c4t+7IEfTOfWgxjG/VXnA6bsB+NImnKGIHqBniFiJyLlbzkO6JZq/cqGA6UdJMyMSlA3aYVGjbqKQZ3v5oECnmVZs4yx4wDwCgDsx5zNlmUFyouPAp/LOe9wzq8Ji5+6yOs8rKjNBcbYEcbY85zzoyiYi9+5+CA2Y8wS57zm+3692WzeZIzVsO8aQh3wuiY454fCMERh/GkAqIiUVUx5LlEodsMwrOFfTGdlWdYa57w7hDqAuM5p27afYIy9zBg7gEoJcY332+KefsAKGWNVALgUBEGVc46KiaEoBAAANRP7GWNPM8ZOcs7nOec50f5MEXpcy7LcIAhuMcY2bNu+KdJ7bbrEQAoIYhhkiSWQ5LtvEuhV5bpqEaAHDkwT3k31UoV17BSE4jSx7rrSwqRgsJS0g9vVQoD6BGIQaJGKIL5csB2GC3/fCgF1UCNBcfPYTBcN3WWAOt/NwbIsFO5Q+P5mGIZ/EQTBn9i2PSMmgVxM+nBF2g7DEDsBJlI3PSbeaRREbw9Y2UjZgKvQvu9/n3P+U1QIWJaVx/OjFYMULFEAxmdDWANcw9X7ZrPZ5px/DgArQnCPRe3QwDBRtCyrDABoofCTMAx/GIbhadu2c1gHbAf4UnFliVUzFHoPi32sMAzPYXorS0sFlmbuq5FDBQBj7JVut/tnnPPvA8AuZbJ/31pC3BP8XrNt+zyu1DPGVgHgohTaB7gvqPA40u12v8U5/zNUCADAPAjLEsVSIWoPoUHGezDlOA5ueAcAFtPuyaDQSiAxStIUA0nPnClav2kfVeBICiqol6uXr5TDGWPcdGzcNaRZOqj7DtNCwHStw0DvgwkiK/p7Ss8PsVORymCVOKV1L/StECCXgWRGJbiPOn6AipxcUM7XzQVXoYMg+Abn/N9YlvU1AMBVaSgWiyj0yRWmSPjtdrvgeR6uSh/lnOPK8V0A+AJXxwe0EkBLgMc4599gjL3EOX8MV5ul6Xwul8PnwpKrU57nAQrCYRii0Px1ANgQ/csfhcWCEVmeagIlkQI2CrOc81c4598FgJOoMHFdF0qlUlQHuT+ev91uR3XnnL+AyhNhtr/EOV+KCxKGiowMmtUZ27ZfC8MQlRJft217HuuO9SgUCiBX/rAs3/dle0wzxk4xxhY451dEmywOoBDAGz/HGDvNOX/Jsiy0lJiOLrhYjOohnwvZHp1OB4QFASoQLKEg+TXnfK3POqSijwc0PhCbhUko1oVbXfEo3xf8K/qw+9+5lnZXdx8wKRhV8DdU1KEiIAiCJmPsVhiGK3oAxCSSAhOO0nVwFCQpfgkiCT2gNj0/BPFgMN1NtRBQByayEIhH9e0bNluRdpA6302nEgTBU7Ztv1Iul3eXy2VrZmYGJicnpR/7fVNRFDw3NjagWq3iZ2+32z2GAqAwK28PUHE0ATgAACcsyzpQKpXc2dlZmJubg3K5HAnC6iQYBU+sw8rKSr7Vah0JguBZzvl1APgk6STyGtSowYaVtQq6TuRyuScmJycL8/PzGGMhEoLVSKtSIVCv17EulWaz+WwYhmccx/m1UJAYyfJsc84nwjA8ZVnWi+VyeX+lUrGwPfCeCIXA/evBD96T1dVVWFtbq/i+j+4eh1GpkFSPDHDhKrEP702xWJxS7wkqaZT6Ru2KbbG2tobxKPYHQfBKGIZfcM7/MEAdktpoFMUSRCZUSyN1xTzOhUC1EMB3FhV5QsEa9WdSKZAkvOuKAdCUA1g2Wub4vt/qdruXO53OJ77vo/UWFxY9D5UHPVg+jGrVdFRzOrIQIIYFKZaInYy6OKwrvTc1qKDqq0Ap6R5mlNYBqqJh1GkHgQbtTGAboYCM4KRyUMR9dovFYu7AgQP2iRMn4PHHHwcU/tTVdJxQ4mdtbQ0+++wzePfdd+2VlRWMKTCMB1DGCOCu64b79+8Pn3nmGef06dORAIrPCF4rXjsKoq1WC65evQpnzpyBK1euoCAauTNkQVU4xfhBoQVEvlKp5J977jl4/vnnAZUCJpcWnNAvLS3B559/bp09e7ZQrVbRxcGKM7mVq4CpjcE5rrzbhULBnp2dtfF+nDp1Cg4ePBhZKshAffgc4GdlZQU+/PBD+Pjjj/nKygoTAf/UWAP93hNPxJLgs7Oz1osvvgjYJtPT0/dXN6U5GQo12BZ4Py5evGjfuXPH6na71jAmUKiAQEVIs9mMBCiC2GrU4EqmZ9y0ii8VilIhgM8z9qn47uB7rJeV1XVO65vw/b+zsbHxcb1eP9fpdDxVYZB0rP6/aeKnWleNu3BEFgLEMNlOMTMIYtgMI26AylCCClLH/iB4g6SAOEy2IqjgMPxSHnXkoITtNAyFAAp9jLE7hULh5q5duyZOnTpVeOmll+DQoUOR8C1XrvA7fu7cuROd99y5c7gqjVYBjSEEsPOFefsV27bXpqenH3/66afh9ddfh927d0fnww9OnlEwbDQa8P7776MgzG7fvr1uWRZmO7glgtilkuLPj3WpFwqF1rFjx0qvvPIKHD169IHnEuuBbYIT+osXL0bWChcuXMBgfmu+7/txq3g99F0tDNzouu6lSqUyd/DgwT0vvfSS9cwzz0TCMSoipEIAlTYLCwuRkuTixYt8dXUVgysuAMDqEIIsovvFXcuymmgl8eyzz0b3ZNeuXdH9QMWEVBShtcT58+cjgX1xcXF9eXn5AuccY00MFGQR2w7vOVpoyBVVgthq5EqJJO67Cr4nUoGGz3KtVoveW3y+hal/tHfaqnaKzz1qRq9ilo9ut3sH3Qewj8C+Qp5fL8MkOMcJP/p1jzMm1w2CyEJcrA+C2KlI+WxYMd4GllpVk13iyzYZBVvpL0j3OJ0sypqM1h0tkT7w0yAIJrvd7lHHcVw0T0chTK5qS+2g9HN1XbduWdZdEchv0CwDKOWhyf+ZMAxf9X3/Kxi1HifKKIhiHVD4xOsRvutRfVqtVrfdbl9njH0igug1B6wHCNeHm7lc7nYQBFOdTicnUjOCanaLAjEKwTixD8OwZVnWZQxyyDlvDcGvvc4Y+9zzvIOdTmeX53kY16E4NTUVKQRQKJaKQBkXQQgaXaFYuTwkhUBLBIxcw0wGmGYRz4VWCvjBNkAlEdYD/+J1NhoNvCcXGGPvcM7PiTJiyfKMSqUUQYwLSc+rnjHAlGlAdREwPdv6+Ktb68Vtu/cvu8IYuxGGYVsE9zRm7zEFMTTFEJB9v7pIMOoxeliBBnsM5koQEfr7ParAlwQx7qh9vmphq2fL6ZWBFAJ6wB3iHqOKISCDlo1aKWCaLG0Hc8TtAApqqplnDCjAngeAPdVqderSpUulUqm0b3193UYhWJqnYxlo2nrr1i1+6dKlqud5GNX/MwC4MwSNIRNB8C4xxs5Uq9VTly9fPvLee+9N7tu3L3pAVIXA+vo6P3PmTLC4uHir3W5jHc4KwXXQ5WO8iA3HcT5njL1369at8h//+MfDKysrUSwBqYxAUBmwsLDAr1y50llcXLwQhuG7qNCwbXtDTqKzuggYQCH6crfb/aRWqx26du3awY8//vggpodEc32pEEAFBZZ/8+ZNdvXq1Xqr1brEOT8rlCvDiuyPCoazrVbr/KVLlw5PT09P7Nmzx5JWEjLQ4draGv/oo4/Y5cuXNqaeGAAAIABJREFUF5aXlz/pdDofcM4vpVltYDnSDSQN6v+JccK0im6KyA/K/EWO1fjMo1JNCdBpPF4tJy6ooKZ4wHnW1zzPW/Q8b8X3/ftpYeXYqloJxJ1TVxwMK45TVsFq3OMTEDuLYa2KEsR2Q1q16UHftzTtIHXsZkYpsA+qARrknHS/ByfN7UNMaAPO+VVcDd/Y2Nh79erVvaurq5Pvv//+pOrXKv34W61Wp9FonGu327/inL+DAjBGvQ+CYNDR0rZtu+Y4zoetVmv+iy+++PqdO3eeKZVKmIHgvs+u8Fdna2trS2trax8yxj5Fn9lBghoqE3v03W/ncrkzvu/P37x5c75arc6cOXOmILIu3D8G26LT6YSNRmO12Wye9X0f2+KLfD7frlQqUT3RJLhPE3eszAbnfNH3/S+Wl5ePvvPOO5ULFy7M5fN5S6RcBNkueE9WVlZQaP8dALwrlCvWgDEEsE0wnkKdc/7WxsbG7Llz5769tLT0TKFQyKttJ0yg2fr6+vrdu3cvttvtc4yxmyIl5cCzKDkQkTsRMU5wLR+/KeifKsRLBaFUbKKSEQO4ouIVFQS6AjEuBaApWJ78HdOOhmH4VLPZbNRqtdV6vb7YarUWwzDk0sXHNLaa6h3nMpCFuOM3c1yn+EREv6gyB407xE5Hzr9Vt7YtTztIL+bDjCqGgLqaMapzgGF1opcUSTsVmV4qjTQNHqbUE9HoZ5rNZrnb7fqtVqu5vLyMefQnZJo9NbK+f4+VIAjuhGGIQvxhzvm6cB3oV2VYAoBDALAXn7d2u33typUrxx3HCaT/q2oui0HzfN+v4eoXToAB4KgQkm/2oxgQk1csZ86yrGnP8yZWVla61Wq1XiwWO7lcDqN0R42gKqyCe2BE71an07FExgUErQQ6A6woTALAMWxbDPhYq9XWG41G9dq1azOO4zgimni0o7gnQbfbXfU8b4Exhvf0CbTcAIDlAdw58pzzvZZlYerBsF6vX7t06dLpXC7n5/P5vBQsFAEFo5tv+L7f5Jzj/TwoXDgWhYIilgzPKVkHEGOFrriOEz7j4oegQgAVhxg0Fa1+pPJVf87jgvyZBG6hEECFIbpbnQjD8MVOp/MvnU5n0VSuSQFg+i0usHPSOD0uYzgFFST6wZTtiualxE5GVwIMGux/IAuBQU78qLPd8gOnQYN3Mr0MTEkmqLZto+D4NcbY40EQ7A3DcL/ruvMYyG/Xrl2REIzPlhDKebPZtDCo4Nra2h7P814GgGdEUMF3Lcv6Dee80eclofD4Y875U77vh4VCgZXuEcq0fzLNnViNtqrVaunGjRtPBEEwLwROdB34LcZC6KcCKNA6jvMCY+wVxtgc5tz3PO9osVh05ufng7m5Odd13ajhhb88X19fxwB6xXq9fgIFcdu2n2OMoan/B57nfdaP37tt2zPinrzGOX/c87xSPp+fwZgOk5OTQaVSsXO5nIX3REYoxywL6+vre1ZXV1/0fR9TMDYty3qbc/4rjEfQT3sI5ch3Lcv6inWPXBAEE5VKJdy3bx+fm5uzpFsRCjf4d3l5uXDz5s3DQRCUAeCkcOV4HwA+EgEK+4KCjRLjSpJ7W1JwQNXdQFrZqCb8cX28SdmgWxLgX8dxipZlTVqWVTCVYzoubdzVgx5uJ0iYI3pBtRDYzs89QQybJHeyXhhKUEFi89pEdRnYiowDRDxZ74dhIoTm3jnO+YEwDL8LAH8OAE+LFWHX8zxM/ZfHSPLo44pB82Te+bW1tbBWq7mMsSfDMDyK7zSa2FuWtV8oA77AxyXrLRb74mr4awDwF5zz58Iw7AoLhMlyuYzCeCR8ogAssx00m027Xq/v8X1/mjGGS+VoHvAkXhcAFMXqOBNm81nqgc/bQcbYnzLGfgwAs+JYJwgCjKXA9uzZE50b21MGWwyCwLp169YM1hvbkDHW9H3/QhAEuzFtoBCCecZ6MGEpgffiRwDwbVyhR8VDp9Np27ZdmJ2d5WhijG2BQjjWBe8X3rv19fXjnucd4ZxjG/ic891CGXC2h3sCSn1f5pz/a875q5jKjDGGrgMVVIpMT0+He/fudWUcAXxOOp2OXavVZlBpgGkTRXaBZwHggLiuT0R7eL3GNyALAWLciLNkyxr/BvdBJRq6Hkm3IvxtkOCZQhEQlet5HgvDMEBXgbh9VUHHZG2gBpMFxZd0u0TvNwVQJIgsmCwECGKnoqbMVdzTBmqNgRUC9JI+zGZYB4zSZSAO0ujHM0DEWxR0DwvTfFxJ/h4KfLgaLndAAfPOnTshTixR8JQWAvj/xsYG3L17N1er1XaphXLOXxfC+DUUorNehhBUpwDgOAC8KOqHk+TdtVoN/RFcvFZciZcm8sKlwF5YWJhstVqTSnkl0cecFBH2w14UAgCwjzH2NXH8fVqtlr+4uAiq/61Mx7i8vOysr69XhFICmeecz6HgLMz2e1UIYFlHheXFE/I4z/OCtbW1wLIsdB+I3kX8YF1QoKhWq+7q6uqcGlsAAL4j7sW1PhQCuP8JoajZI4Sc/VgVPP/i4qKFQRWlQkD4P9u3b98utVotea2Twh2lYNs2Pl/HGGPnRXrI6724dpCFADGOqCb1cRkFQBNG41wCsgRN1lf1k1IHohIPXavi3LjiLAv0+uoRpfU52Habj9H8kcgCxS0jiC/RA9JKBnlHhhJDgF7SBxnlRFkqG7ZiMk4Ddzw9vgO2EJb327Z9wnXd05VK5WSxWMSV6BOc82k1BRb6oOZyORejxkvLEHH/cZnYRhd2dClA4VPZdoQx9hcoMKY9K8qkVwa9Q5/4AmMsMm0VxxfQRQGvs16vWxiBXld8oTCK7gRKFoUJAPgqCtO2bcuo2hwUCxfd0kVel9jXtW27pNfXdV20puDLy8uW+i4wxqwwDF2sgyaIR/VgjD2F9cD9bNu+n/pLd3/SfLIwJgNacBSUemEdcDXeRfcAuZqoloPnQLcKXKlXyj3EGPtzsRr/wPljzi23WeJv3rbtstJW+HvBsiy0WIClpSXT8Za8J0JhgfV+0rbtWbQq6XQ6Z5rN5mciQ8VFoTDppAUeJAsBYlxJitCv/wXtvc0Sud8ksKvHqEoJrSyeJaBnkruAqujQ52DjND4nKWKS7gVB9PKMEcRORu1Dh/E+DCWGAL2YD7IVq/fDJM78kAbuoWAJX/Dnbdt+eWpq6vj+/fsP79u378jExMTBfD5fwXcLXQLQBB2FbHyeUMBFc3jVZFQGrMJ98KNNDPE8E0kmmvr9NAWxUienYRhaUtjX33tpGitN+JWJcUEI08bzxNVB/67WXyhL7kf2VyOLYx3w3VMjd4vj8uITe+2gTejjoobL86lKG7UOeAjeCxl4UWkPW96TNH/huPrp90/eF2wLrIvqYykDHcp7IsyW0ZWgEIbhAc/zpmu12vzt27cPLywsPN1ut1Eh8KGI+VB96IQaW+G2RBBpmIIGqrEAdFQle9LzbIo/oAv/+nlM/VeSgjYuxkHahC8pZsJWjNtJ50y6FwQRB8kaBHEPPYaG7kq26UEFJWQhEM8o2mUzLAO2s/nhmIMp4zAg3dOlUulfTU1Nvb579+79x44dyx85cqS8Z8+eHCoC0B8eI11PTU1FrgEQY74q74003c/yvMWZuJqEb5MgDAmdjb4qpv4eJ2THnUv/btpmqkdaf5Sl/Cz1STI51tsiqX3jlC+mNtPLV+uRVgfcD10K0L2g0WhEgQ9brVZ5cXHx8ampqb3lcvmF1dXVW41GY6/v++0gCD4RsQVi25GUAcS4kvauZQX7E5l6MEkRIIlT8qn9XpYMHnp5Weoe1/eOC2kKaYLICskdxE4mTg4cNC19XwoBdTJIWruH0cy6R8JmTcbFKjR1vilkWInBjbMYtX96evrHhw8f/v6xY8dOPvnkk7mDBw/C3r17o1RXaBWAK7oYwR7NzaWlSdzKUb8rQGkmnUnlJtXF9PswyVK/Xq53kP2zWjr0W4dejk3bLgIuRkoB/GCcA0zLePTo0cLhw4cLN27cgKtXr+5aXFzEuAMby8vLeDMvAUAtzsx5q1yXCMKEfBbjBM84U3z9GVaFeJMS1kqJT5BkVcczxN6IU8bGvd/SWiyr4iCNUVkVxCmMaf5I9AvNS4mdzjAzbvSkEFAn/Fl87XYqo1QGqGXTZHxbgTcL/ba/XalUfnL69OkTr732Wu748eORJQBaBcgJkxo9FAU3iDE9zbqSnrQSHVe2StKqualOSabvJrKWrdcprUxTG5nqmaUd0+qepAxJUw7o7ZWlzKx11AUKfM5Q6SQjp6Mi6tixY3Dq1Cm4cOFC/v3333+6Vqu17969ixkqlkVWhIduQJIlCEFsBVIwTnsOk7bHKb/TlApJClZ9m6pkMAU0VAX7uH5fn4NBgsDdK5s1n9sMBTLxaEJpB4mdzKhkzJ4UAqaOm4RSM6Nol1G3tUlAUrdR5xtP0qTGuhcFn3meV2aMnXJd9/hjjz2Wf+GFFwBT53HFH122M36XyoCkcvud+A5ynf2WaTq2l98gg6DfT73jzPOTzPWznDep3KS6pylw0q4nbh81noHMiIBWKGiNMjs7G1mmLCwslBzHORWGIaaMxO+sF/cAUgoQW0WchQBognmcuT9oAnpWQTVJKaf/nqZ8TVPSxikkhsEwLAOyKCj1ayGILJCsQRD3ML0L1hACPQ+cZYB4mFG6DGQNgDQM5OSJ7vVgYJ74SqVS9n0fU+DN5/N5FwUwzF+PghmacCuR+e+TxTQ+bVI1KtPPYR6b9TfTvvrKncTUblnaMesxcfv3sl+WbUm/ZbkPJosHVbknTZjxU6lUomCWlmWVGGPzmKKwVCoVWq1WN/VEKfUiJQExTOKE+TQLI/277HdNY7V8N9DVRlfiJVke6WTty0Dp8+OUfyZlBtZRHjPIe7YZ1gVpChGCiENaAAEpB4gdjiovqO/CoO9FzwoB/YQUQ8DMqJQBKsM+h776IP+qK4uEGWwrGdxPh3NexBRvAPA85tbnnDsyM4D07U4K1Ef0/ywTD2LyiVaFDNGn4LiwHwBOMcZWAeC6HmCQFIXEVpHFjUdFPtvqRz7zaXEwVP98XQkACXUxKQiyWM+YLKDSLARUQWk79HvkKkD0g1R8EcROR45Zw+5De5YoTVoJwtxGw2az2lydXKhmKNQZx6OZ6zzwlnLO93S73a9xzr8NAAcxMYCq4aOJ0aNF1kl/Gpv9vknlrm3bOQA4CgDfYIy9gGkytV0tkw9zEqRQJIZBL1YxSZYqqnCujtf6M61OvOJc6lSFWppJvL5CHmf6aYo9kGaJkHTecYTmE0S/0EIksZORVm3qwsww3oehJMunid6DjMplQFc0jErxoE509EkPEdtmluM4B4X/9SQA4MrqBcznzjnfFwTBiwDwEgDMwzZaYdX9boGehQfo1TUhy/Ze9xsU3SIIFVYAcBgAvs0Yw+f3C5FtYA8APGnbdjkMQww4eE78ThBjQS+r8CbUyVVaWZYWI8QkvKvCvWm1P20MiDu/HhsEYqwHxpHtZM1AjBf6O0YQOxGTm8CWxhDQGPUINMryh172qOIHqGXiOVzXHWm7U4ebHc757jAMv2Pb9k/RLQAALjqO81845xeDIHiMMXYMg7oLYWvbYJq80XPxJY9CW+jKHgFaCezH55Zz/rjjOAXHcZ7nnL9uWdY8Y+zzbrf7D0EQvA8Ana29AoK4h8kCgGtR+3UBXo6raQEFTXEDeo0RolrWxFkI6MeYziMnfyYXoHFHryOt9BJZMFkF0FyE2ImYMtXobmT9MHBQQdu2Q8uymiO8J774jAK8iJ4CZmVE9lJDrbdqkm7bNmeM0UR8i0Hzasuypjjnr4Zh+FPHcX5UqVSmy+Xy48Vi0Wm1Wp+vra3tDoJgBtPBC3eBaBZIg9nOZNwtLNi9jgb79AXGGHdd9/nJyckX8eN53qutVmuy0+ns9zxvPQzDNgCcF0qBYAyqTxCJgkPa6r9JYE1SBujn0bfpx0tB3rSio7sFmJR18nc1uPB2EqpN10MQvTw7ElImETsVNXaMZNCU9H0rBBStuisiUpfFJi4En0AI3INSAIBJpSwmyh6GsI2rtRNi8uuIusvy+57corAuvhbESpujxGsIRd37ahthfcCE0mHyyJEjxRs3bljifyY+/jAsH9TAS4SZfD5fYIydCMPwh5zzb1iWNTs9PQ1Hjhw5UC6Xv7WwsHC40Whg6jZMOdjknNu2beeBBrMdyzhNgKVgofn4Yx+yAgCXLcvqFIvFF/bu3XvkwIEDRzqdztz169eh0WgcY4xhTIw6ADQA4AYpBIitRB2nTJYAEJP2Ts3co6MHFezl3TVZK6hWCSZLwqxCcpyFwLgL1zTmEf0yzGjqBLGdUccr3XJ8EPpSCEgtt5hMzuXz+Z+GYfhEGIYBY2wDAG4DwDXx6XUVmyuCeYh+2YVC4SRj7IjneR3G2B2cqAr/7Lv9VF8I5ciEbdtfcV13FwAcCIKgzhhbAoCraPKN/t/9lM8Y813XtS3LOjI7O/v9brd7wPM8NLOtMcYWAOCSKL+nCbScRDDGurZto7LhlY2NjUq5XM53Otg0bB0A7oj6X+6j7g9A2th0fN93bdtGV4Bn0O8a22zfvn3wzDPP4O8oQE0uLS01MPVgp9MJPM8LcdWVMXa/caldia3CFP8AU2EKBSNmw5hHa5cDBw48fvr06Xy324VarQaLi4uoSD0OACcB4F20JqCbSGwl6mQozizdFL1fdRmQyjFQlGVq2kFJ1uCGcav8WVb1DbE9HtimTgh7VQRslZVSnGUGjYFEL8SlGCWInYJJGbzpaQd1GGOzjLGfcs4xivoiACyKyeFN8bklhNRlPXVVAlIhgEL1477vvw4ATwHAFSFMHwGAx0T5S6L89R6qLQXxOcuyXrVt+xURROu8EKSx7CfEqteiqHujh/I90bZPMsbyou6znPNLQlg/qtR/VZSfavEgHgBcYkbpv2Tb9muMsa8JE/SqSA92S9T9mFDMrIhz9DzimqIwEw8ShqEl3AaKcM9iAObm5uD48eO4zb1x48ZEPp93i8Uicxwn73mevRltSoMloZL2PMjnEVNh5vN5x3XduSAITrmuy8rl8uSBAwfsU6dOoWUAnD9//l6aAYAJy7Km8dlnjG2r2BjEo4nqYx8nZMat9Ku+/XI/TAtrsjCIcxtICzKqWwiYxoEktwEwWDboipCsyoqtQLfQMGVTIAgTqhJNf1cJYqcxijScfSkElEEKhdN8GIZ7OOcdzvmnQiBF4QiF7B8Kc/w/AsCvRFTqLMgRrhCG4W7LslCAdjnnV4UQjSuyLwhzfPztnwDgdz1EvGbChH9GKAIO4/I65/yaEM4fB4BvCcUBXtOvxSpY1ngDoSh/N+cc23if67obYRguiDK+CgA/BoA1pW0uZilYuCNIX/R5znnetu0Nx3FQKYIWDiVR958KZckbAPBb8b1vaMCORbprRO8SvqQTExOwe/dutB6AcrnsFAqFPCoKcJ9arYaCk5WWnmrgSj2C94smjv2T1G7qaiPu5ziOlc/n0XqqmMvlwkqlwubn58N9+/bZ1WrVLpfL0f5hGBYty6qIfphuDLGlqKsjav9qCi4IBsEaDH6Z4jl/6Bj9e68uBUnpm5PcBtRrSXM76IXN6lvjYisQxCDPEkHsVMYi7aBUCkgtN+ccV+g/AoCPRd7qJ8UHhe7nAaAkVvbPCqVBWu3xbc9xzktCqMaV+j8AwBdixR1b4YBQDvwJAKDZ/4fClSBLkEMsv4jlRw3hulfCMPytSKf1gvD73yVW8n8s6i7LD9OLjxQCBVw9c10XXSkueJ73Bue8qygzsG2+IhQonwHA52JV31ygNgFAc3URYLCey+XOhmH4trinTwPAadE2XxcxGM6ItlvNUPd7DaQELwLqgI0Ic00U8KPGwRVWQ+5qS9wnx7bthxqRtNzZICXHaOuhCkzo8oQUCoUoXkkYhpzfC4ARWcHkcjnsf9BtqWRZVg6fa7IkIraSODN8PUJ/XH+rC9cmpQLAw6v2SYH/dNQVzjgLAf0cSVYCuoVAv33JZvVBcRkTCKIX5DNPzw6xU5HKazUG1FikHRQDlidW11Hgx8jT/yIC9uEK/GtiVfwJsVr9+yTB13QKsbK+KBQOl8TK94zwY8XgVn8uzOT/XyFYtzKUy0WDYiRtDI51qdVqSf/7/4Ir/MI3/JtCyN4nTPuvZA0KKII/oN/4WrlcPttoNO4I4XxSKEy+IqwpngOAXwLA/xen0JA3W0s5wR3H6TqOs8gY+6DT6WAMh3fQRUEoTjD//feEguA/ifbPFLsgbkJEPIy+8oHWAehv3el0MHaA4/u+he4CcrVpJw1ktBIUzzi0i7qyqSh5o+CqnHPWbDatjY0Nu9VqWehPDV+ubLqWZaHmwJHHEcQ4ELcSrccQ0M3u03z744RYXRFgillgOi7tvTS5DuiLMdJ0dDuM0XEBHgmCIIje0K3ftjSGgNRIiEox4TtfFQLtmtjtohDO60J4f0EI+O9lMJPn8GCQwa4oq6UEFLwpBNwXhcXAD9CVW1grpCkFUCHAxd8gl8ttiLo3hYn9RXEeXygGMIDWnwkXgjMZmoiLiTWzbdsrl8v1RqNRF20BIujiqgi8iG4Kr4rff28K0qVaCAjtEBcZB1DKbE9OTq52Op2GaPsbwhKjJhQOu4XixBFuCmt6+RJ90kMT/XjUCaTabuIeoRLAbTQaqLRBJcF9S4LtEA16WHXcSn9VUkRkQ125lP16EARuEARRF9ZsNh3P8yyTWTS/R+J5aPJPDIOsgrVpRR+UPkFdYQdDhgJJUvCyuBV83TrAdHySy4DJukCWobsM6PUe9/eM+mRimNC4QuxEtEXh6O8w+tWBFAKa9toSZvI5bbdQCKBnxEr714Tw7gjB+05GE3xLHKNzV1gFvC/85k+L8wTinFncB+4HhzNsuiwEa3Qd+NfCUsATn6tJwQDVwU8E/tPbuy1iE1wQFgI/AYDviDJ/IxQHD/R4unCO/6PPL7ZNt9vNa+WvCuXFWWGhge3yuij/nayBEvuJYrwTMVhUSAUAFys6Mt5ArC/qIDwKQvwwoWe2N7T2ip5dfGYVtzB9n/tuBGRNRGwmcYqBuHe+F/N0/fmNW9WOW8E3mff38k4kuSMkXd92Ebb7sZYgCBP0DBHE8CyvBrYQ0CaDUimgE4iV6j8KYfRbYsUdBeIPhGCd6ZQxv3titf3XQgHwkghoKJUCqcEAhW+3qXwuVvAxIGJBCOzPAkAZAP5DmpWD1OKLiXVc26wIhYYrhPbviPL/o5o9QV1V0FcYsP6+75vK90XbeEKhgvEcvivcOX5jUgrE+T7SRP9h1BVViaKxY67rhqVSCdNnWmglgC4EuGkUVhfDHhxpNWd4bGVbpp1bDVCmWApwDCiI7k7FYtEqFAoYVwBjCVjUDxDjSJK5pGnFXWIKzAcpbgdxLgFgEM5NMQZ033/TeU3HqVYJSTEINpt++jfqR4heoIUpgvgS+T6oLmN6UNxe6UshMEBHviJWpl2xUv098fvNXnPyx3BeuAnMC0sBuRr+6RDKBhG/wBdxEZ4TZv0NEdvgAVRBMaNfB1oDvCmUEv+NMO/HWAmfSNcHNRKyRFgIZCl/QcRdcIWlQ0koOS7pFhrU6WZH3BOuulfIl7RQKPCJiQlUCAQYoE1VCG2HFVV6DobHVrZl2rl1QUc8jxhXBZUB4eTkpIWZM4rFot1utx86XDdnJoitQhXUdX9+0zOvjs+GYLARujBuEn7TXArUXdOaJi5IIWhjhT6vGOc+ZljHEDsXPe0gLVIROxV1AUd1GRg0hkBfR+sBqHqkLpQCV0VQvReFAC8Z9A1fECvft4Tv/Gsiij8MoWwQyos/CB/8V4Up/kPIm6UHLEqhK9wHzoiJw9dE3ALJ/fqrk5ge7sOyUJqsiAwKT2ltb0QKuTSAP4yIvg5qkEk5UKFVgOu6GD8A/bDDMAwD6T5A7bk5ZJkwDGtSsV0nJwYTaXQDiJ7bXC4nPw/kfhbBBWUKVIozQmw56uqIHtjP1NcmTaBMLl1JZvm6cGJpgTqlku3ekP1wphnTcaZzqN/1gIh8zHP663UjNyOiV0bhakkQ2xV9DBt0HjaYOkHQx4u5JvzaV0TkfjTBnxbbBrUUCEUKvzMiuOApkd2gqAQnfIgeGrIpFBpXhLD+gjDvl3Bdqy/JqL3BYIb/JBQbXxcKh/sHqpMA9Tw9aIbQfeBtcR3fFEqBB9AnNrqPMPEQeM+jBwjbyfM8dA2AVquFcR3cTqfDO51Ou9vtNmXMCZPZ6biwHQPExdUpy8r1To+7oK+kioCCqMEKfN9nmCWj1Wrl8HnG5xqfb9FfYl/ro7KLFALEOKCPXZDBBU59dtHaTv24rhv9RYWY+r/8Lv/Hv/o+6r5iG1rdOKqVgJ7VwFR/E+q27TI+63EcSLgjCILojySZr9/52MAKgQEGo+vCRL4rVvGfEL9nCTCYRih8+z8Wfv+vCcUDi1M4JPn0aYQiEOIV4S6wXygdbFH2Q/Xv0YyjLVwcLovVeyx7r5hEMGkloOdL7uEBwJgEb4n2PyFiCsjCHriRpARIR0z4PKFgCVFYqtfrsLS0BIuLi3x9fT1o3aPWbrfxefFwYjisICCjIKuJ+Xap83YKtLVVSBcnrAemxvQ8L2i3236j0ejW63VveXk5uH37Nr9z5070fIv0mWjtVeWct4fUbxPE0Mi6Aq2PpVxJ6Rd3vBTk41wL9GPEvqhkk5mH7hMnGCcFTtRjIECKAmQcofkF0S+kgCaIe6gWYpJ+XQd6iiFgGugGeDFRqP5nADgiAgxeEqv69pBM+6+J8v9S+ONfEb8ZswL04OsPon5nhevAMyLVYU2Y5D9Uvm7alwFPtMcVYTmBVghvY4Av27YDveyMMQTuHyKUAReF9cFhkQ7ykth2v5KWku+YNPixYF62Vc45tt8pxtj+5eXOI/TFAAAgAElEQVRlOHfuHN6X6tra2k3f9+u+7xfCMJyXAQVpdWQ0bNdAiOMScFBYB+AHfwyCIEBrrvbS0lL54sWLB7rd7nS1ipllI0XuNcbYF6LfG0YMGIIYiLT3KMmNAJ97VOhinAxc3Uell76C3yvSwg4VAZ1O567neZ+HYbgQl3bQ4L5j/B00t8FesihsJRSolhgUsloliIety4YRQ6AnhcCQB52WEEIvi5R+T4pPVQjVg6oAq2Kl/U+EwPuEyHKQM5X9/7P3pk1yHFe6pofHkktV1op9JUGQEMBNJCW2qG5JLZFaRtOaq5m5vGPTZvdPzKf+LzM2H8buh7myGVNbT7cotS4lURQlbuIKggC4YC0stVdW5RKb+9gbcC86AhG5V1VW5XnMEoXKyoyM9PBw93P8nPd0abAzpSWAqgbHGGPfVAJ9b91rHmtQDo1XVcUBODTmbNuuRlEUZwkhdQkW7xdVycNTSnxxTUoZZjk0+u1ke5koipqO41xX1/6klHJqeXm5dOHCBVkoFC4tLy+/HYYh+tZTqq1Lqo+0bBVaOPUGtVl3mOkChvFhqXES/fR2EAQfz8/PF4QQf9toNJ5aWlrCH6qWZUHw9E0p5Y1OKrkQxFaTp/bfbu2iHWEbGxuJMwBjNsL8zXKbpjOhVbpXWnzwnp6smKvVan/d2Nh4s9ls3kGOGRz57SKb8tIdLKOyzW7bLR3WVDliuEkLCVL/IUYVbQOaToBBbNT3VXZwAPhKRf+gMqyR0/7OgBwCTGkVYCf8IcbYEcbY00baQKZToAsC5cy4ro7/sNJEGFPhs/06BRaUwf68ikJ4xPf9T9V5Sr3LjF2MHsuxXFERFA+rdv/YsqwHUh6GObR9SIjiOL7NOX/TcRxEc8jl5eVjq6urSM34b3EcvxvH8RHO+eMq2sPpxLs9TJMdOSfy2QttkyNkhrmB27Z9N47jN+7cudNYWFio3ZtrhMc5/9SyrD/EcfyRlLI6oKgughgIWcZ01u/aKMd86vs+W19fT/5fq9Xucwj0ihLorOE+aTQaf97Y2PgkiqIQcwAcD61EDbOiBcwozbSwcNZ3HDZoHiF6JW3k0HqUGFWyNrBNJ/G2pAxsEYgSmFJG77eNEoSDcAjAuH2fMTatBACx2/6JckTcd/wuUwY0dXW8Q0pL4Hm1A4wJ/4Hjd0mgKiXcUDvLJ3zfDwqFwrgQYlOtvo/arDWV9jCv0jZOqYV9If3CdI4icR+4DqGU8kvLsl6xLOuLMAxnpJQbKmpkmXNuW5blm2JSaRXqftlKw3QUr3un7blX2ibDu4x/6rZtL4RheEUIcT0MQ4wVH1qWVSgUCreiKLqgHJe0MiN2nLQWgPn/TkoFIl1Avx5pA+m/Z6nkd3D/o+TsJSHEm0EQfBSG4W3cX4VCITlfLTqYPq+sY5vP6Z+m1kGnO6c77cTcLc4LYrjIKrNJa1JiVMlLN+tnXO3LITCgm3FN7VbjYEeVkJ6nfh/EjIEIgf2qhN8BpV3wgMOhj7D4i+r4f6/y8e9wzhPl7QGE2odKVwFtsh+GpuM4s67rhmlhoh7ZUFEOcGgckFIeE0JMmIfSTgeavFsjhGhYlnWJc/4FokFV321yzj3HceallJ+q/nFKVaWwBtmmnd6L27kYbFWiq5dz2M5zH7WFhrn7iHKDytBHtZbPyuXychiGi2EYLqnnLOiZCCECEncihoW8vtiL89UMxWy3WdDm77qykcs5n8rK82xVjq+Tc9abAvoxzNFnnVZRIIgsqM8QxFeYgvJ6bjEjBbplIBECnUxCLZBKrXpRhVRjN38G69IBRQk01S47V4bvpPG9N0+6j4XtHRXl8DOlVdDQO/gDGrw+U46Mv5NSHtUpDzptQLe7Ei7q9thCpTzAUJ2EQ4BzXsG5CyHuK41EdNyegfmEbduh4zhXfN//tYoo+Tlj7OxWR+fkGc/bOaHmfVav5zBI58JWsVtTCFI7qoEad34rhPjLoUOHFpaXl2UYhlKNpzQmEENHnlGezjs2d1L0Q4fwVyoVNjY2xorFYvK7TNX7N3+amKGa5t+FEK5t209AVND3fZTvXGw2m+9LKSFGm8zZeREC6bFEP68/I0useDelDNAmA9ENZj/PUlYniFHBjAwzo8R3JGXAnGAHtHscqyiBokofOKZErQaRi8+UIQY9gX2MsXHG2ES6mkEfu/mhOnakdn5LnHMnvQPcg2ihBjt1t3BsKeVxIcSiqv2dHFxXGehjgX4bgoWMsSeROiCEwHeQFBXQG+l+BCMqDENEpawrh8Gzqtzj5r23FQZkq2PuJU2AYfseu9UZYO6ixnEcKkfhO0EQnA/D8IFIABIaJYYNs3pL2pDu5L4sl8tsamqK7du3L/m/53n3iQqyNgaIGepv/EQ0TUkI8VytVnOWl5fra2tr8/V6/TqcBLqSgXYKZKUJpDHXXmxwa7BtgSIEiF6hNSlBfEVWudx+6dohYIanDfDm1AvQGRUhcNRwCAwCXxm9OH5F7bg7Azx+TUU4IAQfatxwOnDLsgaxjVZXUQiOlPKAEKIuhFjTEQF6kOxxcpXK2YC2ecGyLIgjjluWhXaxKUerO8zwnQwC5ThqpJ1c2znJ7VS4PgkTDi9pY0eNW3UVuYVoJHIAEENPK3E983lz7WLuqMABAEfA+Pg4m5yc3HQIaEdD2jGQZ7ynnRGccyuOY8e27WO+7z/eaDRmms3mdXOXJ+sYWfNC1hjaTRnbQY3DNJ4T2026n5NzgBhV9HqsXfWcbul6lWdOYAOcECKV27+qDPZ9ymAfVFxqpAxfXQVgVh1/ECkDTDk07qrjOyoKgUs1YvURHaBZV04NXQ4s2U4wO0MfC/Z1JSw4JqVESkVRSrkZmWGqGROt6eA6FLY6MqCTc9zO9/X7udvJKC4wWuxA2mqsYQsLC6xer9/3GkoZIIaNVuK35lzZqjxTupST6RTPes78PZ3Lnz4Xy7I8y7KKWcK96fPU53j58mX78uXLk3kRCln3YbsohkHQz3E6iYIgiDRZooIEMcroTchBjaHDUGWAqZ36NbUrVVIGtdYQGMQ3FWq3q66iBMaMlIFBHD9Wx99Q5180UxKycv36OD5T181SDgeL9b9AX1eL/7KqPR6qc29bL5+4nxbXwUo7BKie7nAxitchL8RajV8YE6xms/nA+8hJSAwb2iBvFWbPcox8/ZooipJHGIabx8rS5slKI8j6HQ+kA+B4cRxbEQ6ek+tpikEZ3wMlmZ+WUr5ifn7W+bMOxrBh2NnPKqdIEO0w11Y0/xDE4BnIXaUGdMt4dEuswu6bahGqDfamesTq2L2eb6yM6ZphmFkqjBs776gIYPVhVAtlVOs8cUeJCoa6BGEURf3MelJFT6xwziPVDkKF9kuVp9jPtUzOE6HCECu874Nbh8ETqbZqcxkyHVB7YYeEdnnuZze1x6DOlVKMiJ0mzxlgCvVlvSYrfF8/b74vLy0gTwgwJdapKw5savSkBQH1ey9dumRdvnwZ6ZPfYoz95/RnplMe9HPbXWGg27Gjl4oPBJHG1PagfkSMGq1ssh0pO6g950a4graEejkbnbMKw3SMc47wdTxXkVL6atfd6iOFQCjDHz8Rfoc8eVcJ6E3o4/dhU2t1eanOGREOnpSypJ4rwOHQ68HVMdA2qJVctm27oKIQPCGEbdt2vyUapdE+tiqbd8/L0186wsihNoC2jGHN3dythmBeLvAoGbbdftd+ytoQxFbRquygeU+n+7u5W5+OGNCGe7f6AWZFgNTrZZ7zIXVsrgSWv8YYez7rO6WP0e19PIhxrpfP7PW9xGiTtQ4lLQtiFNER53kRnttedlA5BCCWoye+RKRPldzr+nDKIYBvdZBz7qLkTxRFz8RxDEP1mGVZc5xzv0eDS+/MTluWdca27UPI50OZQCHEySiK9jPG/uo4Tq9GtaVSHKB9cJoxth+GuhIYxK57cK8Cnd3BoR5kfHzcajQacC4ciKJon+/7seM4OFgZEQPYeYAyOCIRejl+sVi0wjB0pZQuQhujKPJULfIk+qCnkx5BcBMGQdD1F+9mQst7LU2M3ZPXZoNox912LTpVUmeqn2elEWiyvjvt4hCDJKuPdeq4zuqL6femdvbv24lM70qmF2WtHAYmec529VqpBGhRZehK3vG0E8N0WnQ69uyUhk2e8CNBtCKdK03rHWKUSTuvWaryTC/09C4YtjDYcUOqnDio3n+hhPX8Hq9RU4Xc1y3LqjmO0+ScI38OxvsC5/yiZVmLPR5b5+DX7rUVj23b9jnn2MkvCyFuCyG+iKKo0cfx19RnwIjGLgAoRlEkgyC4GkXR52EY5q+iWwCj37btNSkl0gbiIAgKQRC4URQ1hRC3hBAXhBBXC4VC99aoOj7nfF5KOR/H8YYQIrRtWxq1lGnw7QDcExMTEx3djINWy6Xr0z3D3GbbvVjuVKVc/x39vBsHJ6UTEIOg037UanxNv9+c59LChHn1ztNOgPT9k3YKtPrMrOOeOXMGf1hijL3FGPsvWd/R1CUynRGDGDvyjtHvscmgI/ohTzuDIEaRQYu+dxUhoCdMlOPBghDK01JKTFpvCyF+JYS4qEPbewDvu8YYewNRAb7vj8VxDKX+BcuyPpNS/jGKots9HjtWx35LSjkbRdGSZVkFKWUgpZwTQnwahuFrcRyv9nh8OEEuMcZexfeI4/hRKSVC+gPLsr6wLOt1IcTrQRBUezl4tVpt2Lb9npRyQkqJEMJDYRhiF78mhPiEc/5bzvn7CwsLPTkc6vX6hm3bbyDVAcf3PO+RYrE4GwRBUacOkDe/Pd3kRtLCaLjY7giLdqkKO9knOum/ZOATw0ae47qXfqrvxVZiwK2Om/e3PMdA1uc/9thj4eXLlz9HFaC8sSEtSrjVVQQGGT1FawqiX2gOIkYRc07K+38vdO0QAIVCIXEIVKtV3JB3pZSvCiFeVfXsex3lhTLa/00IcUnl98OQX8DuN2PsOkT1+jg2asC/A/tXCPGBysFHRMBNKeUX6tzrHRwri0idO5wac1LKh+M4LqmoBxz7Q1WSsFeacRx/pL7/MaRVSCkLURThfLFg+EhFKPRKPY7jt5Tw4t+WSiW7XC5P1Ot1fAeauAdH5uxF7bvzbPfCYqtSFbqlTfhu5gmRkBMxjOjQeZYT8s9yImF0FaC0cc1ynAxZwoJZaQXpY6XPK4v038+cOVOXUtbTofZ5Yr/Dfl92E4lEEGnSYpo0DxGjiKkhsGMRAkydCEKji8Vi8lMZ2p8yxm4MoIQfDN73GGMXjHQGXQmgp3D4FMjHe1MZ6Fw5HHyjkkE/wBlwUxn+7xllExt9OBo02qGBCIPPICZonH9TfUY/4Dh31M+JUql01nXdcxSW1R0dTE5hljDmTugC7HbNgV7Pv5v3jYIuQ5axop4TytGZRIRBKyar/BpBDAt6gdROwyLtNMgL3291z7RyOORVI8j6vdVnpM+70+MMeyoUOQIIgiD6w3SAD4quHQLmpKsG9kAZqoNYLWoDul8Dt9Xx6wMw0PPQ5RNrW3BsXclgEI6RvOPjOq45joMUhaSnDUMI824hazFqfVWSSqiKGTHrcNdoK9t8t1/PXs9/EAKOW8FOLpQz+q0uj4aUJ/nQQw+xu3fvsrW1e0FIJApGDCtpYzzdR7u9z7Do0sLJrSIABpXuk3Yo5J23mTuadmTslvuSxg+CIIjeSc85/W7idv3ujA/EEy5d0z0BriOqDdhCCCsvBJPIJ6udIL5WKBRwn4zpe4U0BAiTne4DqSoDXEUhFUulUq6GCPVbYljJS2vJ67Otwu/zBAWzxvA8Ub/0cx2UHcxMVaB5mBhVsB4lUUGCuIeeQ3T1DWsA5aC7vqsyVHGtXqsVEEMHriOHMyDrxGgx0j1qAqtwzh9njH0d+g8qnWSTUW5X6lODpZ/2NHY/XdVPH4VmCcrAtgvDJohhoJ0YXlafTWsItArzz4sSyHptq8/XzvZOdABa5d33sgDc6fs2K/qBINqRJZ5GTmliVDFLDOp5qV9HWU8aAiY0mO9tSASoO5SDTDcU0gR4HMdHXNf9HmPsR4yxh4QQDt0392iltE/03569wDlHdMDDjLHvCiH869evN5rN5rz+CNXNk/KqdImIYcE06PN26buZz/B3rZthpgVkiQma/0//znIiBPIEofIcEFnkiSG2+16dsNVjMaUjEt2S1v2gKYgYVXRkABvgfdC1Q4DY+1A4VncgJUB56Y7EcXyGMTatdCRQLnPZsqxDURQ9wxh7njE2wzm39qqjpd0ist3fd0ppf5QXpRnfHxEsxxlj3xNCrPm+j368jnKnjLFHLMsqx3G86Hne5SAIFvsNUyOI7SBtnKeNC/N+0GgNgTw6qSZgOgo6cUJkORnMc+7kOINgKz4j/V0Iotv+k/M7dSZiZMiLltnWsoOMyn2MHHSd22LBIeA4zr4wDL/j+/5/cBznEcbYXdu2fxPH8QdxHB8TQhyGM0ClZGx5u26VkduvQU+7QcNL6tqgLOvxKIpOSSlP2bZd5Jx/Q0r5Eud8XxRFn3LO/5lz/mchRHXU247YefLG1bwdfY1OGUiHIZsh/XnjXp7YYJY4oPm7+Xnp47V6Lu3UMM+v2zllJxyhrb4LQbQiHRWAdRcq4OCnquBEECMB5zyE8LuOEDNTBvoZT3tOGaCF/d4lT7WYJu4HsSwLs1ElDMNvhmH4U9d1fzQxMTE7MTHRKBQK9tra2v6FhYWyEKKiSkSW0vXdu2nXThdxg7o/uw2zHVZatduoj2UZ31+ovrqK/so5f25qauqZiYmJb0ZR9J1qtVqp1+tH4zheE0LgNR+3K91KYwcxCDpxSKarDKR319PGe15EXNa41814mBUS32mEQN79krfo62UM24lxLytCYNTHX6Iz0juhzWaTVavV5KcQokzNSIwKvu+XwjC00g5rnYrWK5QyQDxAeoFEE3Y+rusWGGOnhRAvMsa+LaWcnZ6eZo888kipUCg8c+XKlamVlRU/CIJxxtiGEm4spJ0CnbLd12KrHAvbzV75HltF6jsJ5Qy4Dq0A13Wf27dv34ETJ048FARB5csvv5QbGxsH4zhGCswdxtgyY+zGFpaLJYhNWt2D6R151iJXPW1U56UOdFoRppXIYKcOMdNpkeXcMD8jK7Jh2B1vo56eRfSOdoS5rpv8nJubY6urq7oc7mPUtMSoUK1WH242m04YhjKO42QCGMS42rNDgHZ89j5pbxNN5A8ipYQC+2FVQeAhTFr79u1jTzzxBP52YG1trVwqlaqO40RBEOCR3Lytykv1cA5Df236Ob9Bfb9BHGcv3wN699FxHHxPCGIiHHOmVCodOnz48OFz584VsRuzurpq3bp1CyU0T1uWdZYx9raU8o52CNDcQGw1nSj9m7vtnRr35u57+jhZRrl5rLTxnj5G1vsyqjZt/r9VlID5um5FBYcFWk8Q3RBFUdL3y+UyO3z4cJIuUCqVkvVWHMePUGMSo8KZM2eOT05OJsrOcRwnE8Ug1l09OwRoMN+76EWKXhxRykA+URRxx3FKlmVN4X7CJDU7O8tOnDiB9rK/+OKLYqVSwU0b1Ot1JwgCpBhYveR85tHNvbgbd2gGdb47oanQ7et2ClOszHEc9OmJKIqOwzlQqVQqR44cKZw+fZo3Gg126dIlplQxpzjnsxAZFELY26GNQRCtyAtJz8v/Z21K92lRwTxnQKsdfZYTsWAa8GljPutcskQFs77Lbrj3Mq5PQQmYYl6Mdvr8iOEF9wacAojAxIZLpVJhR48eTZwCNO8Qo8TPf/5zfFtx48YNK45j695wuoMOAUYG4p4lK2WAHEDZqIWYpcsGQOCmWCwmkxVyqkulUux5Hv5WRLlBznmigJO1UNwO9qIGwE7S6TntlnZX9zq3bRsRAIVCoSDGx8flzMxMdPDgQatarXIswNQY4VmWVbQsy0XljFZq7ASxHbQT5UtjOr9ZKipOiwqmlf2zogXyjPQsfYJ2StBpZ0InQnyd6KMMw3ot47u4qnpJUaXUEUTLvoP7B3MNfur/ky1CjBJ5ZWv7rRDXl0NAT5J0M+4t9ILFXLhQ7l82Wc4S/ZwQQiqvNgws3KkOHAdpUai92K7t8ny7/c7U9/qn3TUxdzcdx7EQKeC6LrxdUpV1kjqlQE08jkqZ4TQHEDtNi8WQi2gtljGOtFpQ6QVX+t5IOwPyIhGy/t6KXudY02mRnleGbX2WESHgqDK95BAgWqKqObH19XV2/vx5try8DI918hycAv/0T/9EDUiMBL/85S/l2bNnsTkjUW2A7VTZwTS0ENx76EXRbs1N3E4wScFgSsfrYIJqNptWrVaza7UaShNaUAVFeE9am6HVPbSVjpitPHb6+5EWxc7TzkGTyrfGPxEEa+r1urWxscHxU+/GqLHBUoYWXVBixzEXQ6m+XrEsq9RuraJ3HLNel+X0NSMHWh3balE5IH3O6dKHWdEC+rn0/JwVydCL6nSv80In78uIqrCU0C6NIURLlLYNq9frbH5+PnEMTExMsJWVFRaG4efUesSo8Pnnn984evTo8XK5jM1GS23abH+EQL8eCGL4oWvcOXkhqmqBxsMwtBuNBseNikgBvfDp1EDeSuN5uwzz3eAAGOUIGHOBrmvaYm4JgsCJoigZDGq1GvqylWqn5D/kFCaGjdRO+aSUcixtZJuGdQtnQkKe2n+b8T9TcyBv0ZZOI8sz8luh3wPHHfKt8cDnKcd1R2Ncr+Ngp+9Lp0Kon+QQIFqi71Gt6XHs2DH28MMPs2vXrrHLly9fptYjRoXp6ekvi8XiEc/zbBWhGWsHMOvDhuvaIdCvB4LYndCivzfUTWrpsB6TThd5xNazW5wB7dTO+8HcyVQ7pYhmSSJadM1bbVSoeUCnEhDEUJB2tKIPM8bK0LrQ908qEiYB/VmvbUxD1QzHN4/LUp+VlQKWfo+RSrb5niy9nlZChVkRCTqtQd2XyYdC/BM12rGbCqHbsbGxRHwNJdvS33M7adeOBNEOfd8gXQBaTdBs4pxTyVtiZHAcx8dYbuoImCluvdrpPUcIkBEzOmTlJxKtUW0mPc8TpVJJYIcGi7VGoyEHXWWAGB22ahGdNjzQhV3XFXhgwVUuly3XdZOUF+q3xLCSscuOzjym1OzvM6rbCfHlRQpkOeRavdb83dwJz8r5zNk9f+DvObo1lo52QG32q1evssXFxcQRgDJt+/fvTxTaMRdlHXu7oXGE6AbT8NFigkEQMCVm61FjEiOEm9a2YYbY4LZHCJiTJg3sew8z/ISucT5ZCzT8X1UbgDMgKpfLwrKsB6oL0A4JMWzo/uk4DsQEUSVDTE5OYifGKhQKdrPZvO+MrXvQ+EAMBRljKcIpp5Ro3X2YfbbVAqqT6AAz2qvFuA5nWubWTT/RYkYUg6XXZ7Vajd29e5fNzc0lu6iIEsBPvXu0k/crjRXEoKC+RIwiWu+GpTbps/TfuqFvDQG6IfceOo84K5yRuB+1GMNNsHljmOGbSghHwIvt+/59GgJ074wOvYT4DyItoI9jCM45IlsEymYi5cXcWURusqp9KyjahRhCkk7vOM4Jy7K+K6WcbdVH9ZyH8RoPhGPigT7fzW5L+n7TqQjq2BzVO7LSx9KO4napQabD3tD92Ize0Q6AmZmZJKQaUQJaRyD9edtNhsOEFhZEV1DqMjHKmP3fTBnbkSoDeeFsxN6iF4XiESQpyybUnagM/0QBF0UIgiCwwzBsNptNv9Fo4H4bx26V3lklvhpT9nJ7dBJS3Ml7BvG5WZhGvSqXiTjMAFUGms2mW6/XebVatRAhgIfq7vAK+EKIiIRIiWFDhdF/jTH2kmVZrvVgybv7MLUFzPrm+pEVBZAWG0z/3dy9gZ6Besi8c0ifj3m8LGeD+VotJojXwBFw5syZRHgNDo7x8fFER0CnFHS6dtuKcTlDTNAiLRKiHXlzDNkhxKiRlbrfj3aApqeUAdPDSzude5t0hyPuB6HVjLFQSpnEUmPndHV1ld2+fTtpr5WVlbjZbK77vl+NoshV91zB3M0Z9Xbd684ATSd5x4M8fjfv0xOJMoSk7/sw9mvwcVmWVV5cXCzcunXLgrNrY2NDT0g1KWUVTgEzQoYgdgrDqaX79RmlIWCZ/T2NEs5MxPiQf89USVlplO7LMv7zMA14zrmEY21jY+PTWq32lzAMb+njZy3gstLKWOqY6d0gFYmQPIHoAEQEQDNA5VdvOgt2GjOkVUVgWGpNSeMH0THtqoIQxF5nKyK4+xYVHHVjZi+SEYqYQAPvg3DOYTgtMMYuMcYejaLoMIScLly4ABXc1dXV1eu+7y+HYciFEPtwy6TbdbcxaAN+L/erNjnFA6XX4+v36QkmiiILVQVgyDQaDRj8S/Pz8+OXLl066vv+2PLyMjY50e+vSinR7xdVtABB7BjmuKr/rx0DaSPbrJahXwdF/uXl5STCC04BM10gz0jPihbIuL9wkGvNZvP39Xr9Xd/3l+B00ykJeZUGzM/I+rvxviRKzbKs0Ex90Mc2v3+v6T2DGvMNx6NUzgCcNxTiw74PTowMlDJAjDpZGgL90lOEwKjs6I0y0ii5ROQTRVHgOM5nnPPfxnE8yxj78dLS0tiFCxcgyPbh8vLyWzCu4jh+mjEGh0BZabHtWlHB3X7vb+f4tRvayjQudGgzoliEECXG2JeNRuPC7du3ebPZ/Ibv+8+trKxgIb8gpfyLEOJ1xth1FSVAEDtGatdQ6n7daqw1tXIQ3QVHACJgdO4/jtmr8WG8NxZCLAohrsZxDOO3ZNt2gAo0efcjS0UEmH9LG/VCCD8Igmqj0Vje2Ng4tb6+jvlGqr9ZLOUIaDWnZ1RFGCg66gLVSlRbL/i+/4EQoj7wDyP2FLt9I4UgBklaQNC8N7atykAH3ohCsVg8yhg7GMfxVBiGHuc89DxvuVQqza2srNym3aRtxSmXy/sZY0d835+N48RZPggAACAASURBVLiA0ELP89Ydx5nf2Ni4hrLFxgltit6RF7Y9QgjsbCzYtv2GlLKCiM21tbXT6+vrdxzH+bcoit6J4/gYY+wJxhgcBrY+KDlbvqKVeNZWlNgjHmyPVH90VCmn5SiK3rx79+7K0tISjJpACDFl2/YHtm3/tyAIsJhfJWEwYgixlBbGJlk5l3hgR12vbRApoMPrs4yQdoJ/aaBfIIQ4LaV8CpFktm1jjcSRRpCu5GPei+0MeO3oiON4Y319/a3bt2+fGhsb4/V6/VipVEJZKlsIodPU+A7fo1JFMqDiTgyq1erG3NzcX1ZWVj4Kw5DWhERbzJQgghhlWgn8b1uVAWZMRAabk67rujB8flAoFJ6TUp6ybbvCOa8VCoWLjLE/McbeYIxdph2lbQEL+tOO4/yNbdvfYow9LoSYdhwn4JzftCzrvfHx8X/f2Nh4Szlp4nQuMBlPbZHqxrzNOf8d53yx2WweYIwhEfU8nlehkVUhRFPls95HK8fAVu5mD1OkT9557OT57cZIqKxz7vF7YDxYcRznVhAEl4IguBIEAXKfL3DOS+VyeU4I8SEcBvpjBvUdCKIXMkoi4z/JznN6jDV34bXRj91rOAJ0qoAOvR8AGP+nGWMvx3F8gTF2I4qiJe10MKMQsnRG8kQMcZ5qxz2qVqufX7t27f9FetqtW7ce9zxvAssxhOZnVcBpRV56RBamcyTv9eo1+ANXa8c4iqJmvV6/s7S09G9LS0tfDoO+ATHckBOAIO6hHdmaLF2ZXui5yoDhvQ4YY+svv/yy/Yc//OFbtVrtf+acf7dUKp12XXcSQj1q0j1Vr9dPMMYeZoz9y/e+972/vvbaa822H0b0wynO+csou1QoFM4Wi8XDuiOFYXg2DMOHOedHJycnYcD+fu2emlKgdxLMlAFyDOSjS7C5rnu1VCrdQnlBlGNDW9q2zV3XXRZCfMoYO6GcMhOdHnsr252uaWt2Y/tknXMn3yNlMAmli/EBY+wTz/PuRFE0L4RYUE4uq1AoRGtra1GWuBNFvhA7RSqkHh3ythLH9PJ2yLVBq8bxZH7UZfrMhVde+kCrtALjvYhWqPi+f0YI8Rr7SsAz973tyg7ifYVCITnG+vp6FEXR+aWlpVulUumA67owvrEVb1k5ZQzzIh3yNAtanVe7dYK+Hgo40aMwDFcbjcb8+vp6SGMG0Q3pChsEMWqYa69B3QP9RgjgLLht2zOffPLJU6VS6X8RQvxcCHEM476u6cvuGU3Ymf7bcrn8EDzX77//fqQWnBQpMHjQ6Mc9z/up53n/yXEcKC3burYyFhBRFBVs2z7nuu5x13UPYoEfhuFfUV4MQnlIKzDDJWnQbY9qq8B8IXI5pZS3HMd5XS1IUXbwnJk6sJcM82HdVd+p8xr2KIOs80NaAGPsCmPsj0KItx9//PEFVM2Yn5+X5njdKqojy4AgiEGR1acyyuTGSvjyj4yxn8IpkCWSq/Vy4BCAQj+MbJTow//Txro2/s2fLGWgpJ/T59poNBApUG40Gti5v08UKisP1EwZyLrX4LDQazGc+8rKilhZWVl0HGfRcH5IltNeWY6BrL/l/Z53j6ePm/o+m+dlLmjxXQiiU8xUG9rYIEYNs/+nq+D0Q0+iguyrwd3nnE/atv2DIAhc13VfLJfLx5GDp/PwYIAiSgCPcrnMS6XS8Uaj8T8sLS0FKqz6IvXmgYOd//84Njb28uTk5Jk4ju1qtZpcAy3qgwVEoVCwJicnJwqFwrd934cn4AjnfB2qvzr3khby3ZERsiNVWPU76n77G875Y3tVS2BYJ+edOq9hX6zk7D5ibL6m+uwF27YzI7k6FScjiK2gk3D2OI5vITXOtu2/cV33sHaK44G1DNYoQRAk43axWGSVSoVNTk4mdfvxmn4XWkYqgqxWqyEqAURRhLKem46I9Dm30lJJG97akMb30KUFdcRa+hitnBgs5ZjIinpo9Vy6BGKL18h0qKuutkAQnZKyQwhipNCRa4Ou9tdvghx2iyBU95NqtTpRLBZPYDLCpHro0CF29OjRxNsOQ3RlZQVhbckjDMNHxsfH/yGKoruu6zbW1tauDeTbEOzAgQOH6vX692zbfrlQKDyDXQ5cj0ceeSRZ6OB3TMworzQ/P58sHoIgmNnY2PhxEARjQog/aQEgytkaDFCOiqJoQ4Vh13ZbvnWneaedhqaTsbgzdCGChhsf/RWpLg1dwizjdR1/D4o0IgZBp/nv+nVCCJTN/ERKeV1KeThthGsjGn18ZmYG82cyT2LdoqMbzR2YPGNdk1XFAPcO5lnbtlENwG80GmEYhqJVFZ+83fus0Hxd01//PWveNp0AnRj76UiIdnTiEMhCCzqSQ4BoR7oPDdoYIojdgo4wS883/QrB91xlQOkC4E4cR331arWK/DgHJ/Twww+zl19+mX3/+9/fnFSuXbvGfvvb37I///nPyWQrpXw0DMOXwzCcZ4zNUeWBwRDHMVI3fux53qN6J+TJJ59kP/jBD9ijjz6a5EaCjz/+mP3zP/8ze+edd5JSS3EcTwohTlmWNYf/mzvYRP8IIWyVx7rr2rUTRe1OjcNRcAYMq9Oj3Tml/m4rUTL7+vXrMUqxEcSwk04JgC82juPLtVrt4srKypONRqPUaDTY6uqqVavVWLPZTNYoSBGYnZ1lBw8eTP6fl6PcquIAy3B8aeE/lJ71fT92XTeyLAsbKSK9s571ea2ezxIYTJ/nVhtLrT4nT2ywG9FCgsjqb6YxRH2IGDVMbZusdLVe6SllQA/onHPH87wy5xw7yw4mWHjXT548yV544QX29NNPb77vzJkziScYqQTvvvsuIgW8RqPxbBiGqErwiqFWTfSOu76+ftbzvOeFEOPY8fj617/OfvzjH7OXXnqJ7du3b/PAExMT7Pz58+yDDz7YrLvseR7KE56TUqJkkaPExTh5YDsjL79SkdR2H0BUzo5Ak27n7FYxQmPHxTLKDrI7d+7s9OkRRM9EUXRjaWnp31Hr3nGcb4ZheGZ9fR2OATuKIgupAli3TE9PI60xiaIz0SKFrfLksyoBMOUQ0Is36CopfZ7NzY9OdnTapeaYn52ee8z1Wtb7BkUrPZG859pVJyAIk6yIGuo3xCiyVdHbPUcIsHuTjTc2NoacMI48PAAv+/Hjx5McPBNMunASIGXg1q1b7PPPP2e+7xcsyzqqKg9UKUqgLzAy7g/DEGkbh7HzgciAH/3oR+zFF1+8zxnA1ECKa4XHwsJCsnApFAqJCjLqI6u+EWmjgAbezmmx0JJZ6QLD0rajFM5PqQtfYVaNYV/1x8y+mn4fQQwTZhix0T/Xa7XaK81m8xJj7M9xHD8dRdFZzvkLxWJxemZmxsL8CCc5nAFaqCnLWM0T38szfFP3CKz/SOvzZN1HWYJ8WaJ/acFB/TNd9cOM6Ey/v51TwDxuK8HBvOeyjpc+96w2IIgs+g2HJoi9RJaDbNtTBpiRpxbHsROGoUSddV1RALvS8LZn5YTBA//UU0+xhx56aHNnWgjxiNrRvttsNm/29W1GG5SyO1cqlSAomKgYY5Hz+OOPs/379z/QMPi7VlPG9VL5koV6vb6v0WgEpVIpVjWM4fCxaMLunE53X3Y6rzptFHdrIO9mo5qcAfeTF9Lb6XsIYqfJUuoHhUJBSClXfd8/H4bhnBDiiud5t8vlcmHfvn0vzM7Olqanp61yuWxp5f40eWX2WI4Rr9HRASqkH2/a4Jw3tbMtSyG6XW503uuz/t6J0W8eJ+v17X5v9f3T55EXyUAQndDLPEUQe410msCg1mI9pQzgBBAR4Pu+hVI6cAjAsw7jEjnq+L8W5EkDhwEE7k6dOpXoCqyvryM64DnG2PvkEOgdz/Nmoyh6GmUEcQ1g5MPxMjU1lXlMrbCslYu18FEQBFaz2bTh6EHoMC36OwfthwiYTsJ5hmFB1O+13ct9Y1QiCKSqZ27S7nujf0MklhZkxDCRV34J6xKo/EMEOY5jaBZJ13W9SqUyW6lUimNjY4/btj0N8WMV6SjVMWSreyHPADaNX+UMkGEYRr7vfxRF0Z+EEMu6pG+6NGG7eyprtz79mXnpDXnnn5Xu0KneSJazoBOnQt73IYg8zB1RsyQ2QYwaWdVpBkFPEQLaIQChHG1UwhhCmDp+mhNdGuTowSEAY/XmzZs4zj7HcU6ifCH16t4plUqTYRg+HMfxAThkHnvsMXb27NkkDDILPaDqRRCElthX6pWWurZWpwsE4h55QlFpdusiaNgM5a0SqMpb6O81eokQwevg8MVYT4t5Ypgw5yttbOqydqoknwjDcIlz/nkURZP1er1iWdbCxsZGRUqJSIJIaecwlYZ3302RHtvzyvTp16mIA0TbLVWr1f9nfX39LTgHlGbPfdUBskg7CtoJDrZ6XZbTIP3+vN+zPq+VUyDvu7CUE4DGD6IbaB1KEPeLCrKU2CbrQ2OgJ4eAig5IjEksDLUIj67pC+FAlLVDNIBWutevwf9RkhBqvkp913UcZ0YIUaLr3DsQdnRd90Cj0ZhCR0HJRzhdoN2gUREAieMGJQfhBMA1w/VCB9LXCdcUkQKqnjFN2h2CmxLtp9utm/ftFoblXPWCnxnCWejLW/l5w8igHBXd5vP20s8JYifQEXC65C5E/aIoul2tVj/0fR/VB2ykxakdSGFZlswymHtIqUKEHVLuoBtQazab881mE1UPkvPR5fbS1QGy7sVWkQhZ70u/Nuv46RD+9HFbaQjIHKHFdtoElDZA9EqWQCb1H2JUMUvJmpEzrA8tga4cAvpD8OFwBqDsIAxOHVeO52FkYucflQQgHghxQYgMohShngCxa41QdlV+EAvLcS1eR/SGEKIYx/FUFEVjuo3x0KkbaGdcD6RpLC0tsbm5ueT/uF5mx0K6gd790wYWeWU7Z6vUP4n70R5S/TA9o8OySGhnRAzCmN+Ke7PTcGGCGGbSRizmRaxX1PolCsPwKtYxykmQvDhde9+sx88yFlpZ9frTNfnTuzZKwHczciFvHDCN9DzDv5XgX1Y6QCch/nnRBlnGf/p9eQ6GTo9LEJ1gimUSxKiS7v/bWnZQT3jYZcYDJ4NJTRuVeNy+fZu98cYb7LPPPksmXxiYKHuHqIBKpZIYm3AG4IH3YiIIggDRAS716t4Jw7AohJjGegPXBakZcMZohwCu15tvvsl+9atfsbt37yaCjsgDRoUBRHtocL2wWwJnQN4iiOiZOEu5nRZD3aNETZO204txM2qgE7Y6DaAfw3onUhRSC3WpQ6e10ULOLmLYMVMFNJcuXco76y0deFuN6z1EGwzgjAhid2NGBdJ9QYwyZmSAnvd2pMoAFobYQYaYIBaL+B2edpwcjEwIq2H3Ga+BQXrixInE6IRDACcNRwEe+gtJKW1VkofokSiK0IYFXAu9A4EQSR2OiGvx5Zdfstdeey2JFNAGhzaqtA6EsehHzWSLGV4nGnz7Ao1Xh28mbVj1Y/iNivgdMwY99FmMJ2tra4lDCykwiIY5cOBA8rPTkNStbLdeogOydtj6PWanZGgJIB8AwiLyyJEjSVtXq9XN13TrHKCxgxgEpGlDEKOJGf1nzj80txCjSjr6alsjBDQ6/w0Lcxj1MD7xEwYlDH1dxg4nCYVfaAmYeXI6wsCY3IWku7ovisWiiKIogGNGazlo0S8dLgmD6eTJk4kxpZ010A/A73Ae4DqqiILNkkjM8ETRIqxvkkiYTrx47QxGzahcE6nU8PFA30aUy+eff84uXLiQOCBhtOqSpog+0rvaO0Uv0QH9huoP0LFkqRSuAv6ULiErMyoTEMQwYOa2EwSxd8irLED3OjFq6Ih8jd782tYIATMHDgYkduaUlgDTqrlIDXjyySeTsoKICMCO3dNPP52EoutjYLcJDxilqiwP6vIip486do/Yto24/6pt2yKOY440jlqtlrSxFnZ89tlnk/bXOgIwqmBQQfOBqU5l5mSbOZGU59cbjuNYjuNMB0HwmBDibxljR3RahyZPEbqT57aTnVxoa6cW+iT6NpwBSE1C/4VTCyKlcAygvz/++OOJU0BHMhH5ZOX4cs7hDDjGGHvGcZya4zjX1PjSFhojiO2gXaQA9UOC2Ftk7X6SM4AYRbSdltZj0VE021JlQHslsIus8/9hdG4ezHGS6IBz586xF198cVNIEFECusoAjH6EnsIhoEvdFQqFDdu2AzxH9IbjOHCqrHDOEZY+rtsYu/9avAilCA8fPpy0+/Xr19nvfve7RFwQ/4dzR1UakOVyGXWapSqZtHk+NPi2xVL3FFdRFoGUEr+f4pz/90KIlxhjj+E1WUJQw0i7MPatIsv5oAdB7RB45513Es0SAAcXdDHgCIAzcnZ2dmjbdJjIub8xWJ9hjP3EcRy+tLT0m0ajcVP9zVX9HDMOeXCJoYTmKoLYW2TtfpLjjyDuoTd0+9ES6CllQJengwGJ8F2tB4CQczymp6cTZwC0A9LAIbC4uJjk/iK03fO82LbtNc/zmnRde8f3fTgCFj3PQ6LvOHQCbty4kURrQFwQQGgQD6bEAz/66KPk2ulUAVxP3/ctdX0ldrf1CWUpFBP3UbAs66gQ4jhjbErlX38Zx/G6lPKQ4zhPM8a+kXXPDXO77mREgImZ+oJdf5TNhDMLjiztJEAfxvMYY/Sg2K5s1yDZjaHKWRECyqF1mDH2rTiOF1dWVs4r/Yt9jLGTlmWhluk8arljzCGNEWJYyOjLBEHsESgdiCCyq2zoyIB+5r6eHALa+McCXEcA6Hq6WvQLjoIssIDHjjQeKt1ghTE2F0URhQf0QbVarRaLxeuO4yw2m80jSAvALioiOLJ2S3EdlDBk4iTANcX1WF1dxfWDU0DqesxEWzjn/Djn/AeMsb93XfeElBL9+ndCiA8sy9onpSybwpm7IUJg2CffdJkvLaipaRVWvBPl+oaRFtEfaNxJIcQBy7JOWJZVtiwLDq3v2rZdiaLoY8/z/qXZbP6FMbax1YrtBEEQxOhiOp5Jw4YYdfLEyftZh3btEFA5/0mUAELLsdOsqw3oUnUwNPNyd5HvizJAn376aZLzyzm/7vv+R57n3en5WxBgMQxD1FeaW1tbewqOgCtXriRh1Fno6gLakaPFCHF94QwoFApIGcAi3yJl55Y4juPA4/JsGIYvua77/YmJiZmJiYmm53nu2tra5Pz8fCmKIohowEtW3C3l24bxeuu+qFOQTPAcHJS0WOgbqfrqmpTSs2378ZmZGXtsbOyFIAheWF9fd5vN5oEwDFellEuMsU/V60mwgdhRWtXoJwhib0AlcIlRJm+Nu+1lB01hQdd1I865DMPQaTQaHAYldphNXQET7EpDBOzixYtJygC7Z0192Ww23242m/N9fROiGsfxp1LK68jMsCzLRcoA2hvK6zpVQAPDCQsmXBNcL2gNcM5DznmtVCoJz/M8zrndbwjKXsdxHKQKnJRSfhspAZZlzc7OzlqPPfZY2XGcJz/77LPK4uJiFEXRPpVz7XDOnW5r5hPtSQusUPt2TqrNMMivM8YwSLue533j4MGDM0ePHj3dbDZLKF86Nzd3LI7jFxhjdzH2MMZukkOAGCZo3iKIvYNZZcBMBySIUUOLvucJCG6LqCBL3ZRhGIa+78fsXp17D7vMy8vLSR4vIgHSnD9/nv3+979P6uBjNy+KolgIcYMxdoExlu1FIDoFi/FrSBsQQqw5jrPvzp077NVXX00U2L/zne/cdxh0JORdQ3wQkRpwEBQKharv+1ds24Zw2EnOeVl7nMi4ysayLM+yrENCiCcZY0gbsFDeEdoNQohDKysrlZs3bzZwbwgh4mazKYRIqmxaaQOW6I523tDd0q6tUjO2I20jHYKpnIXopIj8mi2VSrOHDx8++OSTT5YxrmPMmJubG2OMneWcX2GMvS+EmFe6GQSxI1BkEEHsbbJSLWn9RIwapl1mzntmqfhe6ElDgKmbMI7jwPd97EZ72IFG+gCiBLCD9O677yZidtAagMGJEnevvfYae/vtt5Md6bGxsahWq30WhuFFtRNFMUD9s1EqlS6FYfiJbdvfWltbK7z33nvJdcA1QIUBVIFAp/nwww+T1A04BfRzQoi6EOIzzvmYlPKoznknZ0A+URRxx3FKlmVNqfSBROkedfGllHx6ero0MTGBBoQzgEO0kamUDU279t2JXP5eP3M7zzXPC7rdVRH6/c6t3rsd38H8DER+qVKZ5TiODyB9qFKpVA4ePFg6deqUhbH7k08+wXvwpklExEBfwNTHIIidIF2XmSCIvYMuf83oXieITLY9ZSCNlBKhALWpqalKuVye9n2fo679K6+8wrBDPTExkTgDoBmAyADsLkFwUAgBAbx/D4LgQ3IGDA4hxAXLsl4Nw3Cf4ziPI2IDUQIff/wxO3PmTFL5AbvVSCX44IMPkv/v378fDgOxtLR0s9Fo4LpASCw2T4q8sNlo1UU9KcGgghMMQpvwFxSLRb9QKMSe51kqXcA2dRlYB207yAmvU+O1188chJp/p+9JD37pNIztck7sxIKkn7SIdLvoCiK6/RDl4rounFwO+i76c6VSCaanpz3XdTkcv6rt0Zdd1acJYmjQ/ZnmLYLYG5hpAubcT/c4MYqk07nz0ge6oV+HQEFKuWBZ1puc8ykhxD+Uy+UpCApevnw5qSSA1AA4AFZWVjZLhMVxvMQ5/4vruv8WRdFn1JsHh+u615vN5m8ZYweDIJisVqvH4IRBqUfUbEe0AK4PxAahGwADttFoiDAM/xgEwa+llIuWZc2oWuPkfW2DqqwBA3+zoUwvNio24IFIAiEEzzLkhmEnO11+rpNz6uR1vXy3XqsC6AHRHCizjN+90Ke7vVZZ72VGuoB2Cmj/Fh4qUoDrCgJm6Ue1IMP84UkpbbP/E8ROkE5vI0OBIPY2pMVEjCpm+r6xmdNXa/QsKqgoQmU6juN/m5+ft0ql0vT09PT3S6VSGSHqV69eTZwBlUolCUtHOHW9Xocz4E+O47zCOf8rY2yZevTgmJ+fr507d+782traKxsbG+Vms/nDcrl8DG0PhwCuC5ienk6uSbPZ9BcXF8/X6/X/IoT4I2PsNBb5nBIyu0GaRpM2TBEt02g0bIRZoxJHEAQ8q37odtFpaHqn57ad3yG9uM9a7OsBcStC8IfVkdDvOeWlV0AsFl8b4zfSXDY2NuxGowHHljnx2OpBKzJix9EhxeQIIIi9h2l7mCUICWLUSPf/Qd0HPYkKGotjS4X7L9br9c8gLFgsFmPf93+0trZW1MKCa2trSc60bds1RAZYlvULx3H+cOPGDXIGbAEXLlzY+NrXvvZmEAQyiiIrDMMfhWF4BM4ALPCBdgzEcfzWxsbGf2WM/Vo5Z6CYj+oCyQXuJrSduN/AQhsGQeDU63ULYdhwCOxW42nYDOKsc9HOgK2IvhjWXYhBXhez7RDNEkURUlwExop6vc61MyAr3YAghgGqMEIQe5O0s5/mHWJUwb2gnQKDdIT3lDKQWnC7Usoi7P4gCLArbSMloNlsnsBOMz5DCBFVq9VmsVi8OjU19cdisfjq1atX71Jv3jouXry49Pzzz/9pbm5Orq2tLdTr9bNCiArSPOAHqNfrfhRFi5xzpBf8K2PsDmNsHFkHyhlgpb1QtMjqHMNzJ+81nSURpZHFoCe2rTDeh/Had5IvNei22EnHSNZnD+JcTC+z+RkYB+DIUlUx+v4cgtguqL8SxN4inTNNqUHEqGJGGmdVGeiVvkUFVf60PqNgbW3tVVVG8ABjDLXXJ1RN69vNZnPRdd3Fq1evUmTANvD2229Xz5079/rCwsJFIQRU8I+ra9JAmbBms4lSYbcR4aHOht9zPt27nFRysD+wu+p5Xlwul4XruojOsFTUjJ01sQ2KvXy9zO+WzmrRC4Zu2rZbA3+QBng/uf+Dwiw5qL3MqsatcBwnKpVKAilfY2NjEBrkECFNlykkiGGE0gcIYm+h50BzzqL1KTFq6P6flTLQz5zX9aouwwNhpcKg6+Pj46JcLo9zzg8zxlC+7mixWJwoFovBjRs31no+W6JrkD7gOE5tYmICURyHGGNH8PA8b6ZcLtsHDhwwa4c/0B9osG1NXm47hNcgqAmDSlUZELZty/TrBvW5/b5ut9Du+3SiNWCyU1oOg/7cXq+zNppM40l5nSX6bblcjiYnJ+NKpRIXi0WRKvuE36lCDDFU0JxFEHsb0/lPTj9iFNEpNGmbvJ/5bxBlB3E2kfrVm52d/R5j7CdCiG9wzk80Go2y67phqVT6Akr2jDFEELyPFIN+P5toC+qDf8113e96nve9crn8lO/7467rRp7n3bEs66MwDH/FGPud0g+I7o214oFBlhZZ2aibcVNUkBkGn1ZjR8h1o9GQ9XodbWuzVHt2O6F1o5y/166bGSaYFR6l2z5PLG830U30Qj/fMyv0UjsF1AN9WaqKGkmVEjzUeBGiRCktyohhgHKMCWJvkhexSmtTYtTQ1bRYKlJ226sMpJFSQqWufuLEiekgCF6K4/g/WZb1zWKxiPD0pGZ1sVhEhYEjq6uriBg4yRj7r4888sifvvjiC3IKbBHPPfdc+YMPPng+juP/yDn/9tjY2GPFYnEMpQZVpzkihDju+/7x8fHxo1EU/bLZbN5C2od5RiQq2BappAJi/UKU11SijRbaOwgC3/f9qNFouIyxMX6PB8oUdmoA7pUJsZd8/NQu9n1/M0WHzN2D3do+23HeZvsYu/8yDMPIcZwgDEPRaDS8arXqrq2t2Uh5QZ+GSCycAYwx37IsOAYk5XQSO81uv+cJgshH39/tqgkRxF4G/V8L/Jtsu4ZAahGOT4cS9bFisXiYc/6fwzD8YRzHRf3asbGxZKc0DEMIVD1aLBZnsU16+/ZtrCjfUPoCxGApXbp06RulUullzvn/xDk/hEW8cswki3nkAtu2vb9cLr/IOd/HuWCP/AAAIABJREFUOW+srKz8cWNjw7NtO7Jtm0KBO0DdlOjSyZYpqjgsLy8nJTfR79fX16HXsBRFUSMMwxKyCYQQnukQ0GzXBDcsC+ZB5+6jX+voFlOFdRDsdSNDR1WgzeI4hkMAoqNr6vnJO3fu2FeuXEnGDTi71ETUkFLWoygKVKTY5rHSkJOAGCSdaIMQBLE3GeTcThC7EV1dYJD0HCGgPHXYHZp2HOcl7HwWi8VnHMcpbmxsJLukMEDL5XJiJGERWSgU2KFDh2ZqtdqPVldXI+UMeBe7TNQjB8pp3/f/x4mJiZ9VKpVDWMRjZw9G0vj4+OYOHwzWiYkJ/Pya7/twHkxzziE02BT3ICXXNnieFwoh7lqWdQntHobhgdu3b7OPP/4Y/f/OysrKl1EUVaMoKqmqGwmmgZmV976VxqeZN94pO20QZwkFphcF5u+DON+s3fN+GebyjXr3BeNFFEVcPVcNw3Dl1q1blWKxeKjZbI4vLiYapIgkui6EuMwYWzLSxghi2/qsCQldEsTexVyPkuA1Meqk57tB3As9OQSMxTl2hmajKPrByspKpVQqHYChiaiAU6dOsdOnTzMoVNdqNXbnzh02NzeX7J6GYXh4fHwckQRLQoj1jY2Nj0b94g6KyclJpGT8kHP+E8/zjsMJc/ToUbZ//3528ODB5Nog//fWrVvs2rVrbGVlBQ6bQrPZfAFlxizLeiOOY/QLmQ5JocH3QaIoglPsM8uyfsMYm2aMvbi8vDx+8eLFxXK5/GatVvvA9/1yHMffYIzNInpDizfmOVm2o52HQeG+V/LaLb1I6NeJtRXfeZjvIcPRwqWU6KeTURTdFEJ8cOfOndj3/Wd8339+ZWWlyDlH2dg3pZSvSylvpFON8o5NjkWiH1rdP1uxY0IQxHCQFSJNEKOIWRLe/P+OaAiYu2ac8zHG2P719fWxWq3GEZIOR8A//uM/su9///ubIepwCPzLv/wL+/Wvf51EDJTL5WP1ev2nQojPUTa/3YKS6OzSQD7A87z/zvO8hxGhAQfACy+8wH72s5+xkydPbl477GD/4he/YL///e/ZwsICrhMECI/btv1wFEUoFcnNBRYttLKJsJXK+V3O+eu2bU9YluXU6/Ujvu9fcRznlSiKLgRB8Chj7FnG2AxjzE3nv1Hbdg92sTXmIKjTBvplr6UI5H0fs8KAXmyp9sTc4FqWtRDH8eurq6vz1WoVGiOREGK/53mfQIzU9/0P4jheTVWaIYhtJ2vHhAwIgtgbmOtR0wgiiFFDp8Sm13TbriGgPxAn4nmeUy6XUUUAYnW80WgkO9GPPvooRO0SA1Rz4sSJ5ObFa1599VXkWKOm9ZkwDL+mDKU71Kv7ZrxWq50Nw/CZKIoKBw4cYN/85jfZT37yE/Z3f/d39y2YcP3effdd9tZbbyUOGlzXYrG4r1gsnrVtOzEGYF9JKW0q79KSpFHgFHAc5w8Irw7DcCoMQ8RVn2eMLXLOsaO6IITYYIxN3Wt+sp+6xcxz1+MQHI6IQtIOgqwKGb1+1l6iXRWKjFKIcNDetm37CmPschAEV1QlkjnO+bjjOHdc130vDMNVJTBIgwOxo5iLIRpfCWLvYTqtSTyUGGW0PTfIVLmeRAUN49BzXVdCJwALc4Cw9GPHjjHXdR947ze+8Y0kfeDzzz9nn376KSZwvOiEbdvn4jiuolrBQL7VaIJydiellCebzeYUjPx9+/axH/7wh0m7pzsNFvHQE5idnWXz8/PJc4VCYbzRaDyCXW8pJS5orMvkEW1BW30ZhuGcSgmAleQ7joOomUUhxKeMsWOMsaeEENPpfHeiNdoRoMs5ou+if8PBiEom7F66TPI8xqKtcmDt5UWI0V7onBgU3rNt+zxSuxhjGJ8RFfA5Ugrq9Xo8MTGBdBlSdyKGinTEC0EQux9zDUvpQQSRX367V3rWEIBBGQSBA4E6pnbqEJ6ORTkcBFleCyzkH3nkkSRaAJEEEB+UUiKcGvnrNzY2Nj6ja9wzM5zzJ0ql0kOccxttjTZ+7LHHkmuSBp0Ir0FaAXZY4cCBg6bRaEzWarWwUChEUBtXdcitjB1EwkCF8MRpp1Ycx0Ltqv5J3W8Qbqxwzp1hbc9hNHr1wIfzwvjy8MMPs3PnzrHr168nES7o40hVwvPQzTCjCLKO1ev32+uVBti9sQHRAYgIeJ1z/ldEuagIgAf6N0EMC+ZmBc1VBLH3IacfMeqYtvaOaAgoZwAqCVioJoBwXSzCsVCHYQlDMytCAOA1MFLxuHz5MqoPnLAs6ynbtl9njJFDoEc8z5vlnJ/lnB+GY+bw4cNJ6sbU1FTmAXF9zJATvauiykNypMZDZJAZ6uNEPjA+s25GZciuOo7zIYIwGGN/wxg7gwiMQbRpevE7iMXwMC6mdYQAvh8iAs6ePZuMQ6iSsbq6yo4cOcK+/vWvszNnziRjjNYSyPouZCw8iHmPSynhELjJGPvQcRxovDSG62wJ4kFo15Ag9i5UapAgssmrvNUtPTsE4ARQuaPJScBBAEeAzkfPM3awWIehiioEqGvdbDYnisXiQdu2x+ha906xWBxnjB2KomgG0RrYKYXTBSHUWegdVFxHpHGYHclxHAuOASnlZmQALbT6QiDXmjG2oHZYB+ZdSV+X3X6dWjk0dB+FM+v48eOJYwA6GShpitQX9Hn8xDiEsYmcWJ2TusfR0DXG2Eqz2axTOxK7DeqzBLG3SIsxEwRxj5QgdM/0FSEgpZSe5yUGpH6+Wq0mFQUuXbqkheqSkHQ8cLJ4PXavoTWAhXsYhjbnfMJxnCJd296xbbsUx/FsEARQuk/aF+UG0d5MGVMw/HF96vU6+/LLLxnq5SNtA3nY7J6GAIws6TiOjOPYwjXW0AKrd5Qh66gIgZ7uuVGh1YSv+yBegygY7RBA+8IJpqOTBiUs2Am7PTzZPP9Um0E7xA2CwFapAgQx9NA8RRAEQexlzJTYQUbGdWWcaO8D6thDOwAnASMSz8MZgOeXl5fZhx9+mPyO0nbI7X3iiScSYTu8Fgt2OAfwvE4riON4PI5jj3pw78RxDIfKFOqHo10RGaAF1phaKEHM8aOPPkocNrdu3UqEHRcXF+8zqBAS4LouIgQeSBWgxVZr2oTrWKpyw+AkQUccOLvgFNDpLhh/tkI3oBW7fccip/ylpfppdt4XQQw5tJNIEHuLtKOf1qPEqAKbeysiZnp2CEA7AL/DkITxiN1kPL+0tMTef//9JB0A0QFwArz88suJAJh2HsAZgNx2GKBKoLBEi8/+QJlBIcQEqgLgmiA1A+2vHQK4Rrguv/jFL9jNmzeTaAGEWuOhnTnsXuoBrkuiI6BPiEK1thZq295Av8VD12RlLRYJ1Mb59FpWlHI6iWFikOWXCIIY3vub7nVilNERAoN2ivUUvqxPBLvJ2PGHcal3lPETRqbOS4dBevfu3U29AaZygPG8IYTA1a4U0SNhGKIUQHI9cR3SHiRci5WVlcRRg4d+jb6W+KmdAtAOwPUwQ1JIuTkfsya+mWbRKZ3e1HQNviIlgjfSuwX99gv93vTPdmDs73RhRrs5xCAw04bSkKggQextBiWeRhC7GW3fMaO6ziDui64cAvrDdGSAFu5C2K42hpDbi3J3+InnEA2AUoM6lx0gbx0OA2NyjyWtGPuiUCjA4xLCqNcaD3DOaPV7LN4hxAYldqQSQEcAr11bW0uuBa4VogNUDjY0BJLrgQGYIgTao9t9Kxn1a5Bn+KaHjmF2nGzFufV7vKxKFZ2AMWSr+zxBdIq5MKLlBEHsLcwdUdMRTfc6MWrkGf47IioIoxHh/0gbMHdEYVRC5Ou5555jjz/+eOIYgEMAavdwGjAV5oudamgN4L1KhwCqdhGOR/RGuVwOfN9f55zHEGrUURowVLU+wDPPPJM4ZiAmiKgNlH2E3oMWFdQLKs45Rlhp27ZFu7CdYTrLyHu9NXRq+A6z42Qnzy3PGZEWFezkHJUgbOZnEMRWk9VXzXF31J2nBLFX0SWIu41oI4hRoVcbpKcIATgD8IBxj10ivYsMYxN1weEAeOmll9jp06cTY1RVIkjei0UklO5RO1yXKnQcZ8O2bZ8cAr0jpUTjrXDOa1LKCez8w/GCNsbOP67PyZMn2aFDh5LnkDbw61//Oqk2gL8Zjh1ZLpdRPULqyADaBewMHYlBDoHtYasiAbbiuMMQtZD3+d2eG16bVc2BnAHETpNTMYMgiF2O3v2ke5sgHkQ7ylgfkQI9RQhoI18biwhBV4Z9YnwiKgClBWdmZh54LxwCULnHA+91HCe0bXvVcRzyBvRBEAT1OI4XPM+rMsYmEAEwNzeXVIPQ4Jrp1A1cB1wnRG4oIcHk+VqtllQZUOUH7zMWyBNLDBNb1R+pGgFB7E5MY0FXHyEIYvdjbrSQqCAxyuhIZNMJwAZwX3T9bn0SMCC1gQlFezgF8H+cEIzNvN1+XQP/6tWryWscx1lijF0XQqyM8PXtm7W1tVXf969wzu+i/a9fv560M9o7C60hgGsJhwA0HwydB+m6rsTf9KKKDJqBgDv3gRXqVuxG7xV2yw50N8KQw0a6/yk9F5nVV4f5exCE6bymPkoQewdyAhDEV5iaOUytybZVVJAZ6oYwHovFolDaAFYURXgkO9L4qRXr0yBVALnrX3zxhc5dv+77/geMsdt0rftiPgzD85ZlvRAEwbMbGxsW2hipA1mYOZhahBBigo7jxOVyOSoUCgIaAnEckyegT1TkTFyr1epSygcTrwfMXnLe5NTJHzq2W99gUE46fRz9MEA/RSqXyEsZIqOLGDay7ouvfe1ryU8sljDPYSNCLZwc13VnXdedtG27oObCzTfnGSBaqNf83UT/DSmT+LMSTa4HQXC7Xq9D+FdOT08nmypwxmMthQhL1sLRhu+QFf2Q/pmmXQpF1vtaHSvrM9OvNz+z3Rhh/v3SpUu5ryMIs29RWiYx6mxFVZ2uHQL6JFSlAVj9wvd9LwzDxCEAgx9idlmTKYxT1MLHzjVE79TE+mWz2XyHMbYwqC81oqwzxj6N4/iGECISQrhIGXjvvffY0aNH2ezs7H2tgoUIwOII1wXXzvM85BesQB/Cdd1xx3Fc7YUiUcHOyGsj13Vxr40jc4NKbO4MwxTpMqhSgf2SZTBYloXBu8AYK3HObYwnWUYDQQwTWvMmb66CYwsbFkIIlEuerlQqT42Pj/+kXC4/ivkOZXvxN1V2t6Xmhnkf5P2unGyItAvjOF5pNBp/WFtb+/Pa2trFer0eaMeCWYEpfX+lDW/9XFZllfT7ss6XZRj26fNOP5c+ZjdpGd1+NkHkkVd3nfoOMYoYIvCbGzo7UmVAD+BRFIW1Wg1OAS6E8DDhwiEAFfusnel3332Xvfrqq8nfYXT6vo+89yuMsYuMsQb16r65UygUbnDOlwqFwqGlpSX2m9/8hk1NTbEf//jHm5UemHIEwHGDBxZJqkNV4aDhnHuWZZ1O9w8yAtqTbiNEWTiOMxnH8aOWZX1LSnkET3d6PErXGBzD1I7DeE2NhRUslJOMsW/BjnJd90oURet6V4b6IzGM5O0aol/rKDgVvYiIgGeLxeJPpqamfjAzM3OuWCzCASaNyhmbZXezxuCsHXH24K64pRZpKOMb1Gq1Jy3Lesz3/f+zXq+fxzmlo2+yjONWO+3pv+WdV1ZZ0bTTIP0ZrY6Z53TpZGzIczQQRLdkRLYRxEig5ztz3tv2lAETTHLhvRm0UKlUkl1n3JwIVYfhD6MT2gKoKnDr1i32+uuvJ2XuYIQWCgWET7/faDQ+ZIwtUxceCE3O+Secc0RcvFitVssfffRRErIOJ8wjjzzCEKqIRdEnn3zCzp8/nzgDED2AywgHTRAElznn2Ml+CLsle6BNthNHPSy1oAwty7IdxznVbDZ/KoT4IWPslBDC7nQRRBoOxFaT7l+ccxhHZxlj/0FKOVYoFP5VSvm5DrPGDqqUEmHQkdLFIIgdJ293RDsDfN+3fN+fjqLoWc75z5rN5t8LIc66ruvCWY5+jdB9dT8kN0RemH47zFQczjlS74pRFO3zPG+/ZVkFlWYp0042/XurqIO8aIEsgz6rpGj6eOnXt3OApI+bdki0igLI+h40txHdQnoCBHE/g3Cs9qQhYPwf8+a6lHJhcnJyYmpq6nAQBA5C1f/1X/81yQnbv3//Zs17lMFjaoLmnH/GGPv/GGMf0HUdHFEUnY+i6FeWZe0fHx//5vr6uv3GG28wOAaQ03js2LFEu+HatWvs5s2byefiGi0vL9fX19cvBUHwhW3bx7E20aEoGvLkt2SMMXaUMYYIgDJjDOkXV6Moqtbr9YOO43ydMfYcsjW6PTAtmIitJlVJBP8cYIw9C22XjY2Ntxhji4wxlI05YVmWa1kWnLhX1fNUl5TYcXRIcXq8hCMgiqJiHMeIevkunOW+73+/Wq1OjY2NORDUhSPALKXZzgg3yXMS6JQAHaEAp4AQYkxK6Zk7Oa2iDbLoJC/fPEZWzn/W+ecZ9ixl0Lcz5vNSD8zzy/scgsgjS7eD+g0xyqTnpB1JGWBf1TzEBDdvWdZvPc+rhGH4sm3bx+CNh7E5Pz+f5MdhRxqaAcoRgPfOMcb+5Lruq9Vq9Tr16MHRbDYhzvh7z/Nm4zj2NjY2nkYe8MbGRnINLly4kEQDqJKPyaPRaNSFEK9EUfQKChBg0a/z3M0FBBmmubgqouIHjLHvcM4PCCHWLMv6d2TKCCEqURSV1esYOVr6gyImtg55v1Kti1QwxtgkY+wxxtgLnPO/55zDqDnvOM6voyj6o5RyYw82BbFLSY+nzWYTDqwzruv+0Lbt/y2O45koilw4CrBJgfEYaxSk1mltHdP4Ncl6rl3kgPE8xn/HsqwHnMI4B8zJeTv36XPI+ox2u/R5of95ooB5n9nKuZB13Lwoi6zzIog8SEiQIO5hCtu2Erjtlp5EBQ0wsa1KKX+7sLDQLJfL48Vi8ecIi8MEe+fOnSRUD+kEmGyDIJDNZvO6ZVm/LxaLv56Zmbm4tLRE2gGDJfre9773xeXLl3/VbDadMAy9SqVyplwuu0jVQPQGmJmZSa5JGIYry8vLf6nVav+XEOJtxthTUsqSznMnw7UtEF48yBh7XgjxU8bY31UqFXdiYgLVGry1tbWJ+fn5khBiXO2kPqAfQMZtd3TTXuQ8aE/O4r6pUrkczvkT09PThYmJiR9EUfSNarXK6/X6sTiOm1JKRAicVxExFClA7ChZzusgCMYnJiaeKpfL37VtexbOAKQz4gEnORzkeGhRJqj/Y/0yiPkO6yVEHsDYV6licKZNqJLP990vrYT90v9P08robmWE5xn/eZ+bNvLTx2nlOEhHGKS/O0F0C/UbYhTRTgA5gFKDJn2lDKjfLSFEo1qtIlT9/8A5NpvNf6jX60dQ6x4nqysKQJwKu6a2bf9yfHz83QsXLtDO0hbw2muvwSnw6fnz57GYL8MREwTBE41Gw4KDBiBiAM4cxtgrvu//30EQ/EkJOyKvERfZSqu60uD7IChXxTk/KYT4NlICbNseP3z4MDtz5gyiY569dOlSZWlpKRRCzCqjCQKctllpYCcdLXvdYKY+2zlG2BmU0TeklMjxqnie97dHjx49cPr06ccajUYZ6V9Xr15Fn39BlYvF626SMCyxk5h1mVNjarFUKp3bv3//mWKxaCNlDvMfhI/xwPqE3asEk7zPjBLoF4w/cAhAL6Ber1uNRuNAGIa4d2bMykqmlkCesd5rCkH6/a1271u9L+vc8lIpshwH7VIHCKJbqN8Qo462ya2dqjKgUQO+q3Om6/X624VCoeT7/mqz2XxU7YoWgyCAQbRYLpcvViqVP05OTr5FzoCt5bXXXmueOHHi47W1Ncf3/WU4BKIoOqQUxMN6ve4LIb5E2G+9Xn9V7QhWdFg7I+GWjkD/l1Ii3xrFrvdh8Xfo0CH29NNP42/7FhcXx8fHx+thGMZBEERBEMSqlNvm4XfSaCWDmWBGP1A7pNK2bTgGbc/zDo6Nje0/fPjwvieeeAJjO/RG2JUrVzCOnLYsC8rpf2WM3SWHALGT5I2pnHO3Uqk8tG/fvoOlUonDIQDjH69HlABEj+EUQN+HwxwCg0ilG0Ruu86zh0AvIvbW19ePq7URospWOOeROsfMnZ52aQtpoz79OpZjjGe9p1VkAMtxDKSPlaezkHU+WcciiDxoPUoQX5GuMjCIcbQvh4AxUW3eqSsrKwg7/5wxhrC4WSVEVYui6CYE1pBbfeHChXq/J0605/r1682HHnro/cXFxS+CIMD1OKyuCzQDVur1Onb2lpQzQF/HTAuRDMdssNBTquxwfqHEIJuYmGCIEoiiiE9OThZRacOyrKDRaPCFhQWual0P49fpmrwIg1YhqcTwYV4vx3HQj0txHEMV3apUKpMHDhwoHD9+PBEkhQibuq4TnPMZy7JKqKZBl5UYFkzj1nVdp1QqTcIzC2Mfz8OxBX0jPDBmI0UAegJ4HhECeD7PADEN9zxD3vw7Pk+JCsIpUA7D8Gwcx0ds276GSBxd4pBljJt5goDpcTf997zc/k5IHzeLdsfL01nIey05BYh2pCtyUJ8hRpX0nDOodXZPDoFWXmm1SzSnHqCkDE6EzDE8iO3j6tWrTdX+88pRU1Ch61kkvSprIUSDbz6WZQmdD6pzUAuFAn7Gnuf5nudFrusifxR6A0nj5qlMpxm2kP6shWgW5AjYfehri9IxnPMSIlnQh9GXx8fHg/HxcU9KyWEsqbxoOAFsvJ4En4hhIcNgQDmkIr8HMx+6ugAiA+AU0FEDGMO3YkcSVZiiKELFmX3KiVy3LOsB7Y30ONtO3Lfd/Nzu71ttlHfy+QTRCjNvmhnRNwQxaqTnJn1P7IioYJc3IoWRDhd5zoBNaHHfOVhMwiBCDWuWWtigHbErFIahrTQZMiMw8hZ+6b8NAzQBDy+9Oo8MR8Dmc9CGQfdWedkS/Rivw++6OgmMG5Uy49zrGrTTR+w8WaHt4h5MP9SOffI33ae1UwACg3AKaMdBt+RFDejnhRA4qUilC8i0MFReTj5LRT5kfMe2EQvDCoWDE+3QtgfLcA4QxCiSXu/tmIZAmygBYhejOxU5BjonbdSj7aIosur1ul2r1Th2nFDmSrdpuvSghgzu3c1ORnS0yjXOI08UTBkulu/7fH19HdFdvNlsWuaiTFXMcJRDbPMcaF4gdpoMwTqhnQEyVVIwrdisnzfnv27SBNKv08eHswH6PYyxN1B62XXdOrQ68oz9PPJEAfF/ODPM3036vTc7rXjQ7THJGUB0C61NiVHGnFdMtj1CwFQ0JONlb5MXlkLkYy40dXRAo9GQyE1VFR4s7Qyg9tybDEuaR6fnYOYfG++xoIGhy6bBIaAMmvQivmXEi4b6OjFI2qUqZajZi6wwfHN3Hv0c6TH4qaMGeiVrwYZqP2EYQkfpfc75HOe86TiOZMaYoR0S6fsl6/7RrzMjHlR5w/ucFqZjoltHRtbPTt6Tfr7VZ8FZThAEQXSHjtocFH1FCDDaESKI+8gQg5Kcc2HbNoTauC772E7xmdid7HYnaaovSvVIggDMP6QFntpB8wQxKFr1uXR+sdHnpPk+w2mrd+6Z0spIRDMhPgjHQLrPpg39LKM7/Tp1HoiyqaESU71e/wyivo7jxOb55JXgy3MQaAcCzh8OZ/zU38VMd2jlDOjkNd28Jyu6MO+4+v24BtAlIYh2/S7r3iCIUcOcWwZ5H/SkIcByPPHE3oLCsjrGSu+U4r7AgtLzvLhcLseu61rIuVZh17lVBoZNRHCv00t7b+U12u7rn1Yn18CJhb7ruq6YnJyEkYQShDYMj7Qzq9M5gJwCRL+0ujfMNKw8h2va6DbnODgBZmZmkkelUkkiBMwIgqz+m/68dFUAMx1hfX09Wl1drS4tLS01Go2NdLRCFllh+qYzw9RCwPmWSiULcw3mnmEk5YiBNonUaRwE0QpajxLEV2zF/dBX2UFib5JXz5kM1QdRCxm9k7oJFoKFQkGUSiUBhwCiA5SY1GaIqIbaeOfopb3zQuIHce12Wn9A92c4BFBhoFwui0qlgtKDvFAoSOhimLuu6X5PEDtJ1n2YNb6az8E4xXiNXWo4BeAMmJqaus8hkKXPkT4OMz7fTMFRu+CJ6CZ0ZIrFYiMIAtFqQdeJroAZ3TA5OWnPzs4enp6efnhqaspzXZenhGyHYmJRkUb47lGj0Wiurq7O3b17d25lZSXs4O0EkUCigsQok6dv0y89awgQexfzGtOA2xq1u5EscPQLsTuDvEgs2PB/Jc6WKFdnhVrvZBtTRMJg2K1tmN7FTGGpfGrpuq70PE82GveKxihDBFZOiKqDNE4Qw0Jevj3LiBDIIiPtK7P6i3msVuO54TxIgLBglnChedy8qADzmJhfICJYLBbt/fv3P37u3Ln/9dFHH33x8OHDlWKxWJBSFoQQZVXe0GE5DoZ2KRitziHdFi2Ohy/agG7CPV9GHK+trTWvXbv2+ocffvi/12q1v+jSvQSRB+nTEMT9NlpWKk2v9B0hQGGge5v0ooh4ACnvNUzSOFikwWhaXV3FH6DMjt+bvu9H9XrdVYszbpnqbTtoTJIzYLTJWuQrIyUSQtTDMBS+7xfX19edlZUVXqvVTMcWdvV8KWWU1hjIg8YRole60atgbRwDeYaF3nU31fpNMc3069Mh/em/GRECSYg8jgXvsX5PlnBvlp5A1mdoh8DY2NjE9PT08ydOnPjx2bNnnzlx4kSjVCrBuOZxHMMxkJs/kHc/5jk40s6BvLVBxvvxRMmyrALGCkRMrKxARsEp3Lx586rjOB8xxqp550kQrfowQYwqWRouvdKThkAnXnZi95K3a0EDbyZSGUbY+UgWj3fu3GGffPJJsrO6tLRUC4JgPgiCWhRF2K05whhzVZ33BLqPto5B9Nu93PdNw0R7mmG41Ouz5rq0AAAgAElEQVR1KKAvIXWAcz598+bN8sWLFy04A5aXl/UYsSGlXMXOH6JkOv1McgoQ3dLt/Ze3m533e94xOnGGm7v6rSIHlLChyBIlTJ9bluGddUwl2Odxzsue501AGNHzvKLneZHWsZFSxqzNfdetJlQrR0KryAHMiezePGn9/+zdSZAcyXkv+M8jcq+9sC/sJtF7N9lsstnNkSjS+EZDe2Ya2RubMUlz0Ek6aC4660oeZTropDt1mHmnGWlMRs6b0WieSEpNsslugr03GkADaCwF1IKqrKpcY/GxLxGOdjg8IiMjs3KL/8+sgFpyiYzMiHD//PPPa7Uab2utUChwkBxLDUBqqCcAED91LatMGQIYNZ5vqsFipqLgvbbi0dEtIcRHQRB8sdvtnr1582aRU6lLpdLdzc3Na0EQ7IVhyA2eM3wtMyuEToN57fTO8rz+cbB1nFS18iAIOEugzp/fW7du8Wf4VKvVWtnY2BDRaN6lMAw/IqKdKCiWGorSQhqDHHuqk2AWuhzFuS3u/vpjx7WLjNHyXhE9fXUC2/PYMgMsnWv1GIJH3KOitb06BY7j9DrYZnZD3PSGpI583GsbdOpBtK29bAXObuBsI97WaBsxFxX6SspEAcgTWxFdNWCfNWCWqYaAcWGQmPs1N4Lo69G1x0YchZozXB3qUyHE/8vHUxiG39rb21vvdDq75XL57U6n8zFnBkgpv0ZEJ4ioZu7XaYD3Nr9i3nv+zK75vn+31Wq9v7m56R8cHLzQbre/cnh4WJRSXiWifyGiN4joNh8HWXYggsoQZ5hzUlKhVtsoOxkBBUVvWNmug2YwwPx9XDalWorPbLjF1SqwZTio+0aNQBVo6KXj63+zmWQAWETLJaovbUoBQCy9A4SiggD24uR6sHhQmZcd1C40PDJ0MO3vDc/n5mK80Y+TzDdyojm3LSGEn+L248Tv4yE37nGiTc0LguAuEf1bFEjpttvtMzxNgDtLQohPXdd9OgoIrPM8SsLKAjBFLB0OPleWo+DVfhAEv75///4dIrrBUwTCMOTP8IdE9F+J6J3ovJH5QzzKbIFBj6VhnxPPN9rny/Kcim20XX22bSn35vPoa/fbOuDm7W01A+KeI+41xWUIkBFkMKcQJG1LGpMMBhjQ0IBUbMEzgLxTgTKpFYjOKvOUAf7itC8p5RIRPU1E29P6vnzve98r/d3f/d0Xnn/++VMXLlyg06dPBzy3jr/UGr7DSKrEq6jn2t7edm/cuOFdvXp1/8/+7M92fvjDH/Ic3GkJDCwT0YVWq7XKcxF5tEGgt9qPuipx2vSviKhJRGucak1El4nofhiGhXK5fM/3fQ62VHjVAVzMskEti9FSFxHLPuVA77bjODeCIPgkDEPOCNgioltRsICzAj6IAog0iob9rGULzMLncNz7dNjnG+U+HaRYnqKWGLQV9iPLtd7MGogruBe3T+I6OXH7UX9MfWrfrIjbD7geQhp6arQ6TgHySB0Del2/YWWaMsDr8/KyahEOBvwvRPQ/TuN7sry8TFeuXHH/5m/+ZuWrX/3qwp/+6Z/Sd77zHbm4uNh7LWqOXZy4OXN95gk+chv+n9c35jlzH374ofjRj34UvPHGG52PPvqoFRWjm5YKKSVOa280GmdWV1dFlClQnoLtmgX8HnKmAAd43GjqRadSqQTVavVWo9HgkdRzRPSK4zjH9dczqcbQLHau0QAYLb3zojW2+Jt7RPRrIcTFYrF42/d9DmxxJsD1KBtAFdIc6Yc3a4cy6+diljrM4/zsT+I4G/Y5VQOJLB33uOuzft+kv9tG6PvdTr9t2tdmCyDE1SYwzUKn2vY+IMgLg1JTlxFIgjzi65VtucFhi20OGhDozU3jzi2PtK+srNDi4uJpKeXpx25opIEO0hCKu6jH3d/2N73WAVfFvnHjBi0tLVG9Xu8FMxYWFh5mOYwDPyc/f7PZpKtXr9Lly5d7z/riiy/S6urqI4GJNK/VFpAYZP8mPf7p06fby8vLh++880632WyW4+ZBwmP4w9TQfxktDXXXcRyea10hIg4GrAkhYpeCGpdJNcLQAJw+xvvB9QCuOo7z02KxyFkv27zyQPT7TLUC0sp6jsn6mRrmnDYLn+Nh9idNaMrAMOLaG7bOpz7aGDfKrub6k2VfxD2HGTywDRyoUZ24NaT7ZTLYDBpsmvTnt990CgCduToHPjeQV/p1SWV4juJ4GDQg0CtcUyqV6Ny5c/Tyyy/Tq6++OpWROk5573Q69PHHH9PPfvaz3s5TnX/efk7hpzGn23FQgPfT/v5+L1vgiSeeoD/4gz/oBQV4W/tlKxw19YFaWFgQe3t78ubNm1KtOY6Tbza8TrTv+42FhYWPohoW3yGiF6IsgrkQ17CM+/00fJYQlHggZrpTh6cESCnfKxaL1z3P60x4MyEHjvKYHOQ8pI/Sm1kHZBmwsP0t6XWoWgWqPRJXi4CM4zOOCi4Muv8mcf6LC5QA9GNbbx3XcABrHahM0gYEZLRcWsDppLdu3aJf/epXdP78+V7nWt+YpLR6Mi6maX5PfSLuFHNB5c53t9vtdb75wsu/43VveTSeMxsmZW1tjdbX1zmzohcA2N7epjt37vS2NarJ8FgWQFw2QL99pu+TuPfDvG2kfOfOnRObm5sPR08mHayYZbx/OSgQ1dlojCrNeho6tbY5s8o0X6zRkHggZj/0Ml2EEHue57Vx7MOsM697+s/moICtU07G9bPfuS4m0PYwyGC7D1mu7ea2mvdR12dh1D2YVrOwjTCdzAwBQlAJcm7U7dhBAgLdQqHQ4aAABwTu3bvHB6iMCuJ1zaUH9TQ89X1Sap75N/M+enqEuYavbU1fdeHhqQHc0VYXTb4tp+3ztAfrC42J0Nv+RgkX/qTHO3bsWC8ocffuXfqHf/gHqlQqqdIXzf2iS9qv+n4zb2eLuvJmdjodzg4oPfHEExXXdZ1xTa2YR7yP2+22GxVj6x1zo+g4D3syGEVAYVIBgGkLhkzDYw37GFrjih/EDcOw1Gw2HSwrC7PCFiRPM+puWwLQNtpvC8bbvle301ctsB2b+nOq9klcp1kPTKjb6tdz9RzTHOxMel0Ag36WENgHeEA/FrLWEhgoIBCGIQcFQp4Lz5kBW1tbrcPDQ640/TMiujmN78vOzg4dP378YdaAmi4QF3WPmydoRuDNCz/FBAfMx+OpDBwM4GwFzgpQWQxTRkTz3X/XcZzfdV33WPSacPYdTjFa0m0qGkGz/HZOw7aPchtG8VhZH0May9VIKUU0pSXTKjQAk6DXDbJ9xknrTJvnX33JQX3KAFmu60kDAHFsAQjbNtraHzZJmZTTzmwboVkBadgGrxBMgjwyM2TMgHfWqfCDNPgC3/eDUqkkT5061ZsucPPmzfbFixd5Per/TES/mcb3hXccp76zN998k/7oj/5o4ts0Ixb4PXcc5yUp5THCyRdyIm8jD7YpSZPcFspwrhk2y2Zcz5fVrLy+Se5PvZGUJp1/kO3plwlgy0CImxKg387G9ly212Rr9E37eQudfxiG7bhGuxTyRg9gm8sOquyxLAYJI/AzSt4INdJeLBZ5nXrPrKwOc4Hf07bjOOG0pyHC5A17UdZH447CIKmq4/6sT0uDZpqO8XmuPzHo+XSS2SOzKM1r1TvYqvGUNOqiZw0kZRHGPZdOb8z1q18gjDpC5nnSNtVh2jtISfUcAOLYVuRA2xTySD/v27JlxpEhIKKvXoG5qHq6iNauX8Kncu7we8qFFhxcsPMty4jaoI46fbTfaN0k9duOo85YsEwZSHW/ox6hGef7M4nPwqxkGUz7cyl6w8isIaAzty2u8dTvfmRkAyRlBqQNeKZN+1fPYb7mNFkHk2aeN9Chg0HpK2sA5I25ysaoAmNDr7mHk/n8w3uc3jzuq0Hmsc6jYV7nKPZRmjTjrJI6Tkn4gsS1WHBugFmid0L1UXYlbXBAsU0jMG8fd4z0S+20TUvoF4RLeq5RG/G5CD07SE0VCSdkmEBOqYwZPTg27DL6QwcEcDDOP0Ri04mb1zmv8tIZHOZ1jnofHeXjpX1s/ozzlLFZKWIG+RDXuY7rtCu21Yz0v5ElKJdmpJ9iRsHTBCDMqQJJdT6yLjs47LGb5Vxk2XdSShkiIABZISgNeaX3OYapHaAM3HsZ9gkB5tmg6dYAk2Sbn6zqxcQ10qW2ljrAtDM75bZztC0YoDewbNMH9DT9uIBBXADCPJ5s35vM57Adg+OuTTECvhBil+sVTcPGwPRSS3ICQHztm2EMHBAw1/oHgNQejoSYlaQnZdZGeDEiPVoJGQKxAQGKGTkFmKSk0faHH+qYufxxywDqqcn9Htt2f9ttbYEH28/CWNK4X42ANNs0aZa5rlyU+i4CAgAAwxn7lAH9YobG+fxDVDa9uMIe0cocPhE1eURE/X4ajp9Ze2/xWTwalsAALznaLhaLoe0iM8qoNMAo6G2TpLn0tvO0qvxvCwDELWNoW11An+vf73Hi2I4ps3iUnipqtslm5ZiMXlOHiG7y+WbyWwTTDtcbAHo4xW3Ux8NQGQKEBnou4CScTlJjrFgsVohokb81/zbOgk94LyGO9tngk3yNP6/lcrmYlPaM8z9MG1tHXel3/rMFFcxMrrjR+LisL9tygeb3Nra/2zIF9CDGUR2PR3HdSLvyAoBylAV2AWaR3icfew0BSrjAAeSdJf3TcRxn3ff9LxPR7xDRGSJyj3o3jbPaNKQzredKy3bxUrJfCMPw1TAMnxZCVM3PDWoIwDTqV4TPVmBQn4tpjrroFZxtqfxKXI0BMjLHzEyDuOMoKdPAtt1HfW4Z5XXDrK+AaxKkgcFIgAfipgZMZMpAXGo0zJ9xjD7MCd45jpSSO/uFqNPvCCFKhULh2TAM/xMR/Q9E9BT/Pc0SUvMub697Fo4f3kbXdTkg8DQR/Uci+m8rlcp5l9cYfHC96H2+Hcdxo888wFSxpeonjdCrRpQqLGhbISBp1QD9NmmKAuqNtqQG3CCZBWmuJRi8gVmmB77U92iTQl6pa5UtqJx1wKYw6B3MooJYemr+IRskFZ4ScIqITkbp1jwn8lYYhq1ut3vKdd2Xiehr0e1EnpdyNNfUniXT0Ajptw3mcmWDPFb0mXSiz/LXfN+/R0TvhWF4QETLRHQ6CgTwzzeIaDcqlgkwUWp03zy3xp1r9N9xAypNXQxbhgHFBApsUw2klEJ/nn4FBpO2RQ9k9Lut7bEnBZ04yMIMpKHvAXnVb+narJkCAwcEdHnu1OQRLuSxuC7AE1LK7wghfi8KCnSJ6KdE9Bsp5XIYhlUiqtoeYJz7dRo6tLP8OZqGbe+3DYNk9MQVP4uCAothGK47jnNeCLFARK8S0Td5GkwQBFeEEP8XEf0sKpYJMJVs7RS9M6GmCthSkvl3QRCkOm+a0wTM4zEKpAm9/oZtCcKkmgX9nn+WAq0YaIBB6Nk7yBCAPLPVDdCzBcaWIYC5o/liS6GER3D6/wkiel1K+Z+EEN9eWVlZWFlZ8Uul0lq9Xl/f2dlxgyCoREsrlY8q1TptoxVGtz8nIa6yedZtjwns8nJgrSAIFguFwiurq6uVpaWlb3me91K9XqdGo/HlMAw9KeU2EX0YVQtHpXCYmLhVBpKmEJBl5JFnx5gda/02ajlCsmQ72VYv0DrqPWRZQ9rcPn3b9SCDeZz2u/80sgVnAPrR63ukzYoBmFfqeLAdC2PLEMCBmC/6SRgX7sc5jlNxHOdJKeXvBUHwTcdxVs6dO0cvvfRSoVgsfuWjjz6q1ev1lud5x6WU7WgO9mMrDYzCKN6fcXeCpznKP637M67IGFk6KGnpnSTHcaQQgj+rbSHEmuM43/zCF75w7Lnnnvtip9Mpvf/++3T16tUvBEHwu0R0m4jqPD2GAwgjfaEAAzA77bbvyciK6TfA0W++flxtgZj2Ef9SqoyEfs9tBgDirsP63OpxtctGcV5DewKywOcG8k6f4jZKmacMoLBgfuC9juc4Di/LdlpK+QIRneDRpdOnT9Mrr7zCqabLm5ubL1YqlVapVAq73a7sdrthGIbcKHy4Q6cpuDbu93neP1ezsD/10U3+/LquKwuFAn9OnWKxeGxhYWHx7Nmzyy+//HKl0+nQxsYGXblyhe/yJSHEy0KIt6WUm1JKBARgYvRsNooZUVe/Ux1afS1//uLpAb7vP/Kzmutv6/zrgTQ9ZVP/W6FQoOic3wjD8BZn1ajb2aYpmKskxE0hUIEF87WO45yT9TkwkARZqWPQtnoIQN7oBd+VYVcZyDRlACf1/MD7nYyLRAkheBrAEt+QG3+Li4t07Ngxbkw6CwsLxaWlJW79+e1229nZ2eEjVsSltw7wvGO/GMY9J7IKjt6gr3nQKQMqEygKCvBnuug4zkK5XJbLy8u1EydOlE6dOiUajQbVajV110UhxIrruhUppcMdKYBpOmYoYZUA87rmeR5xwIu/Wq1WLxigAgL6Y5qd9qRCg1FtAun7frPVal1tt9vveJ7HWTXS1qCzbTsZHWkVeFBZBvqxO+pCa+PIcAJIy/xso20KeWTL1B/FeTXTlAHMKc8PVHPtLxppktx45P1VLBZ7X67r+pVKpVupVPxCocAHTcF13d6RnJTSmvY5xy3uOadpFHxegwWDvqYsUwbUfRzHEYVCgae11MrlcsABgMXFRa9arYput+twFkFUbM1Ryw/i/ADTIG7+fVyxP3V94441BwQ44MVB3Xa73TuH69kBtpH7NJX9hRChlPLewcHBb/f39z9qt9tdvp86juKmOpjbbcsQIEtmxCiNOgBsBkwA0rIF0BBcgjyyTRkYxfl0qFUGKOVFEWYXikgOxmzw+L4vuOPEgQBOweaMApqhC9k4OtijfA40EAYTs+/lg/aX07s+eJ4n+Et1PLjDxJ0Zz/OKUspSVBcDOx6mQtyouu17/hwrHBDggpkqGMB/05cIHKRzrHfkHccJwjC81u123+90Ovd4+kCpVHqsg9OvmKAtmGHedxxtMVuRxkGykQAAYHgqmK2yw4btrw0dEID5h+WB+pLR1yM8z3Pa7bZ7cHAgOA2bf561fTjN81FhNPs+pkaI4GBWp9PpfX4PDw/5s/ywIxJ1RtxolY2Z+1zDfEoawdfn+9s+rypLQP2v/14vAmjO09R/r8/r129CRJ96nvcZF94UQjz25HH1Dshy/dVvq47FSZ5Dcf6GccDgFMDj9MLvw8q87CA6ifmR0GkAg35ccOFATrHudDpqqamHGQLDFv/Ig1lN/5+DaQu88TwFxuG51DyFoNlsPqwRoL02gekCME2SPou2Y1LvzPMXT4+pVCqkRvBt7Zy4wmZxI/pCCK7Q+U3P8zba7fZ2EAS7vEQnH08qCyFp1N2WRaB+N2udpHEXP4T5ok+XwecH8sqcakaTmjKgV7WFfFAjK2j492dpDPIxo1ptuY0CZOkkmw3hWTnnzNq50VZ8LWpw8WoDMlqG0OFKg+YoaR4LPML0igtcm9cvvROvfs+BgPX1dVpbW6OFhYXetAG9qG5cGn+/4IDrum4QBC82m83D3d3dnf39/Y1ms7kRBEGv7gxPwSEtw8DcbtsUCFXbwCwuNe2Be9vrQbsC0sK1BuBz6jowKpgyAIn0dEScjGMJfQ61tr94rigXZQt4xIlXGWg2m/wnJwiCx24/z7K+Rr169lHLc+dWDwRE1dE5GBCUy+VweXlZLCwsBFwYk2sJoAEP06pfsVazOJ8qzsTXuXK53FshhoMCKysrvY66GQy3jeTrj23+Lrp+ciCtUK/Xn/U87+vtdvuNdru9Edf5t3WUbcEHPYBgC3AQAnYwR0aZGg0wy/Tz/iizjYeeMgDzD+91X4/UEOADlFNBecm2SqUSVioVDgxwcUEygweQbJyN2WGea9DCWtPWSNerqatVM1zX5c9vsLi4KJaWlgR/jvV12W11MwAmJWlFHFtRQW1Vjcd+r3+ZS8Tajl9zXr/+e9VxF0JUhBC8PG2ZYq6rcRkIttelrzJge522n49S2vNaXK0EgEGhbQp5ZMsmG8V5NNOUAUSd8wX1A+JFo0tSShmoG/G+4owADgoUi0UuzMYF2Xg+tqOCAXHVpY/KsMcsjvlkg+ybadyP+jEe/c+ZADyy2fuBgwP8meY12vnvUT2BQAjhcSYMGmYwabYGkj7Cb46+m59Z/pkDXlxQsNvtPvx7FMh9eJtBj3W+DvDx4vt+GASBz6sMUMx5QN/muOCGzaxM60MNAchKP74xdRkgOaicRaYMATPajsZgPuB9flw0WspXql6rkRuPPC1gZ2eHf+QpAmG73W42Gg0/CIJSGIYLjuOU9eWujuqiFleYKouk+yNYMF/44+w/6PE3XdcNDw8PS3t7e+WdnR2XiwzyV3Qu4FLsbSLq2iqnA4xb3Jx7JW6EnyzZj3rnnLSgWdxz2Eb1jduEUsowWnWgb2NOf6y4KQOkZUZMempf2udNen8A4thSo/EZgrxTffJoqudQ5//MGQIoCJMPWOqlL27kdYmowd/zqgJ37tyhixcv8hxUb3t7+34QBHe73W6LiDhd9AtEVNQLDB7VMTSuhiGCAbNNf//4eO90OqHnedzR33Mcx2s0GoufffZZYWVlpcgjp1tbWxz44g9tXUq5HYZhQ8+QAZgEs8CeoneWs7Rb+qXh9xsg0f7+yNSyQdPrbdusp47OQpsM7UUYBbRLIc9U3Rs1JW1Ug3KZMwT0aDRO8vMNKX6JPO4UEdFlIno6CIKzt27dcjzP86vV6mf379+/Eobhtuu6pSAIzhERj7xKTMOAaWAWbYyyA1SH3/c8b6fZbG7euXNnyff9c91ud31zc5Nvuk9EH4dh+DER7USfa4CJSeokmKP8cedecxQyrmaSORpvy8bq10jTK0QntaPMNHv1syqIOCrI9AIAmA2qALSeITCszKsMIAiQD1gvvy8OCNwgon/lYlG83vTu7u5Sp9PZLpfLb3me94nv+wtE9AoRnSWiBVVHAMcQTAPL3GP+fNaIaC0Igjvtdvvi9vZ2q9lsvthut796cHDAn/NrRPRTIvolEd2Npg8ATIytOKCZ/k8J511boaZHDgrLVIC4NP0053bbygC2dHrb9AM1MmRbjzqrcQQDbMUdAQaFdinkmX7eH+XqG5mmDBBO5rlizqWER3hRh+jfokJsXc/zju3v798SQrxBRJ85jvOCEOJ1IjqhAgJoGH0OI1OTY+vQuK7LP5Siauj7vu+/tbu7+9ne3t5NKeWhlJKnvnwSfebfj7IFkMMJE9VvtNzs0JtTZWzLAHJ7hzNmbPexrQBgyxLQb2+e5/T5/7bAgL4ttp/VdpuZPtMK53oAgNHRs8yGzRgbetlBdBLnm2psEDqucWRUUJCDAhwA2COiZSnljpSSO011XoO6UChwFsELWkfroVk/hoZt5I3yczXNDc5xb1ua57MVQYtwzQv+zH5IRB+EYXiViLaIaIOIqtH/H0Sfd4CpYbZNkjraim3EkW/LRWLNjIC4oIKtqKCZBWCe6+OmJPQLMKif1UjRrBTqS5OpAWBjC9ihTQp5pALBKlOMRnQ+zTxlAAdiPiAjJDU+Gu9wAIAHWaM51c3l5eWwVqtd397e/jkRrRLRt4UQ5zhFYF727TRtf1IV8Ukb9zaleT5hrLnOq19EawhucIZLqVT6ZbfbvRWG4SERfRoFvviD24mCBgBTw/aZ139nCxKoAk1Jachpzylmhzdr5X/bNpu/Ux2kWSqwhk4cZGUen6hfBnmlrldmBpqS9ZqQOSBgbgDMN5x4U+Gj8EC/4dLSEp08eXJ7a2vrTSJaJKKniOhMFDSYOvPQYJuV7Z+2fc3BgGh7eBrMZ5zx4jjOb6Mgl/p9PflRACbHtgygzjZ6r+iplyZbCr+tloDtmNaXDdRHdCghM0F/LGEsPWjed9bmU6MtAVnonRysMgBgDxwPY6iigjixzz+ceIfn+37Xdd3bQRBcIqJNKaXf7XZdnptaKpUeadDpKaSjGu3O8hiD3N7cVvP5kp6/XypvXAN70G0c9eP1e01pRxOTbj/o7+PuE/e+qM6J+h1/HqMVBnj0/46U8qrjOBtTuIKAG027KUTb1s2wjTx152T0GPejQB4uaHPATJ+PK9CnmB10/fb8M08bSBrtjzvn6bdNO5qZtO1x22+7/zCOMlCJUV0YJQxKQl7p07lJa8/REEFiTBmAvvBeZ8eNyahB2Y06Hjvc4drb2yvfv3+fyuVyLyiglnuLCwLEVaFO6ohTTNTQ1llPul3cKJv5/Obzxj1PUqPQ9py2+yVtc9y+6bfttvSruOeLu6/5+P32xSDbb3ts/TGTHsv2+0Kh0PtirVaLdnZ26P79+9L3/XpUI2A3DMNxBAMc7UsJoi+bsrZiBxc03DYzc1LggMATRHQseq3XouUTp5nQviQZ69pr0t5u7sRlBVCfwnwqBTMuAJ50XCf9T5Zj1Rzp7NdBjjuOjypYP2ygM+3jj3p0CwAgj0YVaM20yoA0ivTgZD6/sLzLcLa2tnodLd/3+SDpuK57y/f9W7dv337m8uXLRd6/KysrvXRtvVq0LUWUYhq1ccdiUqfa1plNSrc1b292UG2PmRRQsEkKetheqylulE5/flWIxfY6krZXv1/c6zW3S7+PeX/zZ3OfkSWF2fbeDhKsUT+rx+VAFX/veR5tbGzQJ598wv8fep531XXdz4IgaHGgYBTn9z6PEQ64SkGTiK4MuUlcE+HnQz7GuKXt2M9MAGCUwWb9WhU3Wq+f/2z3i9sm2/Edd65J6uiaP+sZOra/2wKR+v96RtlRt8OOcmAAgw4wiFEutQYwD8SkVhkQWhEqHJTzTf+A4b0enMoQiBroe+Vy+Zee561fu3at4DjOMzdu3BCnT5+mtbU1Wl1dpeXlZapUKo88j9QqVOvvh944FMac2LiRe0rZQY8bkbJ1ZPXHMbfD9jxpAh1JI+/6/rA11Ip04FQAACAASURBVM2lvNJkMSQFQ8zHN587LhgitBSutNkIcZkIcfuS34+kSujml9Jut2l/f58zAmh7e5tu3bpF165dC27evHm52+3+tFgsvhUEwb7EQQ8zQh9ttx1fZBybZgPK7FzHdc7jOulknAtsbSTztmkacHHnMT2rQT/vTnPnelRZBgD4HEFe2VbcGIWhigraLo4wX1QkFiffofERfN/zvF/s7e0FV65ccW/fvi2XlpZOnjx5snT+/PnSk08+WTxz5kwvKMAZAzyFgGIO9rhGpq2ha7tdv065rRNtG+3SM4b0hmrc7ZNG/83ntm23flvb9unbYMtksIkLPvQLYMTtr7iRedvrJksn3rbvzH1hjnTashhs9+MpApwRcHh4SHfu3OEggH/9+vXOvXv3Ou12+3az2fxJs9n8Z9/334tWEcDJHWaSfozYjkVKyIBTx3EUzO0bmNOPfTLOGf3umyQpqGs7x48jU2BU0G6EQcQdq/gcQd7YVihT7fFhZJoyQEajHOZb0mgzDKTred7O3t7erw4ODoSU8q7jOBcWFxePnT179vhnn312+sSJEydrtVqZO256yjgHCIrF4iMdXfWeqLRvlQJOj3YcQyGE1OYTPzxuY0a8nOi2jxzffBt+fq53YDa0VeNUbYNtVD/ahrBfZoCxnY6UUujby9vA+8Y8IeoN5Kgw3sPfaftC8v6IHks8uFvy51pK+dg2kDY6p96ThxuvBQS63W5vn+jvif6+qKcwH1vbJ/qGOWYgxNwftiCL+blQgaZms9ne2traunHjxsatW7fuNZvNLSHEp47j/DIIgnfDMBx0Tj7ARJnHoX5uSdNOsTWyVFFB8/fmOSPp56RAX78GnBlUsJ2r4qZKTCO0ISCruFFRfKYgr5IGzrJAUUFIFJeGCdlJKXd93+f5y1eCIDi3u7t7ttPpfGFnZ+fLpVLpv3Fd90uu6/ZaeVGnUy4sLFCtVhPc+dNTxPn94Y5no9HoFYbjDmDUQGxzUTjXdQ/MjnjMiLSMflcMgqDKSyQKIRaDIOgtj1gqlXrbwF/lclmoDjc/l+pk7u/vy8PDQ9HpdFS6vIwqwO+7rrsvhOg8eBohKOaCHm1Tb3PCMOSicatBEPByjYKfi6dTLCwsSC7GWCgUHt5RC4zIZrMp1L6IGhHScZxDIcSO67qt6LU6ZjDEEsCQQRCUgyBYIaLlqBBdT7Va7S0pWavVeq/fHEnk7Tg4OOD3RPB2RO8l74u6EOIw+l5anvex9ycIAn5DS1LKxTAMeVt6tScKhYL6XPBnROhZAtH9eF/wZ6P3nlAUEAge+Kzdbv96f3//YrPZvB4V1rsXBMFWNL8eYGbZps5Qn865fg5S4kbhzWM1zd9sj2M+vrlt/bKgkrZ9GqENAcMwg3L4PEFeqfO/avOlnYKWZKgpAzD/9KJHCAKNDB+1e9HXDSI60Ww2TzabzXtRp3PRcZyTUedZLi4utk+cOMEduZLrui53MDkwEHXuwt3dXbm7u0sHBwcuBwciG1HRtJtakbGkN1BdWfmcsEREzxDR16Iq7GGpVGqvr6/LlZWVUq1W4/oH3GvvbQN3zn3fD/f29vyNjQ2n2WwWosfjlPOPo687UZDCSbEdMrrdaSJ6lYhe4E4wf/7K5XK4urrqr6+vi2q16oZh2Dsr8kg576tmsxlsbW2Jvb09p9vtiugEydvxIRG9E1WkD1NuB9+uRkRPEtFXiOhL/FT8x8XFxeDcuXP8+nsBEw5AqOBIu93u7Yt6vR40Gg1eXlIFEjaJ6M2oor0fPX6a98SJnveLRPRNIjrH961UKm2eXrK2ttZ7TzhAomUCcDAj2NnZ6W5ubhaazWZvG6JgC78Xvyaifyai3xLRXW2/AMwkMxNn0AyBuBFIM3DZL1PAfK6k66fZqU8KIpjZAqqmy6wuDYz2BAwChQQBHjfKad2ZAwK2UTWYP2mWRYKhdLQOGVdP59HwtTAMv05EK1LKThiGh+Vy2anVag6P2PNoPHeAa7Wa7HQ63FnvOo7jR6PUy1EH+F0i+kcieo8eXc6tHzcKCPxutC38PY/s3wnDkJd7W3ccZ4mfn6I56TxCzR+VRqPR5FHraBv4OT8jop8Q0X+NAh9enw6wojrsF6Kl53hU/EyUht/h0XfXdQuVSkVwpz8IAsFTGXg7pJSeEML3fb8chmEpCkJwRfp/I6L/m4hupwiO6NuxGAUkONOiEi1Vxx3u9uLiorO+vl5pt9u9LAA1faDT6UjP81qe5x2EYcjPdSp6vA+I6P+MOuPOgPPzeXu/ES21x/tXhmHIn5mKEGKlWCw6pVLJVUUGOauE90WpVDqI7rsSZRlwBsBFIvoZEf2SiK5rwQmAmWbW1tD1yw6wjbjrRfuSRuvNn83v9W3SpyYkZSDYtt2sf6C+pi19Oq6BasumQPsCAGAwtpWvhpUpIDBo5B1mGyL5R447ZL7jONeEEP8Wjf7ciEaCV33fX97d3T3W6XQcNS+dO8DVapV7vu7BwYF/cHBwQ0p548HbJTiw8BMp5S+jkflB3kARBQXaUSeSO50+ByUODw8vtNvtFZ66wM9PUaOU0/h5ZLzRaOyHYXg3miagghL/DxG9Fa0XP9DJQgjB89qXosc6EYYhp8yfqdfr5x3HWeE6DJ1Opzd9gYMB/MUj9Y1G48D3/avRiPyW4zi8jN4bQRD8ml/HgG8m74t7UeCmQUQv8n4JgmChXq+f8DyPAwK9KRscEOD9sL+/73CGgOd5NwuFAr8nNSkl1y7gTvgbUSc8y0HVFEKsCSHqjuNwFEbs7+8/6XneEk8L4OAMf3Z4f7iuy5+DsNVq7USBAzd6Tn7un7muy5+z62EYdlM8L8BME5ZVWEhbOYXo8WU+zduaHfJ+dQT03+t/01czGKYIlLnizDS1xfpNlaA+mRMAJnNFEFuQDCAvjiJjJlNAwLzAQT7gxHu0HMfpCCE+9n3/PhG97TjOs6VS6RuFQuG1g4ODs/V63VUXRTUyxIcjZwyEYbjhOM6/hWHIQYVd7uxFmQdy0I54NCr/CY9mO47zTqFQWJVSnvU871Sn0+lNS+DOJ2kjaFG6fMd13U8rlcoH3W73WhiG/BiXo6kRWewQ0b9HI/xLvEyj4zjf422p1+sl7gSrlRi4an5UU6Dg+363VCp9GATBT8Mw/IiDAlLKe1LK/QzbEEZBFc50uOU4zouFQuHLjuN8fWtra10VHOTtUIUgfd/nIIVTKBTuFwqFi2EY3vZ9vy6lvGJM4RjUTSHEj1zXvVosFjl74iXf9882Go0CB4vU80efEa65wB+QNgeaCoXC7SAI7ksp+f1413Gc25xBMKvpxgA2Zoc9KVtA0c9h5t/MZXf1Dki/qQH9OixxI+j9nkfdTp9Dis4R5IGthgD6IpA3cVPFxr7KABqQ+WMWZoKjER1bbSklp9rvVSqV0tra2ksLCwvVYrG4UCqVHH3taYremyAIioeHh7Xt7e3KwcHB7TAM34sKww3TOmxGI/y8EsI3yuXyS+vr66urq6sllRqvN0Q9z3MajcZCo9Hg1IF7vu//JgzDK9E0gUyixvztqEN+dnl5+dz6+nq5UqlUeQqFnjKrTpC+7xc8zytzGn+9Xt+p1+sfh2G4NeR5S0aZEgdCiKBarZ5aXFx0FxcXeVt6NRTISJPtdDrlRqOxsrOzs9hoNDaklDxXf3fI9yQMw/BTzlQol8tr1Wp1dX19fXl5ebnImQnmiGG32y3wNuzt7ZX39/c3giB4J6qlsIOOA8wrc1pAXMdb71Tr51S9o5FmlQFbZ1xYlh9Nw3Z72zQE0tpiZiBj2Oc7SjjvQFb6iKhtRRCAvNAGBB+Km4I2CBQVhFTiRlpgdLSDmQvonalWq88fP378mS9+8YunnnrqqeKZM2d61e31ZeTY/fv3Sx988MHTv/71r7nK/040oj6KZeOCMAx51YEXVlZWvvXqq69+6ZVXXimura09XGaQT0o8fYDT9y9dunTs4sWLzx0cHFyVUn4U1RDwR7CWPfe4n19aWvq9Z5999sWnnnpqkfcFV9jnUXHV8ObMhd3dXXH37t3la9euPf/JJ5+8Xq/XN6IMhcyBiYiI6gmcKpfLT54/f/7syy+/vPDMM8/0tiPK0uhNGeDt2d3dLf/2t799+s033wwODg44Q+GDEa3pz4UDl7vd7vOnT5/+6uuvv37qy1/+cmFxcbH3uVCZCvy1v79f+OCDD06//fbbz+3v71+TUr4TTX3A8QxzKW7VEF2/uet6J9nWwOpX9I8sQfS457KtMhDXsVd/MzMahplLOskOFc4/MAjblAGAvLIVwR17hoA5bwFpavMP2QFjtyCEeIWIvrWwsPDSl770pbXXXnuNnn322V5AgDviqsI/vy937txxm83m6XfeeWeViD6N0uw3R7DRXMDuWSnl1xYXF7/81FNP1b797W+L06dP97aBO598PuAR8v39fVEsFsvXrl37ohDia2EYcjCgHk096AyxDfzBO0FErxPR7506deqp1157TTz33HO9jri+CgZvz9bWFn3wwQe1/f3958IwbIdheCuaN39nyH1RFUK8WCwWX6vVal85f/78mVdffdV9/fXXe7ULOBihAgIcILl586a7vb19+q233qpGo/pvR1Mg/CG2gesA8Hv8Cr8ntVrtKQ4Uffvb3+aVBnqvn4MCHAzgLA4OjvB7ePPmzQsbGxsvdLvdS1GNh2tBEAyzHQBTyRYM6DdlQFGjLvq1TmUIpB19txUWHCTDzqzPZAsQqJ9twYRpvE6nKTAIMAjzOAXIm6M4BgYOJxxFZUOYXioAhLlaY1WRUnJBwadd1z1Tq9WKPALMHT21tJ364s44/43/F0Lw/ZajlQGGVYyW/bsghDjJ0xe4qj93dvl51ci82o5o1QPellK1Wj3rOM7TRHSeO9Ij2hZe/vBEuVwWq6urD7MD1EmRv/jnpaUl4iUJeVpBEARno2BCcQTbwNkBTxUKhZcqlcoTS0tLZX4utR/094V/x4Ebfk84SCKEWOdVEqLO/DAHkVrl4JkoU6GoOv/8vHoaGf/Pv+fPxsrKSrVWqz3puu4LUaHKygj2B8DUMtsltnX9zSwAfRqWYi5lqD+eLUhgCwAYtQweOf77jegkta/0Yz2tSbTX4toNaDvCIGwdIHyGII/MbJm4a9mghl52EOYbakaMnxCizIEA3/efPjw8XLh16xb99re/5VFn0gvHcYePO531ep0+++yzXoX9qOPKQYFSVO0/q1LUieXO55nDw8PitWvX6M033+QOZm/UrNPpPBwRbzabdOXKFR6V5ikGp6MlA89F6f6ZaKNjvC0nu93u8r179zgDgDY3Nx8rGhbVMiC+zdbWFhf24474KcdxSrbnHzBtflEI8RQRfdnzvJM7OzvOhx9+2Nv3/B7w8/I+4X3BXzs7O3Tjxg1qt9vc+V4jouNRxsXOEO8Jn6/5NZ3lIMP+/n5vn3Onf3l5uZchwF8qQKPek3q9zu/JeSnlc0T0flQbAmAu2VLt49LvyagfELcMYL/lBs3HJEuGQDRliGufpAoK2rID9P/VdcAsfNjvMfsZV/AfAwwwCEwTAHiUmiZgnrOzTh3IPGUAJ/N8wfs9VlwhnovjFW7fvt1b0u7999/vdfL0tFE1Is3p6twB5c6ptsb+sG+YiDrzC0EQVLiT/fOf/5w+/vjj3nao5e1UlgB3RA8ODrieQe//MAydQbYjLvqvVlLg71utlvPee+/xFIleJ9wc0dMK+vX2B1feV/uIjGri+n1521M0pF3XdSu+7y9sb2+X+P3gIAxnAugFFtVIPb8nPH2B9wV93rjPurqAEkTTL9q+7/t3796lf//3f+8FSPg90TsGKtWZV1+4f/8+L09YDMOwHAVXcDDD3LGtEqAkLZWszglm9pX6nTrP2VL4k6YSqPOXVsBQFgoF1zz+zMfTA522lRL0WgJ6VtCo2mVHea3vN5UDII7eyYlbIhQgD2wFBUdxPs287CDkB+pEjJcQouU4zmXP8361vb398ubm5skU03t8x3F49Pka1xkccq46Rcvt8eN9Gobh9Xq9frxer6eZisCrG3wcjULzEnvtpBvrjfAEjTAML7VarY9v3Ljx7PXr1/tOQ3Ac57BQKLxXLpc/dBynQcZIoE6fIxxHCNHk5f5833+n2+069Xr9TL+OtRDCF0LcjYo83oz2zTA444NXXfgwDMPn6/X6qeg96XdCDqPn/yi6/7AFFgGmjrnKhmLrKOu/0xtXZmdVjcDbgg38vfqb/r3teaKVCsIoKPhwQ/V0T9t0hqTzkpnVMGvtMrQjYRD6sZIU/APIA9u1Y+xFBRUciPmD93xs9h3H+ZnneYdhGHKV/O9G6ftxLSju4N0Mw/Bt13XfEELclFIGQ24sP+YNInojSnXncwWnnK9YghMiGvnmOQtcTf9fiOhfiehqtHxhLDXXnSzLaGkN7PtBEPwsCAIe3f4ep+33mQffDMPw177v/6hQKPyr4zh76g9ZT5hCiF3Hcd4Iw7AbhiEvH/gdno6QEKjxePlIKeXb/F5GQZL9TE/+OQ7y3I0KFB6PMjheiOorJEVU7jmO8wsp5b9IKT+M3ieAuWJmGdkC2UmF9zhTiLOLeOoVn5NU5pBtOcK010Jt6ULZbrc3O53OB91u92GBU1sAwXwu/W9x9Q9mSZpgB4BNUqYPQJ6Yq8zo16qsMgcEEN3NF6w0MD5RhsAHvH4+j7ALIbqO47zguq4aGeeBJimE4DOCE4bhHnf0wjD8RRAEv+YO4Ag21ovWzX83SjPnDITbjuOccxynFm1EKB58KLhH3+Usdg5KRMGA36QZEVfz3hPI6HEuRiPuXSHEfSHEaU7BNe4motE3Xvf/Xz3P+y+dTucTrrug2Ebx0uAMAQ52hGG4L4Tg96RdKBR4BQZeEUJE+4LfFod/5vckDEO+/a84OBGN0I8ia6MVZRzwe+C7rnvHcRxe2WEh2lcyem94M3jqCd/nkuM4/x8Rvdlut++jLgjMo7Rz6fVOvToX8DmIp/nw9CwOBvCIPmct2ZZ2IqNTa+u8K9F1MwzD8Haj0Xi7Xq//stPp3OUAgSpIat6ejEwFM81eZSTY1qKeBWlXbADQmVMG8PmBvIurIZDVwAEBNCbzZ8DiazAavMM5IPBLIcSW4zgnHMcpRp1b9WZwS9Pxfb8tpbwXBMHNaAR5lCnhragQHWct8Gj3cqFQUFX7ZZSG74ZhGLiuyxPm7/AUA07zH/HnoCGE+JA74q7rvuc4zqJeZTs6L4no5/1ut3uVMyX0BzDrB2TAd7xVLBbfcByHgx/HisViKXpOGT2HiP5vB0FwLwzDO0fwnjSjjIMDx3HeE0KsFgoFVTjx4WcjqkXB27x99uzZS3/4h3/IgSP6+7//ey7+OMLNAZgOeoX/uGJ/Oj3QzYVBueYHBwM4S4ADAlGq/zCk67qNIAjebTabP282mx90Oh1PXzFGZzbsbFMIzFUQbEtBT0KaRinqT0FWZo0cgLwzM8gmNmVAwfzy+aanYeJ9ftwR7xO+An4WfU2KqiUwTHX8UeAdzVUTL0ZfkxJEUyluTHhf7EZf7/PxyaObST755BP627/92wluMsDR0ucV26YK6N/bCguqY0itoEKWuiP9OrSWv3Nm1aUwDH/Z7Xbf7XQ6G3pxUzI6N7aVCpKox5qGYn1pOvpYshqyshUVBMgjVdvGlm01zHl16BoCOKnnA6YMAADAtIorKqiYS5SazA66WuKVLHVN+k090v7eKyLI2V2O46xyRoA5kmOrE5BmJQOz4OG0SBM0Icv0CIC01GcebVLII3O6mF4Ed5hjItOyg5AfKgqFaQMAADDNbJ1MfQk/iumQquKmi4uLvS9e1pQDAvrqAf2CAWbwIFIUQnw5KiroNpvN7U6nc1FKySuH9p5D1SvQtzcuoGFus57BYE4vmJQ0wQDb+wAAAOkcRR2NoacMwPybloYGAABAHNt6/Xp2m5nppmoEcMe6Wq3S+vp674uDAqqTbqYn96tJYGwDq4Zh+Gqj0Sjs7e01d3d3N9vt9mccJOCgQNKSq7aigv063NMeuEc7AoaljkkMUkHeqcDARIoKKmoDUENg/qEQEAAAzAqzE21+b3acOSBQKpV6QYGlpSVaXl7u/Wxbyikp28B2O9d1he/7Bdd1z3e73ZcajcY6BwTM2yfVD7BlPsRkJEz9tRrtRchCHxG1pUsD5I2+yoB5XGQx1CoDOBDzA1MGAABgFpidabOooG1ExQwQxC0JmPQ9GUECvS6BEIJXAqkQUVnd1law0LzWmkEHc8lE01FepzE4AJNi+7yjthXkGX/2R5ktM/SUAXQS5x9OuAAAMAviRuspRTVmnkLAafy8BCHfln/Wq/jrI/Xm93G1CfgrelzOFPCTlk9LWirRtjLCuKutD9sWQFsCstKrqivof0AeHdWUmYHzC+Kq48J80tNR8H4DAMC0ihvFT6IaV2axwKTrnm0ZQ1tGgf57IYSMlnF92IqL69AnLZtoZjLE3Q4AAOaTkX32SLZAVgMHBDBlIF+w3isAAMwCs14AWdopcdPfzKXMkqYMmI9npvPb7hP9Xho/P8Y2xSGtaU/pj9s3AIPQswXQD4E807MFxl5DwBaRxgE5v/ToEwBAFjk+f1SJ6BQRPUFEx3hXEJGv/b9NRDeI6J7eWRwzN2oLcMvCi3nqc0R0hrPqo23dIaLOhLY3VtJoflxdAb1NY0tLVmydbfN3tvsmdfzTtKds91f3tU0bmMX2GNqQ0E9cNgzappBnehb3sAO4mWsIIDqXD8gQAADIrEVE14noLhGtEVEpCgbwiXWXiA6mYNcG0VeS+0TUjP7eiYIZU0VvGJn0FZFsAQKyXOvUiAvP/4/r6OuPGTc6n9RhievMJ9Us0G+nahTYbjON4rYPnTrox1Z7A58byKO4AptjzxDQn5yQITD3hv2AAQAAtYloIwoGKLN04WxFX1Mrbj1mfYpA3PJ9+nxMRRUV1H8mo9NOMZ2StHV34jIEzAEXs1ChPiJ01EH7UQYabAEZtB8hLfXZUZk8+OxAXum1b0Z1fh6qhgDhZJ4LOPECAIyE1L5ghFRH2VaQL6kegDllQKce07ZsoXouW4p/3G36NdyS5tgn1T0gS1bBqIz68VCkGLLQP+vIEAD4PCtgVH20zKsMoIOYD5gyAAAAsyRNRyFN+rq+5KCiGl9mhoD5v+02NEDNAvN+epCBYgZnZiljE4EBGJT+2Ud2MuSVymqb+LKDCk7iAAAAMG36FeYzpwzY6CntcR3ztIEH/bHMudBxKwqY9QRso0DmUonTzvZa0amDNFBDAOABM6g8sSkDhBTy3MGFGwAAppneMIqbIqCP7uuF+XS2KQdxlf4pZi58XBAh7ZSBuHoFNrOUxWerIYBOHaSRNLUHIE9U7RjzGjPscZGphgCWocsfvOcAADDN4jrncfP8bfSggj4SaXuMuGkBttvp22E23PTH0LMPzCKD5u3VKgOzFKxPKvAIEMc2RQafHcgj23l/IjUEzCdGJ3H+oRowAABMu36Ba32kftDrmS3rIG6FgbjlApW4rARzhYG4bVSrDeidpFlriyFDALIyp9oA5I0anNcDA8NOH8t0bxyI+YL3GwAAZklSlf6kGgK2v8VlGSR12JMKD8YxMwWS2IIBR7HKwFFBuwKywpQBgM/py3EOA4vMQyKsKgEAALMi7lplm9Pf73Zm8TI99T8u08B87LhAhG079foG+nOY20XGaNCoU0ePiv56kHkIg9CzAmzLgQLkiZ4ZMKoMgcKgd5ilirYwvH7LIgEAAEwDW8c4rhNqa0TZ2jdmx9xkdv7NFQj0oIFZlyCNuI6zvsJA2gyEaTKL2wyTZQYBUEcA8khlAqhCgqOq8ZapqKAOB+N8w1wtAACYBWmW8DP/pjPbN3olZ7NjHve/7bn1n/VpCLYUT3O5Qdtrins8gHmmjgm9E4T2KeSROu+rTIE0S+n2g+F+SDTLRYsAACA/kqYLmAX7dPp1Tr+NrZKzrS5A0qoAeoaA+fukjEtzeUTbdhOyNiEnzGxVBMAgr/Sp3HpwTA8SZDH0KgOQDwgGAADANLNlBcRVs7fVCiCjo2+u9UwJ7Z+jrJo/yEjoNF+rLfuuTERfICJ3MlsEs8LMVs2yUgjAPOkXVB7UwI+EaHS+6JEonHwBAGBa2QqNxaXcmyn7am1nJW7t/7iOiO33ttUG9OdISu00n6/f6KhtpYFpS6m27KMiEZ0mosrktgpmhVn3AwNVkEfmNLFR9c+G6t3jYJx/WN4FAABmhaVhVLSNQNs653pasq12QL9RSXN6QNYOuR4EGKShZz63+f0w+mVGpN0+Y79yYes1BAQgjVEtrwYwL8yg9jCGKiqIEeN8QQAIAABmiZRySUpZjRtlN+ddmlMJ9BoBcZ38uOUHbbdJ05lJ04lX22vW+dE73LYpD1mlWWWhH8t+ElE7FI0LSGRb8QqZq5BH+rVqlFn7Ay87SOgYAgAAwBSJaxgJIVaEEAtkabuozrTKDjCLCKpOiK3NExcksBUR1KcO6NPw9IadmYFgW7XAVklafzx1/yAIyPf93hf/3XXdqZvuaexTNCohUdzyoOiPQF4lFcfNIlNAAPIFEVgAAJhmMSviCCllTUpZsY3im3UDkpbws6Xhm5142woExvZYl262rUpgW3ZQ/7vZwY+yGfj1UqvVooODA2o0GlQsFmlxcZEqlQqVSqVHAgiTYAtuAPQzymwXgFmnstf042LYoG/mgABO5vmBCzgAAEw7fek/etBAElF2AFezT7yWmY2ptKsGmJ32uCUHo78J/W9mJydN0EH9rLIaVICBXyhnAvDf6/U6Xb9+nba3t6lardKZM2fo5MmTtLq62ssWiNsHANNKz95BDQGAx00sQwCRunyZtmrFAAAAOn20PepEcy9/VQjRt2id1rF++MWdEE6/Nzv9tpF//W8x0wy4z+7EjdDrsMgT+gAAIABJREFUhQTjCgLqvzcDGCogwDgz4N69e7SxsUELCwu9zIClpSVaWVl5bFrEuB3l8owwv2yZNQB5pBfAtZ3PswYGhpoygBP6/NM/bDgBAwDANIvaJb3U+UKh8ISU8jtEdEzfZFuAm691hUKh98Vp9vylRvD7VeyP+71K6+SvQqHguK7LN5JkaT/FLStofq+uyarmAX0eCBHqtuVyuRcA4KkD/D1nCfDrmnS2X1yghNCehAFg+XPIO0tA+OH3WY+PgQMCWJc+fxJGPAAAAKaGXsnfdd3nhRD/nZSymNRe0YsLqqJ86vu40RezdoDt8Y1Ou4imDDy8YdaGm7n8mnp+LiLI36+trdHzzz9P58+f700R4OBArVZ7mPFAI1yOcFCWVQYe2ScANiq4RqgnADlnWxFnFAO3AwcE9AsQ5AMyBAAAYFZoS/I9R0QLUUb9Y1X/dZ7nUbPZ7M2/Z/y9ul1cer/tZzOA7jiODMMwPDw8/KjRaPyi2+3eIaODoz8OxdQP0KcUqEwB9Tqj73uNM54ewBkBx48ff2wVBZ2aXjBOqsYBvxbOwOCMiWg/YFI4JLItOwiQR/qUAUVNcRumb545QwDyQU+ZRBAIAABmlTn3X6/UzOn1e3t7vcAABwU4xd6sH5CmQ2IGB7ijHobhjVar9a+tVuutdru9E4ah1Cv+25hFBM3Gn7bsoGRCCE8FCXjbufOtGo2qAamyA7IYJKMg6bbRlAfJBR9524UQLSmlh4MK0rKNkALkhfn5H9VxgFUGIBGmiAAAwLQzRkekbd6/eQ1To+R8Xw4E8FJ9h4eHjy1HmJY+RUAThGG4HYbh9SAIWmEYVsvlcldKGZIxyKJva9w0BIXvF3X0O57n7bdarfuHh4cX6vW68H2/9/qDIHi4Q/QlFfs9ti4pG2KQ+5GWIcDbxUGXRqOx1el0fssJGQPvbMgdc6oM2qSQV3otGdU/G/sqA5gykD846QIAwLQzKtjzP70h8biANrdnVCYAN7B4Dj4HBtRIepa0esvoeJGIng7D8GUhxCXHccq81EChUAiTGnDmNAHzb2r7fN8/PDg4eHNjY+PCwsKC02w2z1erVa6Z4IZhWIzaeY4q3jchMgrShFGAJKjX64e3bt36xe7u7rvdbtfHwQVJ9ALXKHYN8Og0AfU9TWqVARogWgyzCeu9AgDAtNOvVVGbROgjz3qWgN6x4C81ck1RJ1sf+FC3GeJayE+8JoT4Yynlh1LKm2EY7nDwgbSghC3NPqltxdvJ8/CJyN/f379y48aN/6Pdbt+/c+fOS6VSaZkDETw1gZ/C9phxgzpJ25FmhYWElQScqOEa+L7fbjabd3d2dn68s7Pz6TBTGSAfzEKCo06XBpg1eoYAadfAiawyAPmCEy8AAEwro9YNf7MhhGgIIUqqsCBp1zLuVOsV+hUuysd/4446aen5SszUgB79b9qIDafxLwVB8Jzv+z9VtzM7wuaUAf33JpW9wI9zcHDg+77//s7Ozp1arXaSlzjkh+DnJXq8roH5mHEd+rhiinEDQX3+LiKSNzYIgr1Wq7XZaDQ8tCehH9t662iTQh6ZAWsaUZ8885QBBSdyAAAAmDR99F9KGUgpr0spfyal/AMuwG+mGetF9zggoCr0LywskCr6pzr4tv8V8+9kFH7i52i1WuLw8LDGafx69f8k5mi73uFWwQwOKvDX7u5uuLu7u10oFLa1VRUkWQICSSskUEIgQP/ZvJ1thQRzm/nH6PdSf+2TWPEAZovtWEFtK8izUX/2scoA9KVGXXDiBQCAaWWOGIZhyEv8/cZ13W8Wi8UznGLPHf1oybteR1plBlQqld56/fy1vLzcux0lNLrSXBPVtZNT9w8PD7mSvhcEAY+Qm8GLh/cxf2d7Dj0owNRqCOr18PPpbTU9ayEpu8Fku1+/tNSk25nbpS0/mGp7AMgYIUWWAOSNbQrbICvhxEFRQUikp6PgPQcAgGllXqfCMNwXQnwgpfxMSnlG74SrlH1VUHB9fZ1OnDhBq6urVC6XH04XMOcux7FdI/lnfpxut8v/d1i73fZ8348tKGim3dvS8PVpBbztUS2Bh1Mf9IyFacaBAPUF0A/aoAAPmAUE+9WGSSNThgBGivMF1VwBAGCa2YLXUkqeq/5Jo9H4eG9v7yvtdrvabDZpb29PNBqNXkedG1SLi4t07NgxOnXqVO97s5BgXOG8pEA5/42DAVGHXXS73aBYLPpCiI7jOL0HVlMW9M5+XGAhLotAZQqoAEbSddocRUrKckgqLJg05cCsQZAU2Oi3DQA2qGUGeWZOVyOjnkBWWGUA+kI1VwAAmGbmKgNascCbOzs7/xyGYbNQKLzmed5zBwcH1Var5fq+L2q1Wi8rYG1trVc7gLMDVCaBPnIdFwSwdYAVFVjgzjpP6ncch+cn+GplAVsDLm5Of1xKaFwhwiS2au3D3Mf8m7mf9P9tUxDRtoBBYPUryDPblAFVC2cYmQIC/arfwvzQl7QAAACYRmo9Zkvb5KDRaPyXdrt9SUr58zAMv+r7/guO4/xOuVxeO3bsmDh+/HivbgCn3tsGOWyj+Hp7KG6ev8HhjAXHcXpLC5jTL9Xj2Ebi+42qJ2XxxS0VaP497nnj7pO02kBc5oTt9SEYAGnowTPUMoO806cMqHPoRDIEUNkzP3DiBQCAaWcGr1WHs1wuh7zEXafTed/zvNthGF4rlUobi4uL5bW1td85fvx4dW1tjTMFhKrcbytWZhvxjpvbr/6mMgT4y3VdKYQ4JKK24zjSHOXpV/lf/5v5c1L2grn9SRkG5n1s97V14Ps9N1kCHwCjgM8S5FVc1ljWTIGhMgQQ2Z1/SM0CAIBppzIEzEYSTwPgyv6tVqsTBMEm/6lYLJYWFhaOLS8vVxYWFl5yXXeNi/FxTQH+e/RSH7aykkbPkwr/qUBAt9v1O53Ou2EY/nsQBPfVtsYV00ua42/+LWmlgrgsA3Mf2TrvabIhkjIj+lW9Rm0iGITeFsUqA5B3KgBuriZj/m4QQ9UQwIk8H3DSBQCAaWfLXuTlA9WyfFzdPwiCHSK64vv+SqvVWhJCbB0eHi5JKUNO6ed2FT1oXPGc/4cXPn05PbPBZS7Pp0TZAUEYhjv7+/v/e71ef9OP1jnkGgJmHYFBpgnYbk8x9QbMgEVcRkOaIIPt8Wy36RcISHpdAEmQuQp5p0+Ry1ITxmboooIw3/RqrrhoAwDANNI74majSFXhr1Qq1G63uajfxv7+/judTudj94HeHYIgCFVmQFzhQBvb36XkGQKCpwbw8zXa7fYmPzcHJ3h7OFARFRtMPafflNQZ14v36R38pKr/cWn+5n3jahUk1TBIeg0YcIB+bCucoU0KecTXOn2K3KjOoQMHBMwUckR35x/eXwAAmAVxo9fcCVcrCHiexyn81zudjhrFf3hDMxMgbj3/pN+TVgla/a8acGo7uIAhf2+O6CcVDOxXzE9JE0SwPU7cc8dlH/SrLUAxmQW25wLoRwW5MJUV4FHDTBVQMmcIIKKbDzjxAgDAtFMplGYn89KlS3FbfqS90X4ddgDIdlxhygDAA6Psow18VNnSdmB+xc1TAQAAmBZ6CiVGnwHmi7mKCI5vyCsVEFOFa2lE/bOBAwL6moeEgzIX8B4DAMAsQOAaYP6YWQEodg15ZhaxHUU/DRkC0JdenAgAAGBaoQAuwPzDspWQV+ZKNjQtGQKI0M03PfqE9xoAAKaVCl7jWgUwX1TfQxUVxCAV5JmaQqMHB4atJ4DKHJAIGSEAADALkB0AMN+SlsYEyANbDQFVbHOY61/mgADSdfIBqwwAAMC00wvgol0CMH8QDACIZ2bwDypTDQHCgZhLaGQBAMA0MquQA8D80IsK6qOiOOYhr9SUATWVZtjlODPVENAhMDDf9A8Y3msAAAAAGCdbtirqhUCemRlxY68hYEYgEJ2bf1hlAAAApp1qIKGTADBf9L7HKJdaA5g1/Pk/ir740BkCkA9YZQAAAKaZuk7hegUw33CMQ15xMEBNkRt2moAuc4YAInP5oM/LxHsOAADTDhltAPPFtuQ5jnGA0ckcWkBkLh/0ys14zwEAYNqhowAwf9RxPcpRUYBZo6YMjLpPhikDkAiVmwEAYNoheA2QH2iXQt7px8BEVhlAZC6/cAIGAIBpZE5vQ1AAYH5gyXOAz6nB+VEW2Byqd48Dc/4hAAQAALMCNW8A5pOqG2DWEwDIo7isgKyZ/EP19nDBnX/6BwsnYAAAmEYIXgPML3P6KvofAJ/j/pnqr2W9FuIKConQyAIAgFmg1xBAABtgvuCYBnjQL+MvMyg29hoCitoQHKDzTaVm4X0GAIBphhFEgPllFlEDyCtzWsBEaggcxUbAdOP3WH0BAABMGwSvAQAgD1Q2wCjraWReZQAX3XxQSzmhoQUAANMMwWuA+aW3QXGMQ96p40EdC1mLCSqYIA59oYEFAAAAAAAwOdzx1wsITixDwIxAYNR4/uE9BgCAaadnsuG6BTA/zCJqOL4hr+KKB06sqKCCkeP5ppZ6wckXAACmnWqToG0CMF9UOxSrX0GeqYF5vsbpy3Gq32edOpCphgAutPnCJ2G85wAAMK3QNgGYX3onZ9i50gCzTgXFbMGxrAGzTPfSR4sxcjzf0MgCAIBppzoJaJMAzB+zLYp2KeSVrbg/fz/RKQMYOZ5/+pIWeK8BAGAaqcaQmuKGwADA/NDbonohNbRLIa/UlAFl2MyZQpY7YY5evqj3uV8DCw0wgOElnVdxjAH0h7YJwPwZ1fJqAPNCD4QPa+hVBmD+IRILAADTTB9BROAMYL7Y0qGRCQR5pJYd5M++3icf+5QBc81DHIzzTZ+3hfcaAACmUPdBzPph9iLziaiNNwtgvmCVAYD4QdqxrTJgwqhxrvCb7RGRn/cdAQAAE8dtGI5Ul6L/e4QQQkrJUyIreIsAZlonCvgFfFirUVHue6D/AXk3ylUGBq4hgCkD+aK/31JKbnAVo89NHoMC4o//+I+dF198UfzgBz+gn/zkJ/Td73536q5IP/nJT0T0P3344Ydya2tLfPe736Xvf//79NOf/pS3GQEdmBTx/e9/X7z00kvixIkTvc9lFGicK+oYZFtbW/JP/uRP+DXi4jl6/z0R7RHRlzzPK1OUyeb7Pl+jThPRV4noRHTNenuIZxfG/7GklHif++P9yNdRh69Lkbk9D/B1l4//H/zgB3IeX+cR4+O6FASBG4ahg4xVyLu4VQaUrP30gQMCZuQBKw3MP/Uee57HwYAvENGrUSpmMSe7gI+u54lo5a233jp1586dlU8//VQ88cQT8uLFi0GhUKBOp5P4AKry9bC3iaOm8gRBQI1GQ9y6dat4+fJl79KlS+2VlRXnzTffrPzVX/2VeO655/i1/OcR7RcYrTAaBblARH/64osv/sennnpqcWtrK3z33XffbDab/ysR/SJ6RnfG9n0YNYSX/vEf//HspUuXTnz9618vFwoF+cwzz/ic391qtR758A9zPAzyGP1uY/7d1iBVv+NzwcLCgjx16pTzzjvvFN5++226dOlS88yZM7c3NjY2opEul1J0LCGVjehGP242mz/+8Y9/bLuPuk59Y8Bdqho2IuqULEdf3G4KLLdX2Qr/W98H/vwzNOg2zTJ9f9Zeeumls1euXDn7wx/+sPitb32rU6vVpGrI8nUs5f57pP1pHsdpj+1+x3jS45jbwucAvh53u10qFovOxYsXS9evXw8uXrzIn9XPiKgxSIApx2R0nFWJ6ML+/v7KwcFBkfcrYdoA5Jyazq3Omfr3E8sQQDBg7nGKVlipVGh1dbXked4rlUoldBynFQRBWb34uMBQmoKEtou4+bhpAk/6bWwNBdvfzAu+7T6u6wZhGH7XcZxFKeWx3d3dpWvXrjlBEISHh4e8L7ghIyims6C/LttzU4oGh7kfbPuDf+d5Hh0cHIjNzc3C7u5uWK1WD0ulkmi327VWq+Wsr6+HJ06cCPvtT7ORlGbf69ubtJ8HYbtflsdKs/9st0973zSP22+f8nHmOI7neR6PbD5dqVSKxWKRyuWys7y8fKZYLP6HarX6RBT4Kdi2IWm/2LYx6ZhJ+xhx+40ePYb4whG6rns8CIJn7969++Snn366+OyzzwbPPPNMt1KpyCjNO/H5k7Zp0PuQ/T2w/o4sn2vbvuALMQc5hBDuvXv3uCPAx+JerVb7+OTJk5cdx2mGYViMsq1Sv7ajDrz3+0xk3cdpHiftZzCu89fvPNXvOc3HUj9H53X+ndPtdmudTudEEATHXdctlUqlwHw8z/OE7/tOqVT6n6vV6l0Oni8sLHzztddeW1tbW6OPPvqoefny5Q8KhcJvXNfdCcOwxFky/fah7XUNctzaXpsu7fua5RpskHx88LWyXC6v+L7//NbW1jN37typ7OzstBYXFwM+39le76AG3dZBX2fS7fln13X5HC0ajYazublZvXfvnu953uVz5869FwTBntZeEHHHRtZrdL82xqDXP9vjJN1Pl7ZNGHOM9qaoSimrvu8/vby8fLJWq/mdTqcrpSyqfQiQN6qoIGmDgaPImBk6QwDmloi+/HK53FpbWxNPPfWUe/r06ZcWFhaedByHR/VSj1KaF640H17b7YYZNRz0vur20YXpC0EQcBCg95p5FIAj1Xt7e4mPkaUhPEij2Pwbj6y0220emaAzZ85QtVqtbG9vi2vXrvXu9/u///v09a9//X/q95rT/H2Y97Hf/Yd5n0cty2vOqBd863a7lWazubK8vFzi93FpaYkuXLhwulgs/l6tVvuafDB3su+J+Kj2b5b78jHkuq7c39+vbm1trV++fLnCx883vvEN/ozS8vLyw8+1+fhJQba4bRrkc5zmOZLORfp91W34vMDH3Lvvvkv7+/vrJ06cOH7hwoWXqtWq1+12Xf0YnqbP+rgdxWsf5WNye4c7+ru7u4Wtra1at9utnjlzxj1//nzIxyYHYPm5SqUS3b9/n8+z3AlsHj9+vLG0tFR2XXdJ3W51dbXy4osvPlur1U4XCoUOX0/EhN/4Yc/h5t/jOqL0+fHRC563Wq3yrVu3jl29erXM16lXXnll5bnnnqP19XWKzm+J14y4IFBckKhfpzsp6Bf3eObt9b/xF7/vBwcHdPXqVfr000+5vbD8zDPPcJCI33sR9zqP+nwwxutZqm2hhPOuEIIHYwqe5y2sr68Xn3766ftXr17la98JKWXZeieAHFB9cVVPwzymssiUIWA2gI5y5AImhtsq1Xa7vbS5uVleX1+XPGLpum65VCrxKEnvsxBF/B9uo/pZ/5+0zBI9oGS7nf57/WcyDgDz+WzPn+Y5zIwX23Nw59/3/cdeG3/V6/XY12o+Ztxr0bcjzf5L2mb1d+5k1Wo1nsog9vf3eR4zN1h7X9Vq9UvmfZK2O2l7zNdnvk7ba0rz+m2S9k3c58f2uMNsr+1+/faTed+k5+LjijsXaqTs8PCwF+RZXFyslEql0+XygzaQOufaPjdx22Xe3rY9tseK2+5+r9+MYKs0Wu4c3b59m3Z2duh73/vew8ag+b+SpsE66H2GvX3S9qrfXblyhT755JPezydOnFiuVqv81TufJO3LuHMWDbC/k97zuGMt6dgzH3eQbaSEz1vS9sftmzS/N58n7vX1O174feTPLE8J42NzdXWVXn/9dfrOd77Tex/5s8y35WOWZ4T80z/9E7333nscyFvlQB7fv9Fo9L6EEM7S0tJKpVJZ6fd+JZ1vbK8zzfmt3/vX7zMzyLXI9tyKGkHn/Xr37l06duxY73/9eEroID7yv/m97XeDnF+G+d68P5/D+Rz38ccf0+XLl+nkyZPFarV6bnFxsdeekEaKb9JnO+7YTHN8UMznJe5n/fe250vbrhvkcczb6q+F9xOfN/na12w2m9zm4mlXqg0KkEfmZ5+PE8dYBXBQAwcESIueSq3KJ4ICc4fPuj+IvmCO/Pmf/zneToAj9MQTT9CPfvQj7OKc+cu//Mu87wKIcED+L/7iL3pfMForKysBBwg4KACQN3ogLS54nMXAj+REhQzymuIIAAAAAADj5/v+LZ52g34I5JWepTOyKXKD3mGUTw4AAAAAAJBGGIbvO47TwM6CPFNTMUeVoY8KgQAAAAAAMPUKhQJnCLQwOAl5ZdYQ0I+FrLU1hg4I4IAEAAAAAICjxsteCyF8vY4ZQJ6YtQP04yBrXYFMNQTiNgIAAAAAAOCI9Doeo1p/HWDW6FkA6jgYdtWNTDUECIEAAAAAAAAYLxF99Zb8rNVqiApAbqlMmWFXHMicIYCoHAAAAAAAjEulUqm2Wq3i4eFh7xlrtVqmJdQBZhkHAVSh/1H0yTMfRMgQAAAAAACAcanVak/s7OwsbW5ukud5FARBCTsf8kplCExkygA/MTIEAAAAAABgXI4dO3Y2DMOFra0t6nQ6nDFQxM6HvOB+OGfrj7ofnilDAMEAAAAAAAAYpyeffNItl8vCdV06fvw4LS0toVMCuTRs3QDdwAEB/cnVvAVMHwAAAAAAgKP0ta99ren7Pk8VoJWVFc4QQCcEcoP74Spbf9hpArqhCnFgDVAAAAAAABiHV155xTt58iTxV7FYHOkoKcAsMD/zPDg/7HEwcEBglNEIAAAAAACANI4fPx5cuHChN12AUOQcckj1xVUQQGULDHMsZF52UD0p6gkAAAAAAMBR8zxPdLtd7GfIJb2ooLns4DB98kyrDOhPisgcAAAAAAAcNe53cA0BgDzSawiQNn1/2CkDme6NIAAAAAAAAIyT2QdBnwTySg8CDDulP9OUAUwTAAAAAACAccLqZpB3R1FUMPOUAQAAAAAAgHExgwEYpIQ80fvh6vtRBMiGCifohQwAAAAAAACOkt73QLYA5ImqIUBG1v5EpgwoqpABAAAAAADAUdP7HhiYhDwxVxngY2EUx8BwEw4AAAAAAADGwOz8YGASYHgICAAAAAAAAABMMX3KAI2wyGbmgAAicgAAAAAAME56lgCmDEDecFCA++HDriygy/RIo5qvAAAAAAAAkBYGJSHv9BoCZFmKcFCZ7o1gAAAAAAAAjBOCAZB3+ioDozLwI5lrHiI4AAAAAAAA44YAAeSJXj9g2KUGdZlDCwgEAAAAAADApKA/AnmjMgPU8oPqGODgWNYgwcABATM9AZE5AAAAAAAYN/RDIE/UKgPqc8//61n7WacRZJ4yoCAyBwAAAAAA44BVBiDvVFFBZdjpA8gQAAAAAACAqTeqddcBZpVt2cGJrDJACAQAAAAAAMAYYelzyLtRFhNUUFQQAAAAAABmAgYlIa/iggFjnzKgFzIAAAAAAAAYBwxIQp7x1AC1uoBOTRmY2CoDODABAAAAAOCoYVAS8iyuuL/6/VhXGUBBDwAAAAAAGDcMRkKe6UEB1R8fe1FB9YQ4GAEAAAAAAACOnpoywIEAFRgYRZ88U4aADpkCAAAAAAAwDuh7AHw+SD+K42G4/AIAAAAAAIAJQHAA8kYNzusZAmNfZWDYOQoAAAAAAAAAkJ2q6zf2GgIqAoGIHAAAAAAATApqmkGejao/jqKCAAAAAAAwE/Q+CAYoIY/4GBhl1v7QRQUBAAAAAADGQQ8CYIASYHioIQAAAAAAAFMPAQAAerjs4KiOh6EzBHBgAgAAAADAOKDvATBayBAAAAAAAICpxyOjqBsAeaUvNThVNQRwUAIAAAAAwFFDdgDkGQcB+Ev1v9X/w9b4Q4YAAAAAAABMPe4AISgAMNpsgUz3RnVPAAAAAAAYN2QnA4xWpikDWP8TAAAAAADGifsg6IdAXnE//Cim72PKAAAAAAAATD2zqCAylSFPVA0B09hrCBCicQAAAAAAAABjpTr/KjAwsRoCiMYBAAAAAMA4oQ8C8Dk+HiYyZWDYlAQAAAAAAIBBIUsZ4HMTW3aQcDACAAAAAMCYIUMA8ow7/rbpAROZMkBaUAAHJgAAAAAAHDUMSkKeccdfZQOYK/8NI3MNAbUBODABAAAAAOCoYdlByDOVIaAKCY7q849lBwEAAAAAYOohAAB5x0EBPVN/FFkCKCoIAAAAAABTz6yqjqnLkCc8MK8PzvOxMJFVBpAhAAAAAAAA48adHwQBIM/0GgIUBcUmssoAIWUHAAAAAADGyMwQQH8E8kQPAqhaAjSpVQYQnQMAAAAAAAAYLzMoNvYMgVEucQAAAAAAAJCGmRGAPgnkiV5DQC8uOPYMAdQQAAAAAACAScOUAcgjNWVgVIZ+JETmAAAAAADgqJn9DvRDIE/U1ABzmsDEigoqiMwBAAAAAMBRM/sd6IdAnnBWgG36/kSKCgIAAAAAAIwbsgIgz7jzbwuEDVNcMFNRQdIicjgoAQAAAABgHJAVAHmmZwjw//ylfpc1UwBFBQEAAAAAYCZgMBLyTgXF9FUGhgmUZe7d42AEAAAAAIBxQoYA5JkanFf/q6kCw/TNUVQQAAAAAACmHlYZAHhg2JUFdJlrCAAAAAAAAIwLD0QiCAB5pvrio5zGn7mGAIoKAgAAAAAAAIyPKiQ4KkPXEMCUAQAAAAAAOGrc/9D7HuiHQB6Zn/thswUy3xsHIAAAAAAAAMDR46wAs6ggjWBK/9AZApgyAAAAAAAARw0DkpBnHARQKwrYVhbIGhjAKgMAAAAAADD1uAM0ymJqALOI+998HIxq6gBWGQAAAAAAgJmgj4oiUxnyRu/08+d/FMdA5lUGAAAAAAAAxoU7P91ul4Ig6D0jMpUhr3iQnj//KltgGAV8igAAAAAAYNptbW057Xabdnd36dixY73gwLPPPov3DXJnlEUFERAAAAAAAICp94tf/KLSarV6gYDV1dVep+iv//qv8cYBDGHggABqCAAAAAAAwLi99dZbpVu3btHdu3epXC73ggIICECeHEVfHBkCAAAAAAAw9e7fv+/X63U6PDzsdYyKxSLeNMi9sdcQMJc44OIeKOgF+iVmAAAgAElEQVQBAAAAAABHqdPp3FtbW2svLi5W6EFRQQ87HPJCZQeolQXUKgPDZg1kCicgCAAAAAAAAON0//9n786+mzqzPO5vSbYxtsE2ZooJM4QphCmEMRBChkqlKlVdfVH9rtV3fdE3/e+8/0DXzds3XUNSqa4QCBCGQICEOQxhSphnMJ4lvev3oIccDrKxjuRjyfp+1tIyaDg6OpYv9n72s/e9ez+1tLQ8mDt3ro0dO9bu3LnTzS8A1cJXAgTj8OCUgaiJgYITAuHMBAAAAAAMtydPnjweO3Zs9/jx4y2VSmnrQD8XHdVioDjc3x9160DBrwq/EZUCAAAAAIZbMplMZTKZRDqddkFQMplkhRJVQ3F4MBYvVRweuQMBiQAAAAAAMUpks9kEU89QrfTdD8fhxTYVjPzqYDMDAAAAAIgLi5OoNrmqmOc+dSli8eLSCQAAAAAQMxYlUc2UHChVo//ITQWNP0QAAAAAMSm2NBqodMFYXMmAERk7qD9En4nQT8p1AAAAAMSJGATVKF+D/2B8HkXRaTaqBAAAAADEiRgE1ShfNYDfPhBVUVsGjOwcAAAAgBiRDEA1Co4dDFYKxD5lQG/IhAEAAAAAI4EFSVSj4Rq3WVQ6gT9GAAAAAHEYroAIqBThv4ERaSrIlAEAAAAAI6VU49aASuOr9X1M7psKFoMKAQAAAAAVgSlnqFYK/H0iwCcBggv0USsFIvUQAAAAAIA40csMKP2ifKTo3p8Ef4gAAAAA4kAPAeD5GFxxebhqoFCRegj4k9AJkBQAAAAAMNyCAQ/bBlCN9DfgkwCKw3UbkbGDwT9A/hgBAAAAxIlFSVSjYqsB8imqQgAAAAAA4sCWAVQzff99IkD/9g02/d9F7E0FqQwAAAAAAGD4hacM+C0DxYpca0CVAAAAAICRwOIkqlF4q0Dw7yC2poL53hwAAAAAhlMw4GFxEtWq1A3+I/UQAAAAAIA4+X3TQLUK/g0oGaB/xz5lAAAAAADiVsrO6kClCS/M+8RAsQv2kccO+vIEynUAAAAAxIHYA9XKJ8RK/TcQKc0WPAnKdgAAAAAAGF75+miwZQAAAABAVWAxEtUq35YBJQVi3zIQfkPKdgAAAAAMN8UhxB6oVqoE8E0FfUxeigRZpB4CQWTpAAAAAAAYPj4JoKRYKRtssmUAAAAAQNljygBgz1UIlELkvyoqAwAAAAAAGH5KiOnmKwTCjf6jJgki9xBg7CAAAAAAAPHwPQQszwJ91Aoa6m4AAAAAlL1SlkkDlcw32CzFIj1NBQEAAAAAKHM+Fvc/FYsX21sj0qtJAgAAAACIE00FgV+qAUoVk0f6q6JvAAAAAIA4sWUA1c7/DYT7+hWj6CkDJAcAAAAAAIhHcMpAsYmyoqcMAAAAAMBwY8sAqpmPw4MjBoPbBmIbOxj8Q1RSgH4CAAAAAAAMP8XgwZg83GiwUJErBCyXkaBSAAAAAEBciD9QjYKTBWwkmwpSqgMAAABgpFChjGpXygabRUf3/EECAAAAGG5MGQCe3zKgf8feVDCMkh0AAAAAw41KZeDFBfli/y6K6iGQ74QAAAAAAEDp5Jv2F5w4EBVpNgAAAAAAKsCIVwiEsWUAAAAAwHCjhwCqWTDwD/4t+H9H/fsoasqAkgFsGQAAAAAw3IJxCDEIqpVvKhhemI9aKVBUhYD+EKkQAAAAABAnYhBUIwX9vm+AT4qN+JYBsnMAAAAA4kDsgWqmREBw7GApRDoSf4gAAAAA4kZlAKqZTwTk6yEQVaSEAL0DAAAAAMSJpoLAL4vzPjmWL0lQiIITAuH5h2TpAAAAAAy3UpZJA5XKx9/hfn6xNRUMvxGVAgAAAAAADC+/OB+cMhD7loFgR0MAAAAAABAfnwRQXD7iUwYAAAAAAMDwKWUSIChyU0EAAAAAiAtNBVHtwomAUsTlRfcQAAAAAIDhpjiErcuoZvmSYiMydpA/RAAAAABxo1IZ1UoJsWAzQcXkI9ZDIDhykD9KAAAAAHFgYRLVLNjgv1SxeFHpBP4gAQAAAMRBwRCLkahWfmuA/gZ8YkC3Edky4PEHCQAAACAO9DJDtfN/A8GtA8WK/FflMxJUCQAAAAAAMLx8NUBw64BPEkStFCDNBgAAAKDsBYMgoBrlqxDwiYCoFTQkBAAAAABUBLYso1op4A8mxcIVAlFFfjV/jAAAAADiQg8BVLvw30CwwWBU/FUBAAAAAFAhwv0CilmsL6qpIAAAAAAAiEc4+FfVQKwVAsH5h8bWAQAAAAAAhpXi8HADQZ8IGJEKAQAAAAAAMPyUBAiOGAxPGYht7CDNPAAAAACMJLYvo1rpu59vm0DsYwfD4w4AAAAAYDiVokQaqFTBKgD9DZTi74AeAgAAAAAAlLnglgElx0qxOB95y4DenGQAAAAAgDgE900D1czH5Pp7KHZLf1EVAqXKSgAAAAAAgIGFGwcqFo/aTNCLVCFAEgAAAABAnGhujmo2WOBfTHzOXxUAAACAslfsSihQyfIlxPyWgWK20kRKCAQbCrKPBwAAAACA4aOEWLHBfz6RewhYrjSB7QMAAAAAhhtbBlDNgs39vRHrIRBEhQAAAAAAAMMrOGnDV+sHRxFGEblCgMoAAAAAAHGhhwCqnW/wr7+FcLV+1AqayHU3PjNBYgAAAADAcGPLAKpZcPx/sJfAiI0d9IkAtgwAAAAAGG5UCKCaKQ4P9/OzEiTKqBAAAAAAAKACxV4hYFQFAAAAAAAw4kasQsAjOQAAAABguNFDANVsuLbMRPqrCs8+BAAAAIA4sCCJaqSEmO/nFxT7loHg7EMAAAAAiAPjz1HtfCxeymqByHU3TBkAAAAAMBJICqDaKAngt82UcvtMpLGDQfwxAgAAAIgTi5KoNj4ODy7Ml+LvoOixgwAAAAAw3GgqCNizLQNKDOjm/y6ibiOI1EPAqAwAAAAAMEKIRVCNfCzukwDBfgJRE2ZFVwhQKQAAAAAgTsQgqEb5tu8XWzkTqYcAYwcBAAAAxMmXSQPVKt/fQOxjB42MHAAAAICYaWGSOATVKhj4+3+PaFNBjz9KAAAAAADiEZ44YHE2FQyjbAcAAABAHIg9UK2CvQLyVQjE1lSw2D0KAAAAABAF1cnA8xUCI9JUEAAAAADiRFNB4Hkj0kOACgEAAAAAcaOpIKqdX5z3MbkSZCMyZQAAAAAAAMRDgb9upU6KsWUAAAAAAIAyp1g8uG1GyYHYewh4/kQo2wEAAAAAYPj4wD8Yf5eip0bkhIA/ERp7AAAAAAAwfIJ9A/KNIIwqUkJAJ0EiAAAAAACA4ackQL7gP/YtA76RAVsFAAAAAAAYfj4ZoDg8mBgYsSkDVAgAAAAAiEuewCfNxUe1SCaTz33f/QJ97BUCvrMhFQIAAAAA4hIOfLLZbHFLo0AFyWQyWf83kK/BYFSR0gkkAwAAAADELZVKJVKplO9pNpVfAKrF/fv3J3d1dSV9pb7v61fsloGaQl9Q7BsCAAAAQBSpVCpTX1+fHTduXKKhoWFhIpE4bWY9XMyKpeCyL7f9Q5Fupa88pwK3Un6WcQ0NDRPr6ur0N9BbymtVcELAlyfQQwAAAABAXFQy3dfX96S5ufnBunXrmpYtWzahq6trQjAu0eKl78Ye/JnvseBrLBDnhP8fFl4gDXZ/D3eCH+z/4ffL9575HhtKp/mBjjmU9w5ep6F8xoGuRb5jBs8j3/Ue7Pc12OfOd4yX/e7Dxx3o+uY776EeZ6DPn++cB7qO+rcq9FUZM3/+/HudnZ2dx44da8xkMk2lWKwvukJAJ0dyAAAAAMBw6u/vr7179651dnb2z5w5M/XKK6+4d0un00OKR/y252Jil0Jin3zP9fcN5TiDvT7qeRX6voVcsyifqdDfyWDXL7itPfycgf4dRaGvH+i8Cvn9+m0yqVQqferUqd6urq76p7mCZNFNBQtOCARPFgAAAADikMlkxl+/fn3q4cOHJ9y8edPa2trcuwb3VBcao4QDtIEeKyb+Gey88h27kM8x0HOHcs4DffaX/b+Q88n3//B5DXYeFkoCDPWz5XvvfK8d6mcr5HcYPtdCvjcDPd9fg46OjklXr15tuX37dqa2tjZbbDLAitky4FEdAAAAACAG5x4/fjzl4cOHbadOnSIIQTVStiCRTCbHTps2bUIqlWrLZDJFZQUibxkgEQAAAAAgLtls9n/6+/u3m1ltrqkaUG2UEGjOZDLrM5nMVv3bzOoCDQYLLmNhywAAAACAstfX1/cDvyXAxfBqKLgqN53Bipk4UHB5QSn2KQAAAAAAgILV56pkktlsNlFsfF7Uq6kSAAAAAAAgNi4hkMxlArSlv5jt/Cz3AwAAAABQYfwCfTEL9UUlBKKM9gAAAAAAANH5Zv+xbxkIlyQwbQAAAAAAgPj5xEBUkdIJVAUAAAAAADAyStXsnykDAAAAAABUkGKbCXqRonu2CQAAAAAAMDK0UK/K/RHpIQAAAAAAAEaGrxDw8XnUOD3SloFgDwH6CQAAAAAAEIteM+tXDiBYIRC1UiByfQHbBgAAAAAAiFXC34IVAlHVFPo6/4a+MoDEAAAAAAC4IG2MmY0zs6ZArJXK3SitRjGyudsEM5ve39/flMlkksX2ECg4IWAkAQAAAAAgrMHM5iaTyUVm1p7JZJQcSAcCOaAYmdz3qcXMlvT397d2d3cn6+vrdchs1MRAwQmBfD0ESBAAAAAAqHITm5qa3p0yZcqWxsbGqY8ePaq9cePGk56enlvZbPZ+bu93hkoBRKTvTl8uITApk8nU9/f3J/v7+4uKxyNVCASRDAAAAAAAa02lUqva29vfmTNnzvhr165Zd3f3jVu3bt3NZrPXzOxOrhlckqQAIghWCIxNJpPTUqlU0XsGIvcQIBEAAAAAAM+kstns2Pb29qbVq1fb2bNn7fLly3137979MZPJ7DKzy7kV3uI2faOaKQhv03eopqZmTn19/fSampqaRCKRiNpcMNKWASUDGDcIAAAAAM9o9ba7tbW1q729vfHevXvW1NR0r7a29kJfX98lM3ucSwak6SmACHwvijoz60kkEmnF5MXG5ZEqBEgGAAAAAMDzcqu0z4L9RCLRn8lklACYnrtpAkF3rvwbKEQ2t+VEUwaW9fT0TOzo6Eg1NDRowT5bUxOtG0DRPQQAAAAAAE+rqZUU6Ovrcz81Fk69BcxslZm9M3Xq1EnTp0/vbWrSxLiMqSGc57dkB5u2v2zUe/jx8GuHss3bPy/482XvGXxsoPcZ7Hn5/j3U+4byGYqR7xj5rtFg1yDqeQx2LZLJZLa5uTnd0dEx9vTp05MfPXo0+eHDh6ncSyN/6KLGDvoSBfoJAAAAAMAvFCNlMplUOp2ekEgkGsaMGfNGS0tL+8yZM23OnDkK7lwslU6nn3tNsBo7HGTaEIL/4PPyHStf4J/v9YMZKAEQ/hwDHXOwhEchSZDBgvd855TvWPmuRb7PUehxB/us+RII+Y7nn5dKpdytp6fHrly5kujq6kpcunQpmclkEr29vcFjFByYR64Q0ImRCAAAAACAXwRjpGw2m0in06nGxsaa5ubmutraWjWAs+nTp9uqVausra3NVxIM2KetkPuH2uttoIqAgd7fhlAJMJTgfqCV9KGcy2DJhaEkNPK9TyEGSzwMdF7ha/Cy9x8oUVNXV+cSArt377aLFy/alClT3H3Xr19/llAKJpYKESkhUIrmBQAAAAAw2uRZ7U2nUqmutra2xzNmzJg6adIkjSO0J0+e2OLFi02VAsBgtLXk559/tgcPHrjvlKpMJk+e7L5Dd+7cMfUPiDp9MPLIC5/xoEoAAAAAAJ4Kx0f6f2dnZ7a+vj6zbt06e++996yrq8t27txpp06d4qrhpS5dumTbtm1zwf+iRYvs9ddfNyWWamtri97CH3nLABUCAAAAAPC8fHFSX1+f7kzMmTPHNmzY4LYIfP311/bFF1+4Vd61a9dqRCFXEs9Rc8qzZ8/arl277Pz58zZ//nxbvny5+86oYsACWwVyEy4KVnCFgEoRBtsrAQAAAADVzO//DgZpCtxUGaC+AaoS2LRpk924ccO2b99ux44ds46ODr4zeEbfHV8ZoKTA7NmzbePGjW6byfjx4902Ap8MUIwedctAwRUCOjGSAAAAAADwooHGxummIE7N4dQ3QFUBShB8++239tlnn2lbgb399ts2ZswYrirs5MmTtm/fvmdNBLXdRBUC+n746RSl2L5f1JQBo4cAAAAAADxnsHn+SgqoCVx7e7t98sknbsF1x44drix83LhxtnTpUmtoaOCCViltE7h27ZrbUqIeE2ogqMoA9Q2or693owf1nPAifdQtAwUnBHwpAlUCAAAAAPC88ES2fNUCnhIAqgpQgHfw4EH7+9//7p7z1ltvcVWr1NWrV23v3r127tw5a21ttdWrV7ttAkoG2DCM/49cIQAAAAAA+IVWaYOV1OH+a/mCuVmzZtmvfvUrt/J7/PhxN31Ar1uyZImNHTuWq1sltAXg+vXrtn//fvc9UDJAiaFly5Y9N5pyoH5+sfYQAAAAAAC8yFcBhJsKDmbq1Kn28ccfu0kD2jeungLaVvDGG29EDvRQWbRNYM+ePXb06FGXCFKPiTVr1rgGgkHBhNOI9BAIfiHZNgAAAAAATwW3V/sKgaHMidfzZsyY4SYPaKScGsr985//tO7ublu1apWbN4/RSd8NTRPQlhElA7Q1QMmAFStWPFcZkE8p4vGitgzQUBAAAAAAfhGOkYL9A15m+vTprtGgOsmrUqC3t9c1GFy0aBFJgVFI342bN2+637WSAY2NjW6bwPr16121yMv471YxVfz0EAAAAACAEhhsRPtQFlNVKaDpAwoIOzo67MSJE/aXv/zFvVZ7yTG63Lt3z44cOWKHDh1y353NmzfbypUrXbPJwZSyUp+EAAAAAACUgN8yUGgPgTDNm9exNH3g9OnTtnv3brevXA0I6+rq+FVVOH0/lAxQIuDw4cOuX4TGTWqiwOTJk4f04cINBWMbOwgAAAAAeFE4KIvaEFCvU/D/wQcfuD3lx44dc70F/vCHP9hrr73Gla9wSgZ89913brxgV1eX2yawbt06mzRp0pA+WLihoL53sU8ZoH8AAAAAAAwP9Qx4/fXX3eqxtg9cvHjR/u///s81GtT9TB+oTL4y4JtvvnG/y+XLl7stItOmTRuRzxOpQsCXwAAAAAAAngpOGbASjWyfO3eu/fa3v7UdO3a4VWUFkWo4N3v2bGKyCnP//n3XM0DJgIcPH9qbb75pH374obW0tBT0QUa8h0DwBIYyRgMAAAAAqoEv5/ZjB4ulSgFNGejp6bEHDx7Yjz/+aJ999plt3brVlixZwneqQmhrwPHjx11iR8kAVQVom0BbW1vBH6CUC/SRewj4JADJAAAAAAB4SoGav+UTNZBbuHChSzB8/vnnbvqARhNqZXnKlCluWwHKl/o/nDx50g4ePGh37951DQTff//9ITcQHE6Rvzn+i0yFAAAAAAA8329toBgpauyk5oJqKKh+AqLpAzqWSs61fQDlSVs89Lvatm2b3bhxw20T2LRpU9HJgOD3qJhKlIITAuE3IxkAAAAAAMUFZkOhpICa0GkbgRoMKtDUOELFZPQUKD+dnZ129OhR27dvn926dcsWLFjgtnrMmTOnbM616C0DAAAAAIBfDLZloFgNDQ2up0B/f78bW6eO9aoa+P3vfz9inerxIiUDTp06Zbt377YrV67YypUr3TaB9vb2klytEe8hQPYJAAAAAF7kF0+1hWA4tlhrysCyZcssnU67BnU//PCDbd++3TZu3FhWq8/VTNUbf//73+369etuTKSaCM6YMaNkV6RU3ym6TwAAAABACQWTAP5nqasGVCmg5nS9vb329ddf27fffuu2LLS2tlpzc/Owb19AfqrcuHz5su3fv9/Onz/vqjk++eSTYa3eUOIp6ohLEgIAAAAAUALhoGy4+68p8F+xYoX19fXZnj177Pvvv3cTB1Qp8Oqrr/IrHQEXLlxwlQHnzp1zv5t33nmnpJUBXjC5pO9Z1ARQwQmB4JecbQMAAAAA8CLFSsEtA8FKgVJSRYA61+u4vlJATQd1Uyd7YrZ4aPuGKgJ27dplZ8+etenTp9vHH3/sGgkOh2ByKWp1gBUzZcB/qRk7CAAAAAAvyrdqOxyx04QJE2zVqlWuXF0JgQMHDrhxdx988IFNmjSJ30wMtE1Akx9Onjxpixcvdtc+rn4O+p5FTQoUXFfg38hnmkgGAAAAAMDTwCzcOyCOeEmxWVtbm61evdreeustdx5Hjhxx+9ivXbvGb2aY+QaC+jlr1izbsmWLSwqoSiMuUbcMFPwqmlMAAAAAwMsVU8odxcSJE12lgBIDdXV19s0339jBgwft8ePH/LaGya1bt9xoQSVf1DjwD3/4gy1cuHBY3zO8DYSmggAAAABQBoJbqsOLqcO9n1/HV9+ANWvWuD3tSghoC0FjY6Obg68qApTOlStX7IsvvnDNHLU94N133x32ZIDlqTopZtG+6IQAPQQAAAAA4Bcj3chPEwbWrl1rPT09dvz4cZcY0DkpUdDU1ESjwSJpNf769euuieOhQ4dcEub3v/+9vfHGG7G8f3iEpc4ntikDYSQDAAAAAOBpYBacKBAu444zdlL5+qZNm1ygeOzYMdu7d697f00k0GQCRHfz5k3XM0CVATNnznSjBdUzQCMf4xD8jhWLLQMAAAAAUCLh+fAjVVGdSqVcsKqtA0pMHD161Pbt2+eC1uXLl5MUiEjTBNQzQEkWbcHQNgFVXsStVFUeBScE4m6MAQAAAACVwo9mL5epbJqHv3nzZjeSUCPx1PxOFMQ2NDRUymUtCw8ePLDt27e7agslW37961+7yoByEFtTQb83IfhFZ9sAAAAAgGrnKwI8BWkjHS9p9N2MGTNs3bp17ny+++47t8I9btw4W7RokWs4iJdTz4AdO3bY4cOHXWXAxo0bXaPGcpjCp3OIvYeA/2KTDAAAAACAF1dpFaSVS7z02muvufPRKvelS5dco0FRIzyNKMTANLZR12vPnj3W3NzsKgO07WKkkgGlbApZ9JYBKgQAAAAA4KlyjY0UvM6ePdvee+89F9ieP3/eent7XU8Bjcqrr68vg7MsP/fu3bN//OMfbprAxIkTbf369a4yQNMaRkr4O6YYPfYtAx7JAAAAAAB4qty2DARp+8CyZctcw0GNJNQcfY3O03lqLzxJgedpmoB6Lug2duxY27p1q61evbostlkEv1MjsmXAnwAVAgAAAADw/OKpj5HKMVaaN2+eSwpo5fvUqVMuptO2AW0rYPvAU0qYqIGg+i2oMkCjBZVMKZeeC+FtA7FVCPg3KpeumQAAAABQbkq5z7vUVAmghoLaG69tA2fOnHHvoCSBkgL6Wc1u375tR44csYMHD7qroIaM2ipQzlMZRqxCAAAAAADwS5wUjJXKuaLaNxT861//6ioFNHlA/581a1bVJgX6+vrcJAFNFNAWC1UGqGdAOScDolYHWCl6CAAAAAAAhqacKgdUKaDeAaoUUKPBo0ePuoqBLVu2uAaE1ZYUePjwoe3du9f27dvnfk9vvvmmqw6YMmVKGZzd88I9BKIqessAPQQAAAAA4KmXBfzlFjupImDDhg0uOfD555/b6dOnbcyYMS7uU1JAq+TVQMkAVQbs2rXLffa3337bNRAsx2RAPrH1ELDQl5hkAAAAAAD8wi+aVkp1tc5TlQLy5ZdfusBYlQJKBsyYMWPUVwp0dXW5RMCBAwfcGMbly5fbqlWrbOrUqWVwdsOr4G+ovizl3CADAAAAAEZavibs5RxHqXu+VsQ3btxoLS0tbvvAV1995UYTjmaqDFDzQG0TePDggUsGqDpg2rRpVRH3Rm4qCAAAAAB4UbCxYHCLdSVUV69YscKtkv/lL39xK+bjx493t7a2tjI4u9JT4mPnzp2uIkJVAbpNnjy57M/bJyv8VoHYpgz4N8z3BQcAAAAAPI2Twvu6K2HFuampyXXV12q5Gux98803rvO+Gg2OphJ6NVI8duyYa6aoKoElS5a4ygBtkSj3rR7B75HOtZgpA5G2DNgAJTAAAAAAUO0GqgrQvyshKaCmgkoAfPDBB+7/SgyorP7WrVsjfm6l0N3dbSdPnrTt27fbnTt3nm0TmDNnjquOKHfh0ZbFiPxpSQQAAAAAQH4K/H3/tUpsyq6pAwqUe3p6XMM9Bc+dnZ32/vvvV/T2AW0N2L9/v7upSmDRokW2du3aih2zqOqAYiZBFFwhEB47CAAAAAB4Xr7Av9JiKPUOeO+99+ydd95xyQ1tH1By4MaNG2VwdoVTQuPUqVO2e/duu3r1qpussHnzZps/f37FjVf03yW/ZSDqtoHIWwaoEAAAAACAX4T7ren/lT6yXYGnGu39+te/drHgF198YYcOHXKVA5Xmhx9+cMmA+/fv27x58+ytt95ylQGVuNgd3H5STM8DKgQAAAAAoER8oObjpdEQN7W2tro99uvXr3cr6WrEp5GECqwrge8ZoNGCly5dslmzZtmmTZtcUqDSKgO84FYUxehRkwKRKwQAAAAAAM/HSr53QCB2yuZuFU09BbZu3WofffSRqw748ssv7fDhw64Mv5wpWD5//ryrDLh48aJNmzbNNmzYYK+//rprnliJSjnpL3KFgEelAAAAAAD80uBNnep1SyQSmWw2229m6dGQFFClwJo1a1xALWo0uGPHDuvo6Bjxc8tH4xJVGaCKhh9//NFeeeUV27hxo2skWKnJAMuz9aSY0YORpgzQPwAAAAAAnpNIJpM1T548qX306JFbOe/t7R2TzWabzCzV39+fTKfTCqQqekVVEwZ+9atfuYBa/QTUZFDVA9qPryaE5ULJgAsXLrjKAP1sb293iQz1Q6iE0YIvE16Yj3XLwEBzNQEAAACgSiUSiUTq+vXrNVqVVmJg/ZMAACAASURBVJn6w4cPm81spplN6+/vr81ms9GWcctMU1OTSwBoAkF/f7/9+c9/dmP8yom2B6hnwLlz51xlgyoDNFVgNCQD8om1QsDYKgAAAAAAQV3pdPryzz//fLq3t7f17t27tY8fP+6vqamZ09raWjN79uzxU6ZMGTVxlD6Lego8fPjQbRv4+uuvXYWA9uaPGzduxM4rnU7bzz//bHv37rUTJ064ioa1a9fasmXLXCXDaBFcmC+mqeDoTI8AAAAAQLzu9fb27v3pp586rl27NqWvr6+tq6urvaWlZdbSpUvbtmzZUrNgwYJkKpUaNb8WVQq88847zyYP/PWvf3WBqqYRjJSrV6/awYMH7fjx4y4BoGkCK1asGFXJgLBiGv8XnBAIliL4cRpsGwAAAABQ5R709vYe7O3t/dHMWsxsdiqV2jhlypRXV6xYUa+xfTNnzhx1U9tmzJhhdXV1bvLAd999Z9u2bXP799V8MM4gXHHqtWvXXGXA0aNHXbWCtjUsX768rHoblEq40iS2LQOMHQQAAACAF/SY2TUzu6Emgmb2cOzYsTPb2toeqaGdkgFaUR+NtH3gww8/tLFjx9pXX33lmg02Njba0qVLY+nmrwVqJQPUx0BJCVUsrFu3zjZv3jxqKwNKtWWgqLGDOgmqAwAAAADAyeZGDPaaWUcqlequqanp1wr6aC5Z12q1Rvppr75W5dVX4G9/+5sdOHAglve/c+eO2yagbQuiRMDKlStH9TW3QJVArGMH9Wa6ae9LIpHQF15zNbsivTsAAAAAjD6K1DRysCaTySTViV9l9KOdtg9oJKGCU3X410hCdfifO3euNTQ0DMunv337tn3zzTd26NAhFyCvXr3a9Q0Y7ckAC1QJRE0GWJQKgTwnkSjFcQAAAABglEgEbk41VFb7SgHN+1elgFbuP/30U/vhhx+G5f3u379v33//vasM6Orqcg0O1auhGpIBwR4CcTUVTCWfvlNCJSBy69atOjN71cw2mdnxyGcBAAAAAKOMb8JeTfR558+f7yrKVRlx5swZ27lzp7t/yZIlrgFhKSgZoJ4B2iqgFXIlIDZu3GgTJ04c9Ve7lI39h5oQ0Le4NplM6reXfPLkiZvvmMlk6pubm5ckk0m1bfx/S3JGAAAAADAK+J5r1ZYUqKmpsTlz5tjWrVtdo0Gt4nd3d7tkwMKFC63Y0Yt37951x9REAVUGqCpgy5Yt1tzcXLLPUM6C36litgtYgQmBukwmMyaVSiVbWlps+vTpNm7cuJpsNjs1kUhMrtzLCQAAAADDo1rHtCspoEoBUTLg7NmzbvvAo0eP3ASAqDo6Ouzbb791VQfqy6BjacShYtRq5LcLRN02UEhCIJXJZGq0bWDy5Mn2xhtvaJ5j4smTJ4lsNksPAQAAAAAIqNZkgOeTAr4i4PDhw+7n1KlTbdq0aQVvH9DWdY0V1FYB/VtbBNTEcNy4ccP1EUa9QnoIuMYY2ipguTIFdXS8ePFiVXTMBAAAAIBCMKL9aVJg9uzZbhVf1QE///yzff75564BoHoKDJXi0FOnTtk///lPlwzQJAE1L6zWZEDcPQQsN1Mzq8YQ2qdx48YNu3r1avbEiRMP0un0TyU5GwAAAAAYZaqth0BYbW2t6x0g27dvd9sHlCgYM2aMzZw50z0+mM7OTjt69KgbY6ikwrJly+zdd9+1KVOmlM1njFvwO6U+AlF7CRSSEHhGFQEPHjxQM4fEnTt3rmcymb+XzZUBAAAAgDLimwtWs6amJlu8eLGLJVXyr+kDWmxWyf/cuXMHvDK9vb1ubOH//d//2c2bN11VgJoVaht7NQt/n4a7h8BzlH3QL1K3TCZz18wOVPVvAwAAAAAGUe1VAtLQ0GBLly5110JNAS9cuGBfffWVq0BXsiAc1Pb09LgGgqoMuHfvnq1cudI2b95s7e3tI/YZRptICQH9otQAQmUeStqY2YNqv5AAAAAAgMGpUkAN6kVjA/1IwvHjx7tGg74BoZIE6hmghMHly5ddA8Hf/va31trayhUOJZgUn8e6ZcCfQO6WzWaz/VGPAwAAAACoHqoUUENBVQCoUb22BEycONHWr19vM2bMcNdB93322Wd2/fp1VxmghEBbWxvfkgGqTWLdMhA+nxIdBwAAAABGDb+IihdpOsDrr79ujx8/tkOHDtmJEydcokCePHli33zzjWtkr2aE6jMwZ84crmJOuH9A1OoAixLIR808AAAAAADgTZgwwdatW+emDBw4cMBtH1BlgBIBCno1qlCPaxIBnleqpEDBCQH/RtXeJRMAAAAABuNjJlUJED+9SNdF2wAU9GvigCYJqFpAWwk+/PBD27RpE5UBQ6BF+6gL9yz3AwAAAMAwYeTgyzU2NrrJAWoo2NnZ6bYOTJkyxerr68v91EdMqbaiRN4ywF4YAAAAABga4qeBafzgwYMH3dYBNRbs6OiwO3fu2JkzZ1xSQFsLMLBYewh4ZLkAAAAAYGAkAQanbQLqF7Bz507XP0CTB9RoUH0EfJIgnU7b6tWrrbm5uZw/SuxGvIeA/3KzHwYAAAAAXkScNLiffvrJPv30U5cAmD9/vr399ts2d+5cN3pQyQD1E9izZ4/V1NTY8uXLraWlpZw/zogppvF/0eMC+ZIDAAAAAIZKi8yqANi1a5edPn3aXnnlFdu6daurEFDw39TU5LYPdHV12alTp2zv3r2uUmDVqlUkBfJUnuh6Rk0KROoh4JMA+kmFAAAAAAAMjK0Dz9M2gX/84x92/PhxW7hwob3zzjuuQkDJAG/atGn20UcfufuOHDli+/btc00HqRTIvygf+5YBY7sAAAAAAAxI8RIx0/POnz/vegaoMmDq1Km2YcMGF+SHV7j1fz2uJoPqNaDtA9u3b3dJAfUUYALBL4oZOxipQoAMFwAAAAAMrtpHDvb29rqfdXV1bmH5/v379vXXX7v+ANOnT7f333/fFi9ePGgwO3v2bDeG8OHDh3bixAn79ttvbdy4ca6yoFqTAsF+fl6sFQLBLzUZLwAAAAB4UbUvpJ48edIF8kuXLnXJgR07dtixY8esvb3drfzr/sbGxkGPoWSBegy8++67LrGgyoIvvvjCxaBKJowZMya2z1Mu/NZ9b0TGDgIAAAAAqoOC0Dt37ti1a9dckO8b2fkKcjX9001U6j9hwgS39//w4cN25coVt6qvZMD48eNdcL9s2bKXJgOC3njjDff8vr4+15BQlQZ6P40prMZKAV99ot+DGjCO2JYBqgMAAAAA4EWjKVbSZzl69KgbE/jdd99ZZ2fnc3vX9bhPCHz88cfu9vPPP9u2bdvcWMG1a9e6lX4lAnRrbm4u+Bxmzpxpv/3tb12FgLYP9PT0uKqB1157reqSAj4m99d/RJoKMmUAAAAAAF5uNMRMCr61wt/W1ua6/z969Mj1BdBn030TJ050z2ttbXXP0zYBVRQoaFXArm0CWumPGrzrPefMmWObN292yQA1KFSjQcWo2n6ghoPVIvh9inXsYBDJAAAAAAAYWL4GcJVIAefKlStt3rx51tXV5bYN/Pjjj3bq1ClXGbBixQpXvq/nNTU1uU+ohIHK/PWYRgsuWLBgSHv+g4vQ+QJdVQSo0eD//M//uKoFlcxrS8KMGTPcv/PxJfZ+8oMFgupq7vVQVEKAZAAAAAAADGw0xUwK9H2wLwrCFbxrX7+2AWj1XjQm8LPPPnMTAfT8jRs3utGCeq76CSiYb2lpyRu863rdvn3bJRyUDFC1gfoR+D4FqgzQ67V9YN26dXb9+nX3PnrdRx995BIWYd3d3a7/gX7qPVVpoOPp+DqWzjHqCvtICSYxijn3oisEAAAAAACDG22LqU+ePHFBu376QF06Ojpcj4Fdu3bZxYsXXYXA2LFjXTCungJKCOg+jRNUUK8yfwW0Ooa2H9y8edPu3bvnehTomml7weTJk93zVZmgyQWWG0eongQaP/j555+7XgXa0qDj6bg6phITN27ccLcHDx64LQxKSui99Fxtc1BVQSHNDUebSE0FPXoIAAAAAMDLjbbFVAXVPrjWZ1OArQSBuv+riaDixkmTJrng/vjx4y5IV0B++fJllzRQgK6V+mnTprnnKgGgiQRnz551lQeaVOATADq+Vv/lz3/+s+tL8N5777lkgJ6rhIHeQ4kB+eSTT1yyQJUGakCohMD06dNdYkIVBXq9qgLefPNNmzVrVkX+bsI9BKIqqi6CZAAAAAAAvEAR2qNEItFdW1ub1r55BaOjkRIBotV/le7rpi0Eq1atco3+RAG5kgDaJqBAX4mAW7duucBciQDPj9BTIkEJBK3ea5VflQZ6voL5/fv32549e+zq1asuHtVz3n77bfd+oseUGNBrlIz46aefXPJBDQ9fffVVlwg4ffq0SzT4LQOVuF1gxLcMBBswkBQAAAAAgOc0ZbPZMX19fTUKkFVSH9x/PxooEFVCQIH33r17XSJA1HxQJf2HDh1yTQRVBaDkgIJyrcgrKaBKAAXrWrnXCEIlTN56661nUwhUxq9kgJ6jRIFuvuxfpf5qULhkyRJ3Du3t7W6qgSoMtF3hn//8p4tRlSzQc5VcUA8DVRPo/j/96U+umkHvWYmJGt8g0SumQiDy2EH6BwAAAADAU7Nnz25+8ODBovv378/X5D0ze+Xx48fLL168+Oo333yjIDizZs2azPTp01PJZLLigymt8ms1X2X9ly5dcnv/FehrtKCCbwXoPmGglXkF5XqNgn9NH9CefwXlakSopIAeU/AepISAqgrUWFC9AZQMUBw6ZcoUlxDQY6KgXhMP7t696xIQer62LSjpoGMqGaEtBKLXKjmj3gd6z2oaVZhPUT0EjEkDAAAAAKCS+EmZTOaj1tbW36XT6RmZTKa2s7Mzq9L2L7/88nFfX1+iqamprr29PVVpJeoDUbm/kgHqC6DSe63Yr1mzxpX8q1pAjQT1WbXar+Db0+s0LlBbAHxvAMstPivBoIoD9SbQTf/2DQs9Bf1a7Q/Seezbt88F/7///e/dtoAdO3a4BIQqFPwIxMePH7tz1TGC51RpwlsGolYJRK4QIBEAAAAAAE89ePCgsaGhYc6yZcsWL1iwoFb74w8cOHDv1q1b392+fTt97ty5xTdv3nxltMRRWmHXKrya+SmIX7t2rW3evNlVA/gAVQG9hFfhtfKvngIKzrXq750/f95OnDjhmgH6cYMaF6jn6TWWC379yEBP11RJBiUPVLWgbQeqCFDCQUkBPa5KAW0tOHfunNu2oKSFrzAYDaImmSKnRHxGgh4CAAAAAKpdX19fMpvNphYsWND34Ycf1iqwvXz58tXbt28fymazGrg/s6+vb1TUpyuY1wr8sWPHXMCufgFq6vfaa689e46fPmB59rjrft9oUQG8qJpAJf7ff/+9SyBoZV8r+HqenuOTCv5YwWMqHlVArOeKKgFUFaBGhzpHNRBUo0ElClQdsGXLFve4ehpUKj/xz4utQiCMZAAAAAAAPFVTU5NVAJvbn64l8v6nC7jJURE4qXxfyQ41EVTnf438mzt3rvs5VD6QDa5qK7Gg46nngMr+V6xY4RIGqgzQe+r+wfrY6TElDfTTVybonDZt2uTOVeeshMH7779vixYtctUHSg5UMh+Lx9pUMMhnJUgKAAAAAKhyCooyvb29WZWvK4jt7+9PJRKJMaoQSCQSyfC4uEqjVXyV3Gu034ULF1yDPjUPVHl+Ic35ghPr/PXQHn9VHqgyQAkBTQiw3HYDbRnQFgXLJREGij/9/UoiqIeB/q/qBU0n0HlrYoF+zp8/f1RNfNA1ibploOBXBd+IZAAAAAAAPKWV2nDAH46XKjV+0mdTEuDgwYOm/ggqt1fgrukB+sx+5GCQVuoVnIdXsHUNdJ8e89dDVRW66TgK4PVa/dR7qvRfyQLflyD4Os83IfS/Az+VQJMHlGRQxYFi2d27d7sJB1euXHlWSVDp/FjGKCq3rSIAAAAAlCkFpT44De/3rjQKrDXWb+fOnXbx4kWXBHj99detvr7e3a9gPdgc0FOzQa38hx9TIK77g4+phF9N/pRs0PucOnXq2fYEJQm0ZcC/Rj0Cwj0E9FwlEHQuFmg+qKoAPb548WKXcPj222/ts88+c1sUfvOb37jJCJU2bSBcaVJMhUDkKQNG/wAAAAAAeMYHZYqTfKM7HzNValJAAbvK7DXST1MAtC9f0wQUSGvlXhMBFKwrSA/SZ58zZ44tX77cdfQP0nMVoAc7/WsKgMr7b9686Y6plX0dQ6v72pIwffp09zw1BtRzlYzw9LypU6faypUrXT8DBf7a3qDEg85N/9f0g4ULF7otDl988YXt2rXLJQJ002epJPni8NgqBMJbBgAAAAAAvwRlfgU3X6l8JdHKvCoAvv76azdiUJ3533vvPbcHX0G2gnCV5ivw1gp/kALxf/mXf7ENGza45wcpuP+P//gPF7QrSPc0pUDJAq3ea1uAmgDq/0oKKBGhRMB//dd/uWSA/u0pqN+4caM7H92vc7t8+bLrPaDEgxIKaiSoY2mrg4775ZdfuqSA7lPFQyX1FAhv3df3LPaxgwAAAACA/HyFQKVSkHnp0iX76quv7MyZMy4gV3CvvfiepgD45n9hCtKXLVuW97HW1lZ3rDAlFXQLVlgEaXW/vb39hdf5agTdLNf8UEmFhw8fuuPpHFWNoOSFkgHa7qARh9o+cOjQIZs3b56tWbPGnVclKGViKdKWgWDZCwAAAADg+S0DlU57+Q8fPuz28Kusf+vWra6JYByKncag34NGCioBoMSAKgqUCNDn0HYE9RVQZcCqVatc34EdO3a4igZthShkWkK5KCbxVPSWASYNAAAAAMBTvldAOKCtpO3WCphVTn/s2DE3WnDt2rWuF0Bw3345U1CvbQJ+TKK2Pdy7d88lCdR0UP0JVBWg5+izKumhbRFa/F69erXbolBJovYPsKgVAsEvM8kAAAAAAHjKx0oDjRss58SAYj01CtRowSNHjrgEgCoDFCRrhb1SKCGgLQ7qJaCmiNr6oEoB9TrQ51CvgQULFritBGooqATAnj17XF8Bveatt95y2yEqSexjB4NfaJICAAAAADCwgRIF5ULndf36dTenX8kABcnvvPOO6+pfSckAT5Xt6h+gpoVqJKgRiL5RobYOKCmgoF/NBJUA0ONHjx617du325MnT2zLli0VkxSIdeygV+5faAAAAAAoF+UeNykZoLJ59Q3Qfno1/du0aVNFT5bTuWvLg26D0fQEJT9UWaCtEroOajCo5oPjxo0b6Y/xUsVsGSg4jVDJnTIBAAAAIC7FBGpx0oq4qgIUDCuI1mhBNdyrpjHzqhh48803Xa+Ezs5Ot31APRTKVbGNFz3GDgIAAABAifiReZUSTKvB3r59+2z//v2ufF4NBNetW1dRc/lLQQvf6imgSQNy6tQp11dA1RKLFi0qu+vhv2eWO/fYewgAAAAAAPLLN0e/3Dx69MhVBuzcudM13Pvoo49cQqDakgGeGgrOmTPHXQttHzh58qRt27bNJXdWrFhRNiMJS1UdYKVICNBUEAAAAABenMhWzpQM+Oqrr2zv3r1WU1NjGzdudCXzlTZyr9SUFNBIQiVz+vr63NhCXSc1HVTzwXJosBisDrDc9y72poLBkwEAAACAaueDsnJPCmgmv5oHqiRega4qA95//31XHg9z1+G1115zgbaSJd9995319PS4ZInu1zjGchPbloFKaYwBAAAAAHHysZLvIeArBsppEVXl8IcOHbLPP//cjeHbunWrrV69mmRAiJI7c+fOdddICZQrV664kYz6narxYLmda1QFJwSYMgAAAAAAA/MVAoqdyikZ0NHR4XoGaJuAOulrm4AmClTCaD3Lnf/NmzddWb9GCQ53+b6Ov2DBAldFoWt24cIFd//YsWNt5syZI1opUKoqFKJ7AAAAABjltNKtMXqqDNCK9wcffOC2CVRKMqC7u9vt59c2h6NHj7ogPQ5KCixdutQ2bNjgRhNevHjRjWf0yYFyEVsPAbYMAAAAAMCLgkGZrwzwWwZK2Rm+UAqmNVpQJe/6t7YIvP32226VvRL09vba+fPn7cyZM67Rn5IY2tsfl4aGBluyZImLhb/++muXmPC/WzUgVMVC3MJNBaOKtGWARoIAAAAA8KJgIsAC/x+pGEor6d9//719+eWXdv/+fduyZYu9++67NnHixIr57anvwY0bN1wyQKv1ixYtssbGxljPQaMYNYVBlFhRckKBuEYRqtdAnCMJw8mlWHsIUCEAAAAAAPkNVgUwEkmBgwcP2qeffuoqA1QVsH79+opKBliubH/SpElupX7OnDk2fvz4ETkPVQIsXrzYxcTbt293SQH1E1BArkqBuIS/R7FWCFgFjNEAAAAAgGqmpoEqbd+5c6ddv37dVQZovGBra+uwX5XwXHwlI9TDQGX+wUZ8uk+PKdAeqEGgqgPUTFAVAUoEBHseqGLAjwbMt0Kv1/pgWc8pRRyr0YOrVq2yJ0+e2P79++3kyZPuuJrSMG3atFgqBfJNroht7KDHtgEAAAAAyG+k46XTp0/b3/72N9eVX8mAzZs3x5IMsNw0gEePHllLS4tLANy6dctu377t/t3e3u7OQ8kAnZsaHCpYVz8DBdvBgFoBv16n5ykAVzJApfs+eaD30P0+WeD38uvaq++AzkMJB72vjl2qvgM6nrYP6Fy3bdvmtmTovPR/JQWGm+9JYblEQDFJiEhXJHgC5TZXEwAAAACqlYJodeFXSbsCce2510SBGTNmxHZFVJmg5nsKwtWMT0G5uvMrgFdp/fz58+3u3bv2888/u1jyzp07rqJh5cqVbhSiAndVNZw9e/ZZwkBxpxIDuu+1115zx1Ey4NKlSy4h8Oqrr1pbW5t7roJkvU6fX9djwoQJJZ+moGOqUkBJh0OHDrmbKhL8NILhHtfvY3C9j79FEampYLDUgmQAAAAAAPzCx0gKTONcQFVAqn3tf//73+3atWuuX4D6BsSxah30ww8/2J/+9CdXIfBv//ZvNmvWLOvp6XHBvIJ0BfYPHjxw56tz0wQBJRB037Jly1wFgZ6nxIau3cKFC13Qr892/PhxF+xPnjz5WTJBDQd1rfUcrdTr31evXrWffvrJJQKUKBgO+nxq0KjtAmo0eOTIEZeQWLNmjauEGC6l3MLPlgEAAAAAKAEFosERg/kmtA1nP7YDBw64ygCV2S9fvtyttqsJX9w0zUCr//qsqhKYOXOmC9RVxq9kgQL96dOnu+BfzQJVLaBgX9sIFOCreaBet2DBAhds6/Vq3qeJCXr9w4cP7fHjx+6Y2iagKgFde/8+Oo6SAbpfTQB9Of9wUMJBlQJKbuzZs8f1FdDvXJUCwzXWcUSbCvo3o7EgAAAAADxvoDgpPIawlLT6rgB8x44dLmBWIuA3v/lN7JUBnoJv7enXOD4lJrRFYPbs2S541rYBBev6v1bXdV18s0H9W1UCShKoqkA3T3GoEgJ6nRItSi6oIkATE1Sur2ugLQSix1RhoMSEEgnh3gSlpmqF9957z22N2Ldvnx0+fNglKt56661hSwqExd5UEAAAAADwi2BFQDjwH84Ka+3Z/+KLL9y++xUrVti6devcnvqRWsT1UwZUqv/KK6+481CArEBfvQx0LRRE+33vul/JAyUDFMxr33+Q7tMKvIJ+3xhQx1Qlgd5Dz1cyQPv5LTdhQTc9R0kDVRkMNyU0tEVDiYddu3a5agElI9QAUVsLSi34u429hwAAAAAA4EXB5uvFlHIPhUrjL1y44Pav66eC6vfff9+tyI9kRbffNqFA3I8Z9Nsp1B9AAX5w/KBiTAXOShr44FbP0dYH9QLQyruqC/R/rforEeCTDL5HgJIJSgooEaAqBB1P95e6meBg1DdAPRv0/seOHbNvvvnGfe7Vq1eXdMJDKftSRN4yAAAAAAB43kAVAsMRoGuP/GeffWaXL192jfe0b13JgGCwPRKCAWs4fsx3fYL/1gq7qgAU/GuVXY0Itf1AWwWUJNC2ASUC/Gu0Cq8+CdoioMe0HUE9BpQMUFJA/QPipOkDH330katM0Pnrpt/HG2+8UbJKgVJWm0SuEPAnwdhBAAAAABh8qkCpYybNvldnfiUD1KBPfQPUQC+O8vihUpl/OPDXNdL9Qf5+y71GDQNVGaDPpv/r82nrgbYMaHqC/4x6jYJtJQQU/KuSQAkB/Q60Iq+kQNwJAcXL2g6hbRs6X/UT2LZtm0tmaPrAcFUsxNZDYKAMDwAAAADgKT9loNQUIGts386dO90Ivtdff9015/Md+cuB3zKQz0Dxox9vr20QmjqgFX9RkkPbILTirsaJ6peg5/jY1Pcm0ChCNVTUTz1X10MN/UaqWkLbBz7++GP3+1Kjwb1797pz0WSF4UgKxNZDwPOZLyoEAAAAAOCXoMwHw+HF1FJsG7h48aLrGaDZ/ZoioFVnBb8jvU0gTDFiviD1ZdMWdL9W07W6brlZ/z6AViLgxo0bLshWI0EdS1sMVAmga63GikoY6DX/+Z//6SYQ+CaEcdO56TxUuaFz00jIf/zjH+58NX2glFMPYh076JEMAAAAAIDnBeOjcEA82Mr5yygI1hQBrTarMmDq1Km2efNmW7JkSdklAxSsq+xfe/qD9Pl9MB/cNqD7Fez7lX+t8KtvgO7XtgF9XlU/fPfdd65vgvbpB7cjaLuAAv87d+64LQU6jgLucrgu2s6gPgeagHDixAlXKaBz1e9NzRFHGlMGAAAAAKBEgivg+XoKRF1QVaCrFfDTp0+7EnntUVf5uQLncqPPrKB3oNhRj4cTI7ouumkLgF/x1xYAVUKoKkDPV/d+/dQefSUIgivjShKoWkKPzZo1yzUhLBdK3mj7gPoZqFJA0xD0ObXdI2oFQ3jsYKw9BIrJbAEAAADAaOUDW8sFasFm7FEpKFYgqWSAyudVhl6uyQDRDbgPsQAAIABJREFU6vcf//hHF/D60nh9fq2Iz5w505XSK6nhaQVdQbM+W3Nzs3tcAb+Oo5++0kBbAPSZdQz9O3hN1URQSRKtyCshoEaE5ULnqQSFfioZcOrUKddoUE0QV6xY4SociqEYPdYeAiQDAAAAAGBgipmCq7ZREwNaHf/qq6/s5MmTbvV7/fr1tnz58rJNBojOUWP2VLLvV8D1uRXwq0mgSvqDQbBWzhXE63opgaDVc93Wrl3rnq9+AjqOEgf6qSSBHg/uw9cx9TwdV8kBPbfcKEnxhz/8wZ2jEjzqlaDzHMkeECPTYQEAAAAARqFgOXy+VdtCtgxom4ACR+09V/C7atWqsq4M8NQDQLcwfYZ8zfR0ncITEnTfQMfJR+MGtequygFtHRjq6+Kkz67xiW+//bbrKaCKj88//9ydgX6vUcW6ZcCXvdBMEAAAAAAGF6URu4K7+/fv26FDh+zIkSNuBV1VASov1+o3Xrxeaij4448/uqBbCZNya7QYpIoAnacaI545c8b27NnjKgW0rUCVD0MR/E7FPmUgXxMIAAAAAMAvfQR8/7VC4ygFt5omcPjwYRc0rl692q16a/UbL1LpvXoPbNq0yQXV6kFQ7nSeH374oUtcaDtIZ2enffLJJy5ZMBSliscjNRW0ULMMAAAAAMBTAwVrQ4mhbt269awyQMmAlStXurn17e3tXN0B6JqqmaASAaqgKIdxfi+jCgE/ZUAjGi9evGg7duxwv3NfQTCY8PcotqaC/o38lzxKCQwAAAAAjGaKkwoN0u7du2f79+9/VhmgZIBWvTWGDwNTkz4lTLQ/X4F01FF+I0GJjN/97ne2fft2+/77791EBVUN6P6BhBNOUZMBVmxTQZIBAAAAAPAiv2VgqNQzQFUBSghoHN2GDRtcZYAmC2Bw+ZoSVgqd96JFi6yvr8+NJDx79qz99a9/tV/96lfu/oG+W2GxNRUEAAAAALzcUFdu1XH+2LFj9u2337pkgObva3SfVrxRHTReUdUNf/7zn12lgKYkTJgwwSZNmvTS75GSAbFtGSimgyEAAAAAjFbhWGkosZOSAcePH7ddu3a5LQMaP6fqgGnTpvE9qSLa5qDeAVu3bnUfWkkBbRv56KOPbNasWS9ciBFrKljM/gQAAAAAqBb5YqdgIKcS8aNHj7ptAg8fPnQB4ebNmwfdP47RS0mBN9980/UQ+Nvf/ua+G6oU0Pdo+vTpA/al0H2xbhnwexb0kz4CAAAAAPCUnyQw0AquD+g0Zu7EiRP29ddf2/Xr123p0qX2/vvvM02gytXW1rreAT09PbZ7926XLFIVyb/+67/alClT3LYCfYeCMXisWwashOUJAAAAADBaKChTrOTjpfCqrVaA/Ti5U6dO2bZt21wyQD0DtE1g5syZfBfgKgRWr17tLsSDBw9cf4nx48e76pFXX33VTVUIG5GmglQHAAAAAMDzfJVAkE8SaJuAgrwDBw7YhQsX3DaBX//61/QMwHOUOFKiqLe313bs2OEqBTSRQGMo1VtAj+s7pUSAqgpirRAAAAAAADzPr9KGK6r1fwVwmiBw7tw5t+Krn+osrwAvX9M4YNy4cbZy5Ur3vdHWEvUUUEJJ96tKQBUnxfb4izxlIF/WCwAAAADwlA/WFLj19/fbpUuXXDm4tgnMmzfPfvOb35AMwKCamprcVoHW1laXFDh58qQ1Nze7KhPfO6CYSYCRKwSCe2MAAAAAoNoFV2t9vJS7L9nR0ZHSCq9of/jatWvdfnDgZVQNoO+Mvkt79uxx/SdUYfLo0aNnPSli6yHA2EEAAAAAeJGCslAVdTaZTGaz2eyY27dvT1C5d19fn+sW39bW5gI77QcP9mYb6qJreJLBYJMNClWqYwWPM5TPF5xiN5T3L/Q8w8d/2TkNdI3DryvltQ8fT/9WDK7A/+7du3bz5k33vTlz5ox7TkNDQ1HvTQ8BAAAAACgBP2XAfgnqsolEoq+/v7/70aNHnR0dHa2PHz+2K1euuLJvbSPQLYqhBKHFBqpRX58v8B4o0C8kCVBowmC4hAP2QpIMUT6Hvld+a4C+P/fu3XN9BdRLIPicKIpKCNBDAAAAAABelNsukEgmk53ZbPZsOp1+kE6nx6lCQKXeQERjzWxeQ0PDonHjxk1pbGys6e7ujpwdidxUEAAAAADwXKyUSKVSCY2B82Phkslkh5ntMrP/T0/hcqFIE83s9+PHj/9/Jk2a1JZMJmt6enoSuUqTghMDkXoIFLq/BQAAAABGOVUDKBmQ0CQBJQW0ZcDMuszsupn18AVACei7dLWuru5JXV1dttiYPFKFAIkAAAAAAPhFbW1tNpPJZK9cuVLz/fff24ULF7TXu723t3eNmXXmAjkqBFCsZjN7u7u7u12TKzSBQLv5ox6z6CkDwcYJAAAAAFCNxowZ05NKpe5+//3398+ePTulo6PD7ty5MymdTn9sZmtzFQIETiiWYviW7u7uCV1dXTWKxTXGoqbGhfYFf7+K7iFAMgAAAABAtWtoaLiXTqd3X7p0qdvMpmot1cw0JF5LuHW5/wPFct+lRCLRlEgkGnLV+4movf6K6iFAMgAAAAAAzG7dunW3ra3tn2a2WzsIcpfEJwVSURq+AXm0mtkHY8aM+V1jY+MbtbW1Y548eeITAsPfVJAeAgAAAADwgv67d+8+NrPHXBoMs3ljxox5VFNTk9E0i2IUXLYS7CFAYgAAAAAAgNioQqCxv79f/QMibxXwCk4I+DdkuwAAAAAAALFK5eL4RCkW6CM3tqA6AAAAAACAkVGKRXo6XQIAAAAAUIUi9xDw2QgqBQAAAAAAqDyRKgSCpQn0EgAAAAAAoPJEaiqoqgAqAwAAAAAAGBmKyYNTAKOI/GoqAwAAAAAAGBmKyf0UwKjjByP3EAAAAAAAAPELx+VR4/RIWwYsV55AlQAAAAAAAPEb0S0DxoQBAAAAAABiF3WLQBhbBgAAAAAAqDClqNgnugcAAAAAoIKUaqGehAAAAAAAABWo2K0DJAQAAAAAAKggSgT4nn7FbB0oOiFAY0EAAAAAAGKRzd1cIkBbB4qJySMlBPTGjBwEAAAAACBWXWbWZ2bpUizO10R5kd64FOUJAAAAADACtDCayv1M+BVXoMzpe9pqZg3pdLo2nU4X3Vyw4ISAb1pAIgAAAABABRprZpPMbKqZNeeSAqUZ6g4Mn0zuNsHM5nd3dzc/efIk1dDQoNg8GzUxUHBCwL+RrxDQT5IDAAAAACrExLq6utX19fUra2tr2+vr65OpVCpdzKkrHgpWUAdLucP/j0Mx7znYawd6rJD3G+xaRTleIecZl2B8XKrzSCaTmUwmk85ms+P6+vpm1tfXT6qrq0sFHo903EhbBjx6CQAAAACoMFNramrWt7S0bJ0yZcorLS0tiTFjxmTDQZwPKsPxTvi+4P8He6zQ+wbzsuMGz9/LF6TmO4blCdoH+mzhYwz0+qFco4F+ho+d75yGmozJ9zt92fvm+6wvuzaDfc58Bjte6LNlstlsTTqdHpPJZOr7+vqST5480f3Z/v5+i7L1paiEgO8lQFIAAAAAQIVorqmpmVtfX7+4ra2tdsqUKaaya+3HDgeGYYMFhDbE6oCBguWXrZrne374/V8m3/MHSyIM9L4D3VeIKFUVQ/n9DHbthnqthvr7GOz8vEKuzVB+r/7x3t5eu3v3rnV1dRUVjxeVEDB6CQAAAACoLD2ZTOZhJpO5393dPbmjo8MlA3SzAoLKl1UQvOwY4ee/7LVDDUwHWt0f7LO87LkDvUcxSYGB3m+wyobw8wsJ3Ac756Gc/1B+L0P9TFHe0x/bbw3o6+uznp6eouPxopoKkgwAAAAAUGFuZDKZAx0dHWOuX78+89GjR6na2lqXDfCxzmABqZcvqBzoOZanimCwsveB3mewYw1lG8BA5/WyrQYDrVoXsh1ioM+f7zMOdn4DfZbBkjQv+8w2SIJksM83WKXFQAb6fQ12TXJ8U0FtFVBjwYm1tbXj+vv73RNyiYKCSzUiVwhEKQsBAAAAgBF2rbOzc2dnZ+fNGzduvJobP9gfOKVsLvDy0VkydytGJnAjkKou2cDvPBkYdVkofXeUuGoxszfa2tpWTZ06taG+vr6mmO9U0T0EAAAAAKCCdJrZBTO7bWaNuWAqPHawP3BfKncrRjp3TEqsq1cilwyIGsBnc7c2fZ8ymczMurq6GTU1NTUJdRvMRJucGWnsIFsFAAAAAFQoBTPdudvtAT5CXe7Wp54DJfqY41XuTVKg6iRyv3N9lzpC1ShR3DGzNWPGjFEe4Jf9BHElBPRGVAYAAAAAGKUUIy0ys5lm1mVm58zsUpEfdbqZvamRh7lqgSyJgaqRyv3OfWXKsdy/o2o1s/aenp7J3d3dLp7XzMyammjF/0VVCFApAAAAAGA0GT9+/PhMJrOuv7//w3Q6nUmn099kMpmvzeyhmdUW8FGzuRLxsWa2qr6+fktra2t7c3Nzpra2NptOp7PqEv/o0SPXLX7cuHE2YcIEF291d3dbZ2enaQKC/t/S0mKNjY3uoHqu7tdzUqmUzvfZ2ET/mH7W1ta6140dO9Z1pNfxdNPz6uvr3fuNGTPGPVez7PWY3kvvo5uOHX4vvY9uCj71/IcPH7oFYx2vqanJHU/0mR4/fuz+HXxM7/3gwQN3zLq6Onfuul/H0xz9e/fuuTF6Ome9Rs/R59D7379/352PHtPrdL9ep3O/deuWOw9dP71O56pFbD12+/bTIpBJkya5c9Fj/hzv3LnjjqPXBR/T8XQuukYaS+mDbZ2/HtPn1rWdOHGie73oHPWY3rOtrc29n86hr68v2dPTk3nw4EH3/fv3T2QymQm5BFOqgK0Drg9BQ0NDTV9f36K+vr5VSgh0dnYmA49HEimNEKwQeFkXRQAAAACoFI2Njcne3t4JyWRyRW9v76vpdHpuboX/bq7kfyhBnK8AUNDXbGYLk8nk0tra2uZcQJ1VkK4gVkGobgp+ddO//Zx5H2wqIFXAarmgVM/T4/51esyPTdT9+rdeq2DbB7q6XwG/brpPgbVeq//rXHTz76XX+fdWEK7HdAzdr9f5AN4H0D4413F17nqeEgaWSwj41+k1/j31Wn+O+ukf0/sFP5c/D/3UY7pfr9FPfx56TOfoX6MYVY/p+fq33s+fnz9nnwDRLXiddP46nu4Pnp+OE/7M+kw++eCvnT+eT45oi7++C8lkUt+HWbkeAJdzsfhQm1W6ZpR9fX312Wx2jr6byWSyyW8TCGwXKDgwp6kgAAAAAOS0trZ23759+2Imk7nS39+vbQPLzGyKmT2JWCGgyHB8b29vvVadtYKsoFFBnAJMH4zrplVrBZh+tV+PWy4o12tF9+lxH+ArsPWr7/4x/dRjfiVe76Xj++NpFV4r9f48dHz91E3H02q8HgseT3TuCoR1jn4Ovl6j42nV3K+k+3PXY1o5D7+Xzl0/9Tq9xn9mHVPP12PBgF3H8u/lr6H48/D/1wq9P3fLJUf0HnL9+nV3nXwSRu+jm55z9erVZ8G8/5w6rs7bJ0P8Irge07nqffRav0Cu4/rXqfJAFRLB88glXObnSv47comlgioE0um0vn/jk8lko09i+PP271WoSAkBfeDgDQAAAABGg0mTJnXfuXPn2/7+/tZ0Ot2dzWbn51b5G/NMIxg0bAp0lk9ks1m9NukD0mATOL/Q6rdn+wA8GH95PnDXzQeBL9vSHXwv/VsBrQ8i86wyv/Ba/1hwdr6OEXxt8HnB4/nER3iPe/Bxv+oefL0/x3yf23/24Of1/w5eFwvN+feJEh/AD/a5g+/rj+ffO9/7hn9n4c+ZS5Ckc1UmqQITAu6tcq/vTCaTj+vq6uobGxuVHEgO5XMMJPKWAX8DAAAAgNFi165d/fPmzfvp1q1bfzOzH7X/38wWm1lTrlP8UFZE/ZaBmlwiYXpTU9OMefPmjZs3b54rNdcKuFagf/75Z7eS/+qrr9rMmTPdir7u1953rTQr5po+fbq1t7e7oE8r8Tdv3rS7d++6FWI9pn3uWoHWqrVeo1V09QHQ8bTPXe9148YN9zoFsNrjPm3aNPccvbdWz3U80bF009YGHU+v0/kooPeP6Rx1rJ9++smt3GsP/uTJk93efgX3es2VK1fce+n9dWttbXXneOHCBbcir/35+szai6/30jmeP3/efW49V+en4+laabX97Nmz7jz0ProW6hWgx3QeJ0+edOfx2muv2dSpU59tYdD7nDp1yn2uRYsWPdvzrxj60qVLdubMGXcNFyxY4N7TV1roNTqXV155xZYtW+bOT59FFQUnTpxwn3v27NnumH4LhKoDjhw54s5f9+tcfBJCv48ffvjBLl++fCebzZ40sxu5pMBQl/X9aMzOp7F/pimZTM6vqalZmEqlxgbGDhYcoBe1ZQAAAAAARpvz589r1ODPudtZM5tjZg25kXGFJARqc5MFNk2YMKFlw4YN4z788EMXyCoQV1C6Z88eF5CvW7fOtmzZ4gLMa9euuSBXN/1//fr19sYbb7gDKxhVUHr69GkXTL/99tsu+FTgefnyZTt69KgLuhUYv/POOy4poGD18OHD7nUKeBUAv/nmmy4IVpCtxxSwKrBdunSprVixwiULFGx/++23LjhWAK7gWDcF1Qqmd+/e7RIUCoCXLFliM2bMcOd47Ngx279/vyuV1/2LFy92wbXee/v27bZv3z73f527zk/HVkLg888/d69V0kSfWUkBBeNKVnz66af2448/uvN76623XFJAAbzu07YAJQ10/VavXv0sIaBrofuVpNB117n4fgB79+51jylJ8Lvf/c7mzJnjHtM5/u///q/77Hr+v//7v7tz0GuUEPjv//5vd81Wrlxpf/zjH5+V7Ct5ouMp6bFhwwb76KOP3LXQ8c6dO+euxZUrV65ms9lPzex4xISARmXWZzIZbWNpUx4gV12RiLVC4Lkzo6kgAAAAgNFLDeCu54K3QgMfRWtzEonE9JaWls758+e7INh3zlcwqgBfweLChQtt8+bNLr7SyrZiLAWeWsFevny5C5B138WLF13QqUBcnewV2CtIFq1sK7BWgDxr1ixbs2aN++n37KtHgRIHCnQVtDY3N7vj+IkGOq/XX3/dnaOCba306zU6npIPOg89pnNUEK8EhCoSlJDQe82dO9edhx7X59JnVLJA564AXuevz6YEgxIBCqr1uAJunZ8CZyVDdM76XLpeOietsCuZoXNVskDvpRV6vY+qHZRkUGCuc9+0adOzRn/6qcf0019DX+muz7Vr1y6XOFm1atWzhIvOUYkEJW1UwaDP6xs6KujWa5RA0fvrvXzVvM5NSQsleXQ9dH39tVClgxIkNTU193t7e4+Y2cEoq/m575+mFMzMZDKpbDab9LF4bD0EwpkHkgEAAAAARjG/MhvV/UQi8aSuri6tIFql8pbrvq8g23fh1/0KQkUl+P7/uilw90GpVvX9uD49pv8HH9PKvv6vn/4x3Xz5vZIJOrYCaQXRuun/eo6qEfReugXfy48b1P3+HPWY7vPnHjwPvw1Awo/5cYL6v+7XZ/XXQ+esx/zn8tdK56r79F56jh+n6M/DTx3Q83V8T+erx5QQ0L/9OVnuMT/ZIXh+9nTSxLOpBHqvIN3nxzP6c7Bcg0M/qSD4uwyeo/oL5sZXFvN9eqTCA+UAEiXYw19wGiGceaCPAAAAAADklchNGajVPHo/alB8R33fjd+P/bPcTHs/PtB32A8+pv/rMd30/+BjOo7v2O9f56cS+OPp3/51/r10v27+GJabFuAnBuQ7D99YMHg8C0wZ8K8JPqbn+saG/rNYrule+DF/rfw5+euU7zx0v3998Dz8OQZf4x8LvleQfy8/BSLINw8M3+/fy4+MDPLnGJg6UYwxT8PyXxodFqPghIB/w5d1sgQAAACAKpf0UwZ87BTsbh+c3Bbu0B/s5B/uah/sqJ9vAkH4mOH3GuwxC3XsD55XvvMIvj4ofJ7h1+U7j/Bx800CCL9XcIqAv2b5nhu+xsH78517vtcEr3f4NYM9Friv0MkC/397Z/Yk13Gd+VNbN7obO0CAWAjuC8RFpChSImlqMSVT1tjhGNlyhEMPcoTf59V/gF/96ogJP3geNDG2Fo9khRgamkHR9IhaSA4hAiBAEiRA7Du60ftSy8SXvKeVSOZ2b1U3IOH7RVR09c2bmSezqrrrO3nypI+a/X6qulVAqVybuQMIIYQQQgghJA/7yD4bX8S1rbVCEdkhLRaL4I7pN7uePrevoW7IVl8/oftD9VP3+oS7XRayJ1Yv1GfIpn5O2ht0ZH2/kQFKX+4EHj1ICCGEEEIIIfn4BKt4xLdEFmFVbPsEa674jaxiB3+WHWdOPd+qepn+dC5yxu2bgzJ61hfx4OIrW6mFdNi+6lsG+g1JIIQQQgghhJCbjZQo9EUOhKIEYiK2bERBrFydDvqIORHK9KdthVb2yyw8u6v5sX5z7Y85GTRMP9TP75pepronhBBCCCGEkBUmR7C6pOrErocEvkRWxkNRBGW2AOTYGIuKCI0hdytEFWeJ777Y/P0+UTmpoMI8AoQQQgghhBCSR2rfuvu8KrF+XCGeWlUPOSZiQtyOLMhhkPv1y1B1y0CoXiyEf9DaeRDtVYoQSL1pCCGEEEIIIYTkU3UPvU1O7gHf1gR3S4DrnMiJKIhl6vcRCvWvsuUhlkMgZ15jjg63H6m4LaBqhEWMQbRXySHAZIKEEEIIIYQQMjhyIgdsQiHtMWGdI+B9ZWWu5RJyGKQcCSGqRl7EhHosCeGNsEB+3SIEbAPoGCCEEEIIIYSQaoQS9qWO0vNhJ8NLifrcvfapOv3qwUHkBpCEg6GsiI8lUZTEloFYm4NEoxT6TWLY1ykDuUdJEEIIIYQQQgj5JLEEgLHV8pg4D0V0p0RpqE5IIOeI3CrCOXSsYk4/ZZMKxiIwQsc6hk4Z0LLVoN/jBpVKSQWZQ4AQQgghhBBCVp6yuium1XLb8m0fqBLan9r3H6oTi3IoY3usH4kscKfGHGsvJNRXQj/H+sulUoQAcwgQQgghhBBCyMqQs9IfS/QXKu/nGENfP9JHKLwKfp+AD0UIhHIAlL3Hvh6bw9j1G0EP2+Oq6hiofMoAIYQQQgghhJDBk5vgL3XGv7sHP5XJP0Usl4GbvC+1D18iwjtEamuFj1Qkg88pMYgoi0HX9WHPXdWtCpVPGaBTgBBCCCGEEEL6I7XiXPZ6iNBqeJlEg7HV+NA2A98qfyqR4KDyAEhmJEOZOQ6F6euYQ8J8JSIKBpGzoHJtbhkghBBCCCGEkOqEVvOV1Hn4vvtj4jYV+t9PBEHsiD73eipqoGpeghT9LmrbtlfJ7TBIDa1b+ftuZyDWEEIIIYQQQghJ4gvjr3JEYJU8ALlH/PWTfNC2WceW22+OnamyUNRCjNy5dLdF+MpCe/lXKkJA+1vVHAKEEEIIIYQQQsqTkyhPHHGbe+ygJFbYc7Lkh665Qj13lb+qPSFHQch5YuctCI1nUKLcF6af43z4vcgh4HoeuHWAEEIIIYQQQuK4oea5AjKVONBmJTLg5wj7XPtcUuW5jhDd199ut82jLGVOGpDAanyVsfQDbLgupwy4ngcmFySEEEIIIYSQOK5Yz1n970dk5p7Hn1rpt+/znSRQNs+BXZ7aFpHj2MA90KhTU1Py3nvvycGDB+XKlSvLbTcajWvGkENqrqqsxg96Id21YVVPGRA6AgghhBBCCCGkNG6EQCw/QJUQ/1hZ6pprU2ybgHuvL1Q/J4Fg7vhDzodmsymtVkvOnz8vr7zyivzsZz+To0ePLmfgt+2zRbO9xSAWaeGG5Ws0QpnTE5x+BiKkNSKg31MGmlU6ju3fIIQQQgghhBDiJydCQKmSJ0AJna0fEuCx/AAx0RzrL+eIQfd5SKRLYNwQxHjAIbC4uCgPP/ywbN261Vxbv369cRjoc5t169YtOxM2bNhwTdnIyIjpa3h4WIaGhq4pwzXUwz1ueyhDRMLatWuvKUP76EdElkRkMjghfVB1y0Bph4DrZSGEEEIIIYQQkkfOvvhcnRUS/T5CIf45pwD42o1tSbBX+FOnHviiEnxt+vq0r8/Pz8vVq1dNDgFoVjw/ffq0zMzMmN/PnDkje/bsWW7z3LlzMjs7K9PT0+Y+2ylw+fJl087ExIRcvHhx2SmAftDu0tKSjI+Pm+cKtixMTk6aehcuXLim7NSpU6Yf+BpEZJeInLXNLx6dwmHQzokicI8drBopUClCQGGkACGEEEIIIYTk4RPfIZHurpi75Sly68SEeMxRUXOOTAw5OlJRAq59qUgFF+hTCHQIcYjuV1991fxEXQjz/fv3G7H8D//wD/KDH/xguTZE+vvvv2+cAX//938vmzZtWi575513jCMAbf3t3/7tNWL7zTffNGUvvPCCnDx5cvk6bPj1r39t+vzud78r+/btW7YfOQ2Q26Ddbt8vIv9NRC7aQy8cAWdE5A0R+U1RnlzyH4QOrxQhoNAZQAghhBBCCCF5xPbLu+SE8JdJxFfllICcPfwx50GZExVCNvvscq9hqwDuRbg+hD5W/nF9bm7OiHFo2Lfffnt5KwCA0wCr/PiJ+gj3V3AddRFV8Nprr13jNIEzANEIyFOAiAC1Ew4JlKHekSNHjGNAWVhYMHaIyEYReVRE5qwhQGCvEZFL2F1QbCm4knII+PIYVKGvCAFCCCGEEEIIIdUJiftQqL5khOKXua7EHAw+0R/bQqDOgLJJD2P2x+phfz729WOV/7nnnpOvfvWrxglw7Ngx+fGPf2yeP//883LPPfcsL3AjcuCll14yWwVQdtttty239+KLL8p//Md/yCOPPCLf/OY3jaNBx/Sv//qv8vrrr8sXvvAF+ZM/+ZPlOnBCIDIAUQdf//rX5dlnn10u++ijj0xfv/rVr46JyA9F5EPLfGwjuFtE7hSRzSJeeiuZAAAgAElEQVSyE4cjFFEDUa5rhECV8ygJIYQQQgghhMiypgoJ/1SovU+HpTLdxwjt3U/ZF3JYSEKwli0LORigTzU5IB4PPfSQfOtb3zL7/hH6f+jQIXPPN77xDXn88ceX6+FEgsOHD8uuXbvkr/7qr+Tuu+9eLkMEAEL+H330Ufmbv/mba/o7fvy4iQB4+umn5dvf/vY19h04cEAuXbpknBJoU4GT4MSJE/LGG2+c6HQ63xeRA84wnhCRr4kIvBJjuacBDiJCoFLmATt3AJ0BhBBCCCGEEBLHFcluFv5QhICvLKevsln/c0L8cxMS2mOq4hQoozV1qwCcAviJLQBIGCie/Hehvt0o+E6nE+xP7/W1pyfyuVhjqRWPa4bguZZEF+r7jeCv5BAInctICCGEEEIIISRPS0lkv76ttcouwoZ0Wkzop04nCJWlkgGmzub3XQ+V++xUEb5lyxbZu3evbN++3WT8B9jPD3GP/f2aV0BBFICW4T4bJAhEu8gtgP3/dv+4H/VQZgNHhDoS0LYN+i7KGsUWAZux4lqzSDBYSuFXPV1guX5ftQe0b4EQQgghhBBCfp8pE8pvh+n7hHHqGPiyOQbc9nxbBmLXfe2mnBkp50SoPXfMENoQ8Nu2bZNnnnlGnnjiCeMcUHQFfRAL2WpXFRE+6Oj6UDRCWfpOKsgcAoQQQgghhBBSndhKeSj8XyJh8GVyCfiODvRFK6TaCTk2ygpxOzoi99hBPNavXy/33XefPPDAAzI2NvaJcVSxJzTGmBgPhfCvRHQ92ut3y0Bfxw4SQgghhBBCCElTJYmeJKIAYqI8d2U+lsfArZMj0H32lT1twI6O8F13gShGDoG1a9fKxo0br0mEn2NH2QVutB86EjGkl1diEb1qtIINtwwQQgghhBBCyAqTc6a+UlVIx9rNWZ32Cf7QtoWYw8Je4U9tX0glFkyNyy4POUhSdcvOpW9Vvsr89oObVLBqpEBph0AsUyMhhBBCCCGEkDQ5q+tV9p2HkvKlIgZiIf+hPf0hwR7Lf+DaGbLHFfg5IffIJxASxrHcCSFCzg6I8bJbBgYN+rHtqxopUDlCoMp+EEIIIYQQQggh1+oqHzG9FVr5Tv0uHpFrt1VG31Vddbfrlz2BoKxzJJVTocoCtx4vWDU3wiAZxAJ9aYeAeh5ywlgIIYQQQgghhISpskodKisTtu7+jCWLj4nZnFD+UJu+/f2hqIbUFouY86Nqhv9Qm7HV+NXMIZCyJYe+tgwItw0QQgghhBBCSF/4hH1qS0GsLGdvvk+AlznG0D4NIFUnZ3U+Fc0QW5CORRukkjPmnKBQhtgpAytBv1sUKkcIEEIIIYQQQgjpn9ApA2VPJpCEUHedATn9VbHB7TOGzzEQO2qxLGX7lwwnQoxYhMCgkwpel1MGVitJAiGEEEIIIYT8vuEL2fdl8I9lyM8J4c89bcC+L7WnP7ZFIRTlkIpWyO3LZ2/K7qqk2otp4tWKEOj3dAGlUoQAtwkQQgghhBBCSHl8e+ZD5/uHwuRz9tPnHsEXs8PtM3fVPvd0gEHpykHrU/t0hbLEVuwH6RQYVOR+pVaqTg4hhBBCCCGEkDSxhHo5iQhDofgrhe/YwVi/oUiA2P39UKXd2NGKZblR9XNfWwboFCCEEEIIIYSQ6oT2sKeS6EmkbhVSq/1Vku9VOYFgEMLfR9WjB91oh9S+/dXcMjCINivHGfC4QUIIIYQQQggpR5VEfGW1VyzrvkSEeOjov6rRBanTEmKR526foUR/7lh9tlclNE9l9+2ncilcT/o6ZYBOAUIIIYQQQgipTkyE27/7CInj1Gp+aqU8J9Gga6fPiVElW3/qSETf9omY7VU1a8xR4YsQyDmNYSVzCFRNLshTBgghhBBCCCFkhUmJwlCegJgwdbHFsS+HQNkQf1dsh04SCBFzTFSNOKhCTsLE3L5SyRlXC+hy24aqSQb7ihAghBBCCCGEEFKdlLCPHc0XE/2hKIAcAW+L3tgpBLEoBjexYOi+Mnbm5EyItZfrhAid1CARx45eXy29fN1OGWBSQUIIIYQQQggpR0hAVkl0l7PaXWbV2xXMPgGfE2FQhVxNWTZZoM/+EGXzLfii5nNOfrgRYYQAIYQQQgghhKwSriMgJrR1lT22P9+9HosQkIijIEcwx1boU84Gt61YXz57UuNaKcrMo0ScBYNeTNd++tXnfdVmUkFCCCGEEEIICQIV2C0ePYi3ZrNp7m00Guahgg7PFegs/O47qx/344Fr+txXpuXatrah92h/aoddR8vs53Z7Wk/b0j5tO7Q9u2+xBL/Ws+dD29d6th12/+6YfbbbY9XrsXo2tvPBfV188+7a6GsP13ofewUGlpSvyokHLlzuJ4QQQgghhJCVoVc8PiGcfWJfUREdEtviiNNUmT53+xZH/Lo2uU4J30q/LfztMhXhro0+G3zXbXu1HY028I051GbsFATxODp85TnX3fl1y6zrN1SWfjoECCGEEEIIIWRlgBptichQp9NpzM3NyezsrBGpeI7H0tKSWeWdn59ffo7rCwsL5vfFxUVT1ul0zANluIbnKMfvqKPP2+32cj38DtCntocHnqMMdmiZ1sNzXEObbj3XRjxHPa2jNuJ39I+fdnvavtqO9nQ+8FPbU9u13szMzHKZ1sM9QO3QftUOtIn77H61b1zT52hT5xTX9Rrq46fagN91nrRNnQudKy3DfXpdXxf87PV68JqMOu+0JXUalWUQ2xCaZSvw2EFCCCGEEEIISQKtdauI3N3tdnfOzMysOX36tOzfv182bNggV65ckaNHj8q5c+fk6tWrcvLkSTlw4IAMDw/L8ePHzePSpUvm9w8++EC2bNlitNixY8fMvZcvXza/v/fee+YeiND3339fTp06Zdpes2aNHD582Ajc8fFx+eijj+TChQtGtOI57NixY4ecPXt2uazVahmbtm7dKps3bzbX0R7sgKiFHRs3bpSxsTE5cuSInD9/3vSFe9AXbMBqOMouXrxofoe9qKPOhRMnTpjxohz3wR70hWtoBz/RLsaFPlEX84Z5mpycNM/feecd83zdunXy7rvvysTEhPkdfb399tsyOjpq5gTtowzbEmA77Ma8IOIA45yamjL2oy+I65GRETNfsAPOBMwJ5gk2YHV/enra2AbnwZkzZ0wZ+kH7mEe8JhgjXh/YCHAvXheUdTqdDSJyn4gcFZHzItLuZ5F+EFv4SzsEmFSQEEIIIYQQQvw8+eST6y9cuHD3hQsXHpmfn/9Ut9vdIyIPnD17dsMrr7xiBC0EK1a9IdQh/CFMIUAhwCHKcR1iFCIT4hVi8vXXXzeiFQIWohSCGgIWP1999VWzAo37IJxRH8Ib923fvt0IWYhc3AvBCxvgfIBjQkU2yiAw8fytt94y4hl94Xe0OzQ0ZJ7DDohgCGLYC7tR9+DBg0bYA9yHcaEvFdUog40Qx2obHA2bNm0yfUH8Q9xjzHAK4Of69evNXEHUQ7TDDswb+oUzAONHO6gHO37yk5+YvjCHeOA+PDCuH/7wh/Laa6+ZcUDTfvjhh8tOl3/5l38xThCUwckCpwL6RFv/+I//aPpBG7Bx3759puxXv/qV+R394DWCzXCKYM5+9rOfGbs0ygB9YNzdbne3iPx5rVa7v9VqnRoZGdknIiempqYa3W63VyZSoMhJ0Lc+z3UpILThXhH5y9HR0b/eu3fvnbt37zYemIMHD77c7Xb/rtfrvdqXJYQQQgghhBAS4HclofmOHTseXVxc/ObMzMzX2+323m63Cy3VqNVqNQhp3VuvYlHD0yEsNcEeRKmGn2viPa0jxaqzRm5DxGqZr54KRr2uZaine+y1PTvRH8o0vB51fWWop7a747Ijy1074BhAG7hut4cy/EQ7Wscuc8elZViVB/Yc+srsnAwa8g/0ddF6uk0CdiCiQKx8BLp9A+1hDu2+dCsH2kO5vib6mmEMItJpNptL9Xr98tDQ0E8bjcbL09PTC0tLSw8VESW/FJH/jZ0egbfYVhH5xo4dO761e/fuJxuNxppLly7NXb58+f+Mj4//s4j8TEQu575fS0cI2KzE8QmEEEIIIYQQ8jtKc3x8/MFut/u1er3+qIpTO5O+ilkIRfwO4agC017txe8qJm1BjWtugj19aJuq0bRNvY5+QnVCZRCxKm7tkwVw3c3or+PE/erosOtIoSHVCeCOS20PlamzwD45ANfs0xTsvtSBoP2qgLedH/qa6BjcOYe4t1Hxj3rans9GjTaw56dwCBgHUb1e3yUiz3e73aFGo/HW0sfeiXaZt/112TJACCGEEEIIIeQTQHlum5+fx0rv3c1mc2ZoaOj9Vqt1rl6vbxoeHt47Nja2ASHwKjw1eR60IMLmUQaRp4n6NHEeQtaxUq2r71qGe3W/vK70a+I7iFKUqWMB17G6LUVUge59d/tCP7rSrkn1tD3UQzn6RVuamNBuD2jSQu0LD3UqIOQfdW37VCyjL5ShD11l17lCSD7mCdfVRtgBu7HlAkIcWwxQrqcNoC1sl0B9bDGwIwFgH7ZLwA6UaV+wEe2hHuYd2ypsBwO2C6BdvF7oT50z6B/toQzX165du1wHNk5PTy/Ozs4id8B73W53ba/Xe6Tb7d4mIp/rdDrnilX9VU/Y15dDgNEBhBBCCCGEEGLAUjLyBdwO50Cn0znSbrf/udlsHmg2m/d1u90/n5+fv39paaldCD9zLL2dtV9FuYaaowxiVE8X0DJdfdffIaQB7gN2PQhezZ6vWwA0lF7FrNuXrrTbYfz4XTP8a78acq8nA2iEgYbjaxvoS+3QEwH0JACto8JZx4o2tUxPJbBPB9DVcdsOdTZIsSKvdtiOCBX32p7WkyLCQO3Qn3AAaCSE2g/0BAM7qkBPF9DTGIot+o1er7fU6XQu1ev1lxuNxr8vLS3t6XQ6Y91u95aFhYWN3W53jX1EZQ5u7oCqyf8rJRW0z3LktgFCCCGEEEIIMccLIqveemwZ7/V65xYXF99eXFx8bf369UcajcZMIQTbtvhT8Q0xaesqWyi7essOFddVekVFLeqqo8Cuo30pGtavgtLt025P7/Gd7e/aaLfpjguRBPbRh3ZbdmSCO2Z7nmwdakdBuHagDGDF350nKYR0qC89GtLuT8vgLAjV06MPC4cAlHunVquNN5vNNy9cuPDGtm3bnux2u+PqnCmR228ZfY3UMVA1uWClCIHflYQehBBCCCGEELKK1ItHrRD8UJ29ycnJD7ds2XLh8uXLuul8WZkivFzDzV00JD1UBkJlOGnABeHvob5QBoHpqxeyMWVD1bLQdd06ULYvzGGVer6y1OvlKdP3wlKRKLBXr9dHCweSlI0MUOxtDLKaEQKul4fRAYQQQgghhBBihF/NWu1VoWcSxV2+fHnKuccIKZ+wVAZd5hPFOWWh9lbT9tXsqyjr+VbuizplykyEgC36O51Ow3mflMaO6JDVjhAQRgkQQgghhBBCiE23WAVeKsTemkajMdbpdDZCdzUajb0jIyPbWq0WVoh7OHe+2+3WFhYWasUpA73h4eFeEU5fK47nqxXJ/HooL0LMg2VFe+aeRqOB9kx5kTiwhnL5WDz2igR7KKsVuQLssl4Rul8r9sWbMrSFdov9+bXFxcVl24ujEZft1zK0VWTy7xV78M2Y1XZtL1SG9tCWzhOuFUcmmjLUmZ+fr2GhGn3BFim2HqDO3NycsX10dNTMu54uMDMzY+qhr5GRkeW+MFeogz6LZIldPU2gKKtjuwCujYyMdDWRIuZqenra2Ii+YIt8LNwbHewTabenZmdn3xOR01YkiVgRJZXpZ5G+Ug4BcfaNMEqAEEIIIYQQcpODjIBYIkYkAITrLY1G475erzfT7Xb31Ov150dGRnavXbt2sdVqdYoEfRCyjW63Wx8dHe2MjY11IEwXFxfrMzMz9WazaYTi2NhYF2W9Xs8I1dnZ2TrAvWvXru1AmMIJgLJms9mAEIYgRZ01a9Z0IZrn5uYahThGWRfX8Zifn6/jsbCwUC+cAV20p3a0Wi3THspGR0dNHZTBvunpaYhd0x7KIPpRhr6mpqbqEPmFHRDVxsaZmRmMt9FqtVCnUzgfeiibnJxsYi7Q/5o1azrq7IB9qAcxjjKMC9fhFICNV65cQb3aunXr2rCvOE4QNjba7bbRvKOjo0sQ6qgjH+tYrNI3Ma4NGza01XbM8cTERBOr+LB58+bNS7guH2vg2qVLl9BXY2RkpLNx48a2OjRgx9LSUhPzODIy0kabuB8SGq/L5OQk2nmt0+n8dGFhYSteVvltzoa+tgz0s1hfecuAndWREEIIIYQQQm5yEBlwplar4ZjBoXq9fpeIfKXX6z0gIrd1u92nFhYW1tiZ87HijIcmxBMrO74eH6jaS08Q0Kz9Wg8J7DTzvVsGNHO/nhZgbwFHmWbi17400R1Wzu0y2IXEfHp6gJbZe9j16D49JUDrIYu/Zu5HBn7tS5/bxx9q+2KdlmDPh86TnYxRT2dAe3pqgm2HXaa26kkAaAdzqMkH7ZMMiuMCP3HKgNqB9rUvva6vgR53qK9LMVe7ReSW2dnZNc1mc08RXXC12+3O6xhy6dcRoFTaMuBmiaRTgBBCCCGEEHKTA/V3dnh4+INut4sj5vZ0u90na7XaY71ebxhHy0EY28cHirXgCsGoWetV1CqxMghJPQnOfmiZ6jV9SHE8nn2Kgd2eHs3n1tMT5nx26HGEKlDVeSFFdn9tT8eLhx5VKJam1PbQhx4f6JahbbsvLcNP7OG399LbpyVMTU0ZW+wydX7oEYduPdiHJIt2mR6XaB0t+Ak77NfZLqvVanf3er3NRd9r6/X6yZGRkYNzc3OXnG0Eq0alLQP25NMZQAghhBBCCCEGxN3/SkS+X6/Xv1iv1x9sNpubdBVZPNnh9bldrmJVn/sSxtlJ5XxtKvZxgXZfviz1dj92vVBfvjp2mX0Nq+HqCBBPMjxfX64dsbG5c4iHHSkRm39FbXTHZtexIwl88+HOkzM2XNwCv0K9Xn+/2+2+3Gq1Xq/X6/B+3F9Vn69qDgF74phYkBBCCCGEEEJ+y+zs7MGhoaH/MTw8/JGIfLHX691Rq9VuHR0d3bZz587hXbt2SZEoz6wkX7hwwazYb9myRbZv3240FlafJyYmzKo2fr/lllvMsYAAK88ow6kASGyHOmNjY0YUYmX9ypUrpt01a9bIrbfeasqwko3rqIf7cDwe+kNiQbSHVXCsrqOvjRs3yqZNm0zbaA9lsAM2wwaU4TnaunjxohkHruMxOjpqbIRtGBe0I9pD2cjIiPn93Llzxhb8vnXrVmOfbhk4c+aM6U/tQ3tFckA5ffq0sQP9owz1UQa7P/roI1Mfc7t58+blRWzYePLkSWPT7t27TbtaBtvRJuYA9dauXbscjXDq1CljC9q68847l50AiA44evQoToyQbdu2yR133LEs/GEjyjD2PXv2yI4dO8x1tAe7YceFCxeQY+JErVY72ul0fiMiL87NzR2dnZ29R0QeLKvP7bx+Val8ygAhhBBCCCGEkE+wtLi4eGhkZGSm2WweXlpaurfT6Ty7efPmL3/pS1/a+dxzzxmxDQF5/Phx+cUvfmHE5+c//3n50pe+ZMTdpUuX5NChQ+aBe1H2qU99yvRz9uxZeeedd+Tdd981QvvZZ581whTi8MSJE3LgwAE5duyYcRR88YtfNE4BiPZ9+/aZehC1DzzwgDz66KOybt06I1Z/85vfmPYgfPfu3WvKIJQhfFHvww8/NML9kUcekYcfftjYgT5ee+01I7rvv/9+eeihh5ZFMOzGuCDSYTceEP+w8ZVXXpFf//rXsnPnTnn66aeNeIbzAvPx4osvGvvvuusueeqpp4xQh00Q/S+88IIR3A8++KA8+eSTZlwQ4xDa3/3ud804/viP/1gef/xx4yjAPB4+fFh+8IMfmBwAf/qnf2rsUAH/xhtvyI9//GPjXPizP/szM4cqrP/t3/7N9Icxffvb3xY9ZQD2f+c735Gf//zn5jX5i7/4i+U6cML80z/9kxk7XsevfvWry3Vg949+9CM4BI6KyP8aHh7et7S0dHZ8fPxokXviTufIymxC0RO59H3KACGEEEIIIYSQa7l69epxEcHjaL1e3zg2NvZZCFKIVimEHAQ6Vqkh2CG2VURi9VqFMMQyxCdEMIDohwjFSjRE8R/8wR8YgQ+OHDliRDgiDCCqv/zlLxvhrToOohXRAp/+9Kfla1/7mmlbk+0hUgBC+rOf/az80R/9kamDlXzYBrEO5wPsgFAHENtwZJw/f94IZzgfIO4BVuLhuECb6OsLX/iCiXIAcDJAIN9+++3yzDPPGIGvSfswNrR59913mzr33nuvuQ674bDAfGCsENy33XabKUN0AJwMaOOxxx4z41IQTfDyyy8vO1XwUDD/r776qnGcYA7hCFHQ10svvWTGg/bs8P///M//lNdff13uueee5ddLitwLcCJ88MEHZj6+8pWvLJcdPHhQfvnLX+Kec4uLiy9PTk6+Zb1ZcNrAUNWPj287San6VStyuwAhhBBCCCGEJGl3P17G7dkaqjgazzxwXUWxFHvZ9brep2gmf72m5+Db9XQPu13P7UvL7OduHbRnt2WLT+1XbbTt0DZiZW7fYu29xzV3XBrq7yvTebWvu+3b/YiVGw8Pt56OU+13y+BAca+7r5mvr97Hq+ptuZZKwrpfR8ByO1UqMTqAEEIIIYQQQpJAhY7iGMJOp1O3j/fDqrtmqtej6hTNsq9H92nGfSlyCOgRfHjY2eztMqzsaxn6wO942Efm+dqzj/GDHXoUoB79Z/elx+zZfUmxWq7Z++2+dNyaXBD36djUPrs9zeKvRyuintsXylDHPnLRtkNt1CMCFT0GUctsUAea1z7mUAodrDbZJwyoHfZ82OgxhrVaDe+HkUF8bPrdKqBUcggwOoAQQgghhBBC+se32Kor1yFCZe7x8GXazenPtdWu49a3E97FFpTdMj3iMOdeyZirKon3QnVutIXxQejyVT/nkBBCCCGEEEJuVlRUpoSqHvEeE6G+ujniO9RuqK6K9JhAjrVXRuDbuPXKjjdWL6cs1D5W58s6B1KOketFaYfAoEITCCGEEEIIIeRmQwWoveruiu1c4RhaMY+VxVbgQ1EFvv60nRyHReieWH8+p4XP9pxV8phjIjaHvue+HAGxtmQFnQGDaLO0Q4CnDBBCCCGEEEJIOVJiMRSOHxOxPnEcW+W3RXyuOC4j5n3lMQeErx17bFVs9DktUvgcD6m+fHaHnAVVti2k0ESF/S7YV04qyDwChBBCCCGEEJJH2X3xOZorJGQl0V+ZlfJUnoDUlodcu3zlPqGfmkefvWX6tK/5HCwqwkOOktWKqL/uSQUZIUAIIYQQQggh/VFlD3s/e+JjCQJjq/UhW1JbBlKJ+XJX4XO3H/jar6Jd7YgKF18UgGrkQR0HmCJ0/GHpdlbDWEIIIYQQQgghebj783Ojs1OOglibMeEcK0utrpeNLk+F/6ccDIOMZC+71WEQIfy5oJ/respAbvgFIYQQQgghhBA/VZPylQn9lz5XykPaL+RgyIkCcEltR0jlWki1W2X8sXGE2gqt2A9aN7v9VHVE9B0hwK0DhBBCCCGEEJJHrqDNiQ5YKS3mE+K+beO2aA+VhZIDun2lkgnmEotk6DfSIpZPQX8PCfNBv1aax0D7q7p1gFsGCCGEEEIIIWSVqBo+75ISrWVPB8g5XrDMqQZVEvmlynPmrkzyxhCpbRWxpIIxu1bCgXNdcggwKoAQQgghhBBCylHmGDu33L1WdstAylHgu9e9FktwGLIlFKqfU+a7nmtvLrEcCLHrVfq8EbfbVz5lgBBCCCGEEEJIOR0V2+Nv3ycZwrTMXv1Ucr9Y+H/Otdh2ghBlHBpScfuEvXWhzLjK5hzQe0Mr9iu1qN5vEsO+IwToHCCEEEIIIYSQPEJ7z21ccV5273sseqCqqK5C6GQAn82585JqJ3a9Sg4BX5965J+vzmqdMmDb0lf9fg3g9gFCCCGEEEIIySN3Vd/eFlA2a3+ZqIKcelWwHQGpyAX7Z8yBECpLzUc/mtV1DpQ9CnIluS7HDroeD0YIEEIIIYQQQkgevpXw2NaAsvv2pWKuglQ9t26uCC8T4RDrOxbGn9t+rmMgZPOgcxUMglXfMoCQhDJvBEIIIYQQQgi52Umtkpc9X18C0QaxFfbYvvjUqnxOSH+Z8hChVfh+k/nFHBO+uY/dX+WUgUGj2xZWfcsAIwQIIYQQQgghpBz9hN6XuTe0op8jqKs4ElJbHlL3lKXM6QM5faRyHPjudxfJbfoV6Lm4urxqpMDqWEsIIYQQQggh5BOEQuCritxQNLctzstmz6+SoDB3Rb9saL5blmNHmeiA0DW7LCa+Q2WDjihQx4P2V9URUWnLQNk3ESGEEEIIIYTchECtBYVTaF+/nUywbBLA0Kp86gz9skcW5jotYmK8X2eAbUcqGmFQaITAjcAgbGlWqVQ2rIIQQgghhBBCfo+pFQ+XRnG912g08JBm82MJhp94qKBDmaL34SfK3TI8VAz6yvS6lmk/dh3bDrtNX5nWtTWg1rHr2WWo445RrJx0PhvtfAWuHbYzw+3Lbq/VagXLXPvtvmzsemqDJJwqOk59+NornEMd5z3SLq5VivnvN6lgJYeADSMFCCGEEEIIITcxtUL4DxcPKQRevdBbrW63263Vaj1XyEK8+kQ/rtvi0halKNNyiExbANtlaG9oaMhcx30q7judzjXCWW3Qe2wBjzLbYeD2Zdtgl9ni2LZDLHGs7Wk93Ivnaofbl+1k8NnhzpNvbDb2vNvtiRV+774uYjlufH3pfITsqNfrUO9LzkdlqXAKRKNJVoq+HQKpUBFCCCGEEEII+T0HCnKtiGwqhjlnOQTWQEdOTEw0T58+LceOHZPh4WGZn5+XEzIQmroAAB5WSURBVCdOyOXLl2V6elrOnTsnKIe+OnPmjPl9YmLC3Hvq1CnZuXOnafijjz6S8+fPy+TkpBHax48fl7GxMaPJ8BxlqId20RdWkBcWFkybuAaHAJ4fPXpU1q9fL1evXl3uC6JVbVyzZo25jvbGx8dNPdihNsJ2XIcduAd2qT48efKkKUO/aAN9Ybyw8cKFCzIzMyNXrlwxbWB8o6OjphxlmAuUYSwq1tEWrk1NTV3Tl84Hrs/OzhrbUE8dEmgf7eG5zqGKfdyLOrAf92EOVdtevHhRFhcXTb+wHXMBMAeYw6WlJbl06ZKZRx0z5hFziDLYqGVoD+3Dxk6nMyYie0TkokaOiMi64tpWERktnEtJBnXSQWmHgBuSQGcAIYQQQggh5CZGBRGE3FjhCNBrw4WjYN25c+dG3nrrLdmwYYMR4nNzc8viG0J4//79snbtWiNmISjff/99I24hiF9//XUjNqG9ILBRBtGNa6+99pqcPXtW2u22Eb3vvvuu+Qkx/uqrr8ru3buNAH/nnXeMuIWeg4CFuN24caNpA2UQ1rpKD9sgkGHXwYMHTV8QxSiD8IUjAm19+OGHRujiOvqDXWj7vffeM+1BHEPwo//t27cbG99++21jL8p+8YtfmPswbohz2IGxHzlyxDgJ9CecAXiOMowPbR4+fNiUwQ6Ib/Txm9/8xrSrkQeHDh0yY4BNmEMIfHUW7Nu3zwh/2PTzn//ciHbUwe/oA+3Btn//9383cwHgtMA1lGGsP/3pT5cjAzCPeD3hYMCcvfTSS8sJCNE25rDb7W4RkacKx5HuK4BD4A4RuQ1dFBEDSZFtRzFIH1sHSjsENKmgwggBQgghhBBCyE1Op4gKGC8cA/PFdOiK8O1zc3OjEOoQxJs2bTIr11hthmCFqIZghKCF2IVQhcjFKjQELMQnVqx19RrCEz8h3FW8QpDjfpRpJAAEMYSqroKjDq6rhtu8ebO5F31DbOu+ffQFxwVsQxnqwQmAcvQD5wDag3MCQh51IKRxH/QiHBmoi77UWYDfIdZRD04F9A/HAeqgL8yBCmqMHX3ApnXr1hmHAJwIqId70CbmEEIdfWk0ApwD6AN1YS8cFhr5AIcC5gllGL86MwDsQBuYe9iMPtAObMbrBQcO6uB+jFkjLvB6jYyMmDGjPuYSZbAJTgGMUSMGCocOxP+92EVQaPFaERWwoXj/vIugh2ILQRTXAVA1uSBzCBBCCCGEEEJIf8AhMCkiM4XGsld/IfY2j42N1SHAEbYOIQvxCRENQYmVZ1zbsmWLuQ6xB4cBRCbELwQzynTFGcIY9XAvVvlRBhGP9lAHohcPXMcD4hiCFGW4BwJ369atpl0IXXUa4DnKtm3bZuyBONZQfbSBvjAG9I37sUIPcC8EOvpCG+gH96AvCHq1A+IYv6MtlKO9W265xVyDvRohYZdpKD/6wlzgd9iA/nA/RL4KefyOOmgfDzhI8BP1MVaMWffzY5wow+86h/qaoA8IbNiBOvbvsAM22n1pDgOMQctgH0B76kQpVv8nRORy8T6B82iq+B17DP6fiBzOcQiIk9hw1SIE3I4ZIUAIIYQQQgghximAx6LlEMBe8RP1ev3M5s2bZx5++OENzz33nBGeWFnHdgE4AyBKH3roIUEZxCpWoSGSIfJw7+OPPy6PPfaYaRAr9irEITqfeuopue+++4wgRnsQrRClO3bskKefflr27Nlj+oBIhWiFKH/wwQflc5/7nBHJ6lzQ7QKf/vSn5YknnlheoVfRjPpqB9qH0wARCnAmoL1HHnlEbrvtNqMPYRfGh74wLrSJLQPQjXBcwMkAxwhsuOOOO0zbsFFzAdxzzz1mXGgPdsDBAHGP+bj//vvNuHbt2mXsQlQAVvhhB2z7/Oc/v5wIEeNDGZ5/9rOfNTbaSQ0RNYBxoA76xDXYiL6wfQFz94d/+IfGBswPbEdkAbYN3H333cuvl+YQQFQAxob5+PKXv2xeI9iMCA/UOXTo0OVut/uGiOwv3iN1K5cAnAKnCgdBaVYtQkA9D3QCEEIIIYQQQogXXa69goh0Eflw48aN0xCdELMQrFg1hmCFKIWwhqh/5plnTCWErEMgQ5hCjEJQQyADCGusiiM8HWIWIvjhhx82ZRDiEKZYvYfQhgjGTwhz3aKAFesHHnjAiGCskuNeTYgH8f+pT33K9IXncExA4KIu2kY/aiOcCBDjcFhgXHAi3HXXXaYMmlETCaIvlEHAA1zHNgeI/UcffdT0h7Zg44EDB0y4/e233y6f+cxnzJxgruAQeOONN4yN6APj0r6wuv/CCy8YUb53797l+VVQhrGo7bq4jXFhTDqHcBYoyDcAm2Az2sMYdVzIG4Ay2KhzATCP3/ve94yz5t57711+vQCuvfLKK+gb0QFvi8ivB/WxWfVjB9XzoBNJxwAhhBBCCCGEeNGIgcVGo9HVY/wARCYeupptH80HJ4CWoY4KUi3DQ48CtMvwXEPi8VOz42uSPbQH/Ya+tEz322s9DbfXMvsoQ7cvzTng2qi242H3JdYRfFpH62k/9rh0rtQOjWKw29O5gD5FX7YzwK6H9uxIdzvU37ZdiiMF9fhAu8w+2tB+vbQvreceY6j5FwpH0cIgPipubr/K7ZStwAgBQgghhBBCCMmiUSSQa3U6nTpWwbFCDxAhgAd+h8ZCOLqiZXo/nitYdccD190yPEc72D6AurgP4LleRx08R1SCFO3hd+0Lz9UWLVMb3b60PdS1y7SO9muX4Zrap/ZqHVxDPyjXuVE7tB6u6bjUDtTROcR9CsZo225rWNyr9Wz7pNj3j3vVDgX3ant2P1L0hft1bDY694X+vtb7UJF+IwOUahsNnDwChBBCCCGEEEKq4S626u+xfG0hPRaL5HZPiwu155bZ9rjXff3p9Zyo8tDY3evaXplxuf2n6qb6stuOla0Wg+iztEPATlbAKAFCCCGEEEIIGTwxsadlOfekrim2uHfrVNkujntDjgT7HtdeFeK+OjEbU+2H6sbqhRwQ0MShtkLJ/VbCYQDbqiYTVCpvGRBGCRBCCCGEEELIwFEhOsgF2NTpcLHVb58tuQI7N8IhFr1gXw/ZFnNa2E6NXHzOjKqvx2ro5qpbCPpzJxBCCCGEEEIISRIKjVdc4VlFbJcJzc+l7Kp8qix1Xyq8P7bVwf3ddiCUmZuUc8EnvlPtDzq63o0MqBopUNkhwO0ChBBCCCGEEFKNkHBV3H34bpmPVBRAjJhojV3PFe5lxjBIcuYkFq3gu8+X4V/LBpXsLwX6ue45BITbBgghhBBCCCEkSZkweMnYNhAT3TFBW1a/aR1f3VB77phC44vZnkrql0sqj0EIX2LBnJX+fvf0VxlbP1TKIVAmIQMhhBBCCCGEkHxSWitnv/xKbB/IbccW4SFHQk6Ug2/lPtVnWSdClUSLsdX51YoQkOt1yoDbMbcOEEIIIYQQQkgernDNOdLPJbadQAmJ8CqZ+kNJBSUjvD5WN9f2FFVEfcyefvIjrPYpA/06IJhDgBBCCCGEEEJWCd+Rgb7Q9JyjBWOnAZTNtp9zAoF7EkDKKdFvZHkZzVl2S4bdR5lIhJhtqxGVYXPdcghwywAhhBBCCCGE5FNVlMYy66cy7Ifa85GbD8DXZqi/GDkRCakTBULj8NkxSEG+mlEAObb0M7ZKOQToDCCEEEIIIYSQfKqGracE+WqQGw3g2q+2h05KcCMOfM/d+8ucuuC2W6XcbUvD9Ktsaxj061XVFpu+TxkghBBCCCGEEJJHzn51N2dbaNW7TC6AULm9Ih8Lgw+VD+q0gNyIgqrOkbLCv2wdxbenP+YY6Zd+9XlftZlHgBBCCCGEEELyyRH37mp4SFCX3bMeEuepJHpVxGxq+4Lvukvq6MLcMcTaCF2rRY59DIXp45pPoN/IurkvhwC3DhBCCCGEEEJIPrlCPUaVPf2SsbpeZktAyu5YgsMch4Yr8lO2pZIpliV1GkPZYwcHvWUAjge0ueqnDGiHuV4dQgghhBBCCCFhUiI2V9zbIrrMKQP2fv8QVfbiD7LO9UhsP8g+B21/v44ApXKEQI5XhxBCCCGEEEJIWle5xJLoher6jgUMteu7niJXwNtaMRaSHxp3aKyxerGV+6qa1eckqeo0WQlnxiC0eCWHAJ0AhBBCCCGEENI/KYEZW+kvc1a+fX8ZcZqr/WL7/WMivaxQrqpFB3GMYT86eKU1dNWIgUoOAdvjwy0DhBBCCCGEEBInJYDdLQJVhGiZIwrLtCmB1f6ckweqHLcYixJIMYhcDCE7UlsyYm3dqLq58rGDsaQNhBBCCCGEEEJ+S8oR4FthzzlKL+Q4KHMMXz/54UKr/3YUQ9mEhGW2OqSIHX8YI7T4HZorvb5apwxoP+7P0u2UrWCHIjA6gBBCCCGEEEKCdERkCT/r9Xqv0WhIs9k097ZaLfMcmgpiDmUKyvA7HijTOmKVaR23Hu7VOvjdve4rw0Oz1rtl2gceeh3oWFDHLbOv2+1pmdqhfdt96XzgPneu1A53Pny2u33pc9dGd+51bOrQsNvTMek9NsPDw8t1XHGufcE3ICLtPj8uqN9Ve/pNLtjMuMcLnQGEEEIIIYQQkmRKROYbjUZ3dHR0+V6IxnXr1hkhCcE4Nja2XLZ+/XrBvSgbGRmRtWvXesuGhoZMG3bZmjVrjIjFT7sM7eMa+kV9tAvwE7+jTO1Qrad9oR/059qI66iHe+y+YC/axco46uBeBddhH9pDHRX36FNtQHt2HbSHMohwtwxtwA60adtnl6GePYc6H6iDcrs9gD7UHlfcw25c0/lTcK+WhewonENTfX5kJkVkQZ0C/VLZIaAM+jxFQgghhBBCCLkBqN1zzz3rxsfH109NTY0sLi5WiclGnT29Xu/2ycnJkQ8++EAOHTpkBOri4qLg99OnT8vly5flvffek/vuu89UOn/+vPn97NmzRkju379/eZX5xIkT8v7775uy+fl52bdvn8zMzJh6H374oRw7dkwuXLhg6r355puye/duWVpaMv2eOnVK2u22vPvuu7J161Yjkqenp83vsAN9vPPOO7Jx40bz/NKlS3LkyBHTF+47cOCAEb4A9sGW8fFxcw/q7Nmzx5TB3pMnT5oxom0I5O3bt5sy2I520c7bb79t2oWQhl0fffSRXLlyRY4fPy5vvfWW3HHHHWauJicnzTWUHT161IzrtttuM/OB6xgvyjDGLVu2LDsZYAf6wu94DgeAOjswTtiOMszh7Ozs8ouGPhYWFsycYMyYS12NxxziXtiKsSiwEa8byjAfKFOdDLtgo4hsEpFP471V5e09NDTU6/V66zqdDiYTIQo9dVhUjRTINQSd3Ssifzk6OvrXe/fuvRNvLEzC/v37X+71en/X6/VerWQBIYQQQgghhCRY7Qjlbdu2QXQ9PTs7+/TCwsJd7XZ7uOJCKJaLd6xfv373HXfcMaaiudPpGDEMsQ1Bf+utt8quXbtMGcQonAQQuRDEENObN282ZRCcKLt69aoRs6ijq/No7+LFi0acQoTv3LnTrHbDblxHe3gO8X7LLbeY+hDiWoa+0A9ENZ7DDghZtAcxDSeC2oH+IYAh+jds2GCu68o4hPa5c+fMGHEdD3UkQGSjDPfu2LHDOCXUDoht2IL2UKbRCnBoQHuiT9i2bdu25b4wdxDfsAMOBJTpe2ViYsI4XfD7nXfeaezQBW2MC84T2HXXXXeZOdQyXIejAXP0wAMPLG8hQBkcHGfOnDEOiXvvvXf5RYaNhw8fNvOI9vR1VjvQ3qlTpy72ej14ESaqvJFarVa7VqvNd7vd1o4dO+7YuXPn3mazOXL+/PnZy5cvvzg+Pv7PIvIzEbmc2yYdAoQQQgghhJAbnlV0CDS2bNmyfW5u7lkR+a9LS0tf7fV6m7EC2+9+bUL6QSMfut3u+a1bty7u2rVre6vVGrpy5crs+Pj4i5cvXy7tEBjElgGELfCTQQghhBBCCPmdZ9u2bSMLCwtPi8g3FxcXn+12u5urZrgnZJAg4kI+1uC3LCwsdGZnZ5uIcOj99s1Z+k1a2SGgfXa7XVg1w1eaEEIIIYQQ8rvO7OzsaLvdflJEvlav1xGXfqjdbv/fIplbFZCx7jMi8gTfHDcn1ukDZzudziu9Xu90lYno9XqNWq12d7PZ/Hy9Xt+OLR39Rs705RDAPg8kVBSRnSLyVl+WEEIIIYQQQsh1Znp6utZoNHAqwJlms7nQbDa/Nz8//z8XFxcvVrTsFmw9QIJ6EdnO1/fmpNFoLDYajZeHhob+++zs7DsVJ6HZarWeGRoaajSbzedrtVqzaoLC5QbLVkAWQw2ZKaIEdhdv8J/0YwghhBBCCCGE3ABMdTqd/9NqtT5otVpzo6OjByYnJ4/1Yda0iPxIRE7gBDq+wDcf0M2NRqMzNDT0wfPPP//m97///U7VSWg2m291u903G43GfaOjo3cODQ21lpaW1ClQ2jlQ2iGARBrYp4CMi8URB0iF+V8ef/zxo7Vardbtdj9xHIeGMfj23bhl7jGGvvJQWz60vTLHI/ruDdW37Qn1ZYdxhGzxjSt2LTUHqfti8+EbR2z8rn2pOrE+c667YTFVX9+cOu543H5jtvvs1X59dof68s2v24bPptS12Ps8d25S4/DVyZmr3M+frzz0uSljZ6rN1Gc9572Y87cudx77GdegP1+xsYR++uzr9+9wauwp2yXy+UrZmSL0+uW8j33j9D3PLa/6fomNwbU71/7cz1NsDDl/52LznupHAp/R0HhsWxR8j+r1ei0cxT08PLxuaGhoaXp6+udHjhz5zuzs7E9FpOoKJCFkcOD8uV/Mz8/jYTLbD4CjxYPcpOC9hMf3v//9viZgdnb2Ck6Y3LRp08mxsbHbWq1Wa3JyslY14WUlhwDOYcSxGLfffjvOtVzT6/XW4JqPmJiKfdFyr4XacK+H/iGnrvv6CAmv2JeTkH2xLyQuKcEXsynUXtl+xfkyVebLY8ienHmP9ZkjFlNiJjbusl8aU2Iqdm9MsPte49A8xMRvzPbQOH22u7alxuOzxx1LrN8cIZgSAlXbipES7y4xgeEbQ6j/nPdA6j2TY4Mk3kc5NuW8x1Of6dTnLCYqpcTnJzSW1PhCNvvGmprTHPty2nWJ/b/Nea/E5jznNfE9zx1z6u9Kzvsj529TmfdRaB7dMfna9/WB71HNZrPbaDRmJyYmFk6cONG+ePFib2lpqV6c6kQIIYTEwP+Ka/5Jpb7HxijjEMB/sh7+kcFLhrMXcX4lMh3in9zc3FypjmNfpN37cr4oKzFhIpF/9ql//jFbUmIi9gWh6pj7ub/fuqkv8rEvVLl2pfrM6SPWTuy1LTvHOX1K5nvdd1+ZOVVy5iolqH39h8pSgqbq/KXaS325j42rSr8xO3Lfn2U+V2X+PubMSa7YjPVTZhzuNZ+gzP0cVv27WOW9l+o79zWs0kbV9sqMadCfx1g/Sr9/F/r5G5zbRj9/63I/i1JsvWy329ifXJ+ZmalNTEw0Ll68eMvS0tKjOMZaRM4WzfY3YEIIIb9v9IrHRhF57OrVq7ds3LhRTxnQ6P3S5DoE0DH2ObRxxOCFCxdk//79JlIAYQ845qA4frDUl7KyonwQXwhy2gn9Y++n7xzBJBUcJDmrGqG6Zex2+wp9mc8ZQ25/K1EvNX8rbfOg3sO+tvoVGGVtXInP5iDIcayUHatL2bmOXc8RElVtirXTr8Dsh0GI9JW0JeXoCbUjme879/6V+rtd9n2UckoN4n1ZVpSHhHhq/nKdKbF2qr7mmfTq9XprYWGhPjU1hcWWPc1m8yu1Wu0h7F0umqj8hq85jtEbgZhN18ve1e7X7e9GeJ3K2hC6fyXHktu272/EapLTb9mxlMFXJ9WOz4F7I87bavdzPT+bsf95lkMAEfo7R0ZGdjWbzWaj0dAy+2c2ZRwCC9j6AMdAq9WSkZEReLi78G43Go1e7MuMOG+4mJfdrVvGWy/OC7gSol4C//xTX/5jdobaDLVf9otnqr0ylHX6VKGs8yj2hdH3hTDnS2+/zhvfa1tFkOaMIce+lEBIfRHOERipeQm1Ufb1jl0rQ+57oowoyLWpH4dCrCwlpnLuLXuPJN5zqXtzPm85n+Oqf1NzP1ex/mP35bQRmvvQWEL1cv6/5n5OY2PJFcI5c1zmb3CVv+Mx25Sqf0eqfo6LvmuaGXp0dFTGxsY2tlqtda1W6w58zyoWWaot9QQIiQVx5rDKl+BYvVBZTl+D/lKe+KJdqm7OfRIQWr6/V4McZw6D6PN6vIZVGdR7+0YZj49c2wY1pht5LnKoYv9qjjnwN8cswne73Ua3221u2rSpuWXLFpyKIRMTE9h6VqmvMg4B9NCGUZs3b5a77rrLhLytXbsWDoFas/lxUzHhkBITsS89NjlCUDz/6NxrZe2I3RMau08sxL4Qu/em7AuNNWec7pzExhprN/VlzPdHJ/d1iP3BirXvuyclTkLvz9jrkvsFPHeMIVtSn4+USIqNL9V+aA6qfC7KfPGO9e8+d21L2ROah9B9OYIj572U259EPnuh/nL/XuR+3nPGkZqDlNjw1fURuq/M37aQzal5yflM+frKtaPs/8oYsc9Y7H2UmkcJfPZz3nepceZ8vlLtpeaw6vs5NW9u+zG7Q/PaK05sGhoaqo+NjdWRKTo1T+643Wuh/405NoX+/8T6dfv22eWOI/X/LMem1HhDdvrmNPQ+Sf29yvnbEJqrUB+xsaXmOfZ/IfV3K/a6huY0Nm+p90I/cxL63xMi9ncgVDf2dyanjdQ4xJl/SXzWY++r2N8hl9jr6Ws31YZre+p5bI5idoTmxLUn5zNYhdz/QTljzGkrVV+TB65fv94s0p8+fVqOHz8OJ3KreJT6AlE2h0CtXq/DbY1jE2R0dHS5Mz2O0DdYd0CxLxJS4k1V5o9f6k3t2h2yKfaBi31BcOck549wzMbQP5/UH5fQ+Hx25twTek18bcT+GMe+oKRs8vXh2lrGzpBNsbH4+gnZlPriEXsNQ3983fttm3xlMXtSf2Bj48uxLfTeDn1eQuT24bue+0Up9dql5t83ttg/UB+p+2Pv67KvQ+pzKPLJf045n6+cz1NsvnL+jsX+J+S+vr7+fWPOtcHXT2zsuX8TY2Py1cn5m5gae6ivnHkPjSnHptTfQ59tsfko83csRc7/8tAcaj39UofISzz0u1RZW/qxeyXq9jufsb/ROf+bYzaUaaOq/atZdxDk9N/v+KSCkzO37iDnL/e7VtV2Ut8Dct7nvr5kwE7kQbVTpo8y7Qz6b0zZ/nPtqvLalBkb7kMev3a7jf8h9Uaj0SwcAqUizMo4BLBlYLzdbi9cunRJPvjgg87Y2FgHBoT+CdoM6s2yUuR84Vzpvm9EynypX4n5uJHnJsRq2l/1i+1qf3FZiTlZjbmVis6oKn1V+RIwiL6rkGNvTNRWfS+UeU0G9c8+t/x68bvwN3IlbezndVuNuSv7ZTiHkAPER47TxOdscn8v06evnTJUqetzSuWOIae/XJt896XqhmzvZw4HUX+liL0eg7A59z3db/u+1yrWdpX3UNk+qo6ljH1l283tp8znsGwbVf5m5rZZ9v5Bg3YRsT87O9uamppa6na7OI7wQqHbsynjEJjGeYedTue98+fPr5+cnJxoNpsL8GbDw+2ee6hZDn3nIWod3/1Kqlzbttty27XruNd9v7s/Q7aG7PLZ40PvC9UTZ/5CdoXmqqytvvHmvB6uLan3QKif0Phj8xR6D5UZj2+OU+NJvY/c+fKN09e/S2z+Q2355is0PyFScxW6Fpq70Oc2d1598xWbE99Yy9oSsj/1fgu9n0LjSL1euXVzbQi1l2NT7DXJeS/H/gb45tNH7H2Y8zc11odvDKn3Xs64Yu8535ylPpu5c5hD7G+v22cVUmPP+Vua8/0hZ45zxuN7/7h1Q/+3Up/9sv83BkmZz43vHteu2Ocidr3qfStF2f6r2Fv279lq9d0vud8jct5nIVtDf9NjdVPzLYm/sVUZ1FzntJM7p6G6NmXfm1VexzLlue2490pCI15Pcr9T90u32613Op0t7Xb7Urvd3ici7xa6PZuyrvFtIvJFEbm96GixQhuEEEIIIYQQQgipTq/YHrC+0OZvisiBIvdfNmXFfM3al3DjxSERQgghhBBCCCE3D7VCm7dxUg1fd0IIIYQQQgghhBBCCCGEEEIIIYQQQgghhBBCCCHkpocQQgghhBBCCCGEEEIIIYQQQgghhBBCCCGEEEIIIYQQQgghhBBCCCGEEEIIIYQQQgghhBBCCCGEEEIIIYQQQgghhBBCCCGEEEIIIYQQQgghhBBCCCGEEEIIIYQQQgghhBBCCCGEEEIIIYQQQgghK4uI/H/cHOaVUG+WbwAAAABJRU5ErkJggg==;" vertex="1" parent="1">
          <mxGeometry x="560" y="100" width="1028" height="953" as="geometry" />
        </mxCell>
        <mxCell id="gjBThCwCcwyk3Tr7rWLN-2" value="&lt;div&gt;&lt;div&gt;&lt;div&gt;&lt;span style=&quot;font-size: 18px;&quot;&gt;Nhà để xe&lt;/span&gt;&lt;/div&gt;&lt;/div&gt;&lt;/div&gt;" style="text;html=1;align=center;verticalAlign=middle;whiteSpace=wrap;rounded=0;" vertex="1" parent="1">
          <mxGeometry x="1420" y="290" width="116" height="70" as="geometry" />
        </mxCell>
        <mxCell id="gjBThCwCcwyk3Tr7rWLN-3" value="" style="image;points=[];aspect=fixed;html=1;align=center;shadow=0;dashed=0;image=img/lib/allied_telesis/security/Surveillance_Camera_Ceiling.svg;" vertex="1" parent="1">
          <mxGeometry x="1080" y="124.6" width="37.2" height="35.4" as="geometry" />
        </mxCell>
        <mxCell id="gjBThCwCcwyk3Tr7rWLN-4" value="" style="image;html=1;image=img/lib/clip_art/networking/Wireless_Router_N_128x128.png" vertex="1" parent="1">
          <mxGeometry x="1310" y="410" width="60" height="60" as="geometry" />
        </mxCell>
        <mxCell id="gjBThCwCcwyk3Tr7rWLN-5" value="" style="image;html=1;image=img/lib/clip_art/networking/Wireless_Router_N_128x128.png" vertex="1" parent="1">
          <mxGeometry x="1026.6" y="960" width="60" height="60" as="geometry" />
        </mxCell>
        <mxCell id="gjBThCwCcwyk3Tr7rWLN-6" value="" style="image;html=1;image=img/lib/clip_art/networking/Wireless_Router_N_128x128.png" vertex="1" parent="1">
          <mxGeometry x="879.9999999999999" y="420" width="60" height="60" as="geometry" />
        </mxCell>
        <mxCell id="gjBThCwCcwyk3Tr7rWLN-7" value="&lt;div&gt;&lt;div&gt;&lt;div&gt;&lt;span style=&quot;font-size: 18px;&quot;&gt;Phòng&lt;/span&gt;&lt;/div&gt;&lt;div&gt;&lt;span style=&quot;font-size: 18px;&quot;&gt;Tiếp khách&lt;/span&gt;&lt;/div&gt;&lt;/div&gt;&lt;/div&gt;" style="text;html=1;align=center;verticalAlign=middle;whiteSpace=wrap;rounded=0;" vertex="1" parent="1">
          <mxGeometry x="1250" y="160" width="116" height="70" as="geometry" />
        </mxCell>
        <mxCell id="gjBThCwCcwyk3Tr7rWLN-8" value="&lt;div&gt;&lt;div&gt;&lt;div&gt;&lt;span style=&quot;font-size: 18px;&quot;&gt;Phòng họp&lt;/span&gt;&lt;/div&gt;&lt;/div&gt;&lt;/div&gt;" style="text;html=1;align=center;verticalAlign=middle;whiteSpace=wrap;rounded=0;" vertex="1" parent="1">
          <mxGeometry x="980" y="200" width="116" height="70" as="geometry" />
        </mxCell>
        <mxCell id="gjBThCwCcwyk3Tr7rWLN-9" value="&lt;div&gt;&lt;div&gt;&lt;div&gt;&lt;span style=&quot;font-size: 18px;&quot;&gt;Showroom&lt;/span&gt;&lt;/div&gt;&lt;/div&gt;&lt;/div&gt;" style="text;html=1;align=center;verticalAlign=middle;whiteSpace=wrap;rounded=0;" vertex="1" parent="1">
          <mxGeometry x="940" y="710" width="116" height="70" as="geometry" />
        </mxCell>
        <mxCell id="gjBThCwCcwyk3Tr7rWLN-10" value="" style="image;points=[];aspect=fixed;html=1;align=center;shadow=0;dashed=0;image=img/lib/allied_telesis/security/Surveillance_Camera_Ceiling.svg;" vertex="1" parent="1">
          <mxGeometry x="1328.8" y="124.6" width="37.2" height="35.4" as="geometry" />
        </mxCell>
        <mxCell id="gjBThCwCcwyk3Tr7rWLN-11" value="" style="image;points=[];aspect=fixed;html=1;align=center;shadow=0;dashed=0;image=img/lib/allied_telesis/security/Surveillance_Camera_Ceiling.svg;" vertex="1" parent="1">
          <mxGeometry x="1382.8" y="124.6" width="37.2" height="35.4" as="geometry" />
        </mxCell>
        <mxCell id="gjBThCwCcwyk3Tr7rWLN-12" value="" style="image;points=[];aspect=fixed;html=1;align=center;shadow=0;dashed=0;image=img/lib/allied_telesis/security/Surveillance_Camera_Ceiling.svg;" vertex="1" parent="1">
          <mxGeometry x="580" y="640" width="37.2" height="35.4" as="geometry" />
        </mxCell>
        <mxCell id="gjBThCwCcwyk3Tr7rWLN-13" value="" style="image;points=[];aspect=fixed;html=1;align=center;shadow=0;dashed=0;image=img/lib/allied_telesis/security/Surveillance_Camera_Ceiling.svg;" vertex="1" parent="1">
          <mxGeometry x="1100" y="984.6" width="37.2" height="35.4" as="geometry" />
        </mxCell>
      </root>
    </mxGraphModel>
  </diagram>
</mxfile>
